<svg width="1512" height="982" viewBox="0 0 1512 982" fill="none" xmlns="http://www.w3.org/2000/svg">
<g clip-path="url(#clip0_17_259)">
<rect width="1512" height="982" fill="#282828"/>
<rect width="1077" height="504" transform="translate(374 42)" fill="#808080"/>
<path d="M598.375 483H1226.62C1276.19 483 1316.38 464.196 1316.38 441V147C1316.38 123.804 1276.19 105 1226.62 105H598.375C548.807 105 508.625 123.804 508.625 147V441C508.625 464.196 548.807 483 598.375 483ZM598.375 483L1092 252L1316.38 357M822.75 220.5C822.75 237.897 792.613 252 755.438 252C718.262 252 688.125 237.897 688.125 220.5C688.125 203.103 718.262 189 755.438 189C792.613 189 822.75 203.103 822.75 220.5Z" stroke="#6E757C" stroke-width="2" stroke-linecap="round" stroke-linejoin="round"/>
<path d="M613.5 481.5H1223.5V569.5H613.5V481.5Z" fill="white" stroke="#E4D376" stroke-width="5"/>
<path d="M282.5 629.5H1466.5V717.5H282.5V629.5Z" fill="white" stroke="#E4D376" stroke-width="5"/>
<path d="M735.117 516.93V518.008C735.117 519.289 734.957 520.438 734.637 521.453C734.316 522.469 733.855 523.332 733.254 524.043C732.652 524.754 731.93 525.297 731.086 525.672C730.25 526.047 729.312 526.234 728.273 526.234C727.266 526.234 726.34 526.047 725.496 525.672C724.66 525.297 723.934 524.754 723.316 524.043C722.707 523.332 722.234 522.469 721.898 521.453C721.562 520.438 721.395 519.289 721.395 518.008V516.93C721.395 515.648 721.559 514.504 721.887 513.496C722.223 512.48 722.695 511.617 723.305 510.906C723.914 510.188 724.637 509.641 725.473 509.266C726.316 508.891 727.242 508.703 728.25 508.703C729.289 508.703 730.227 508.891 731.062 509.266C731.906 509.641 732.629 510.188 733.23 510.906C733.84 511.617 734.305 512.48 734.625 513.496C734.953 514.504 735.117 515.648 735.117 516.93ZM732.879 518.008V516.906C732.879 515.891 732.773 514.992 732.562 514.211C732.359 513.43 732.059 512.773 731.66 512.242C731.262 511.711 730.773 511.309 730.195 511.035C729.625 510.762 728.977 510.625 728.25 510.625C727.547 510.625 726.91 510.762 726.34 511.035C725.777 511.309 725.293 511.711 724.887 512.242C724.488 512.773 724.18 513.43 723.961 514.211C723.742 514.992 723.633 515.891 723.633 516.906V518.008C723.633 519.031 723.742 519.938 723.961 520.727C724.18 521.508 724.492 522.168 724.898 522.707C725.312 523.238 725.801 523.641 726.363 523.914C726.934 524.188 727.57 524.324 728.273 524.324C729.008 524.324 729.66 524.188 730.23 523.914C730.801 523.641 731.281 523.238 731.672 522.707C732.07 522.168 732.371 521.508 732.574 520.727C732.777 519.938 732.879 519.031 732.879 518.008ZM742.531 524.043L746 513.32H748.215L743.656 526H742.203L742.531 524.043ZM739.637 513.32L743.211 524.102L743.457 526H742.004L737.41 513.32H739.637ZM755.898 526.234C755.016 526.234 754.215 526.086 753.496 525.789C752.785 525.484 752.172 525.059 751.656 524.512C751.148 523.965 750.758 523.316 750.484 522.566C750.211 521.816 750.074 520.996 750.074 520.105V519.613C750.074 518.582 750.227 517.664 750.531 516.859C750.836 516.047 751.25 515.359 751.773 514.797C752.297 514.234 752.891 513.809 753.555 513.52C754.219 513.23 754.906 513.086 755.617 513.086C756.523 513.086 757.305 513.242 757.961 513.555C758.625 513.867 759.168 514.305 759.59 514.867C760.012 515.422 760.324 516.078 760.527 516.836C760.73 517.586 760.832 518.406 760.832 519.297V520.27H751.363V518.5H758.664V518.336C758.633 517.773 758.516 517.227 758.312 516.695C758.117 516.164 757.805 515.727 757.375 515.383C756.945 515.039 756.359 514.867 755.617 514.867C755.125 514.867 754.672 514.973 754.258 515.184C753.844 515.387 753.488 515.691 753.191 516.098C752.895 516.504 752.664 517 752.5 517.586C752.336 518.172 752.254 518.848 752.254 519.613V520.105C752.254 520.707 752.336 521.273 752.5 521.805C752.672 522.328 752.918 522.789 753.238 523.188C753.566 523.586 753.961 523.898 754.422 524.125C754.891 524.352 755.422 524.465 756.016 524.465C756.781 524.465 757.43 524.309 757.961 523.996C758.492 523.684 758.957 523.266 759.355 522.742L760.668 523.785C760.395 524.199 760.047 524.594 759.625 524.969C759.203 525.344 758.684 525.648 758.066 525.883C757.457 526.117 756.734 526.234 755.898 526.234ZM766.031 515.312V526H763.863V513.32H765.973L766.031 515.312ZM769.992 513.25L769.98 515.266C769.801 515.227 769.629 515.203 769.465 515.195C769.309 515.18 769.129 515.172 768.926 515.172C768.426 515.172 767.984 515.25 767.602 515.406C767.219 515.562 766.895 515.781 766.629 516.062C766.363 516.344 766.152 516.68 765.996 517.07C765.848 517.453 765.75 517.875 765.703 518.336L765.094 518.688C765.094 517.922 765.168 517.203 765.316 516.531C765.473 515.859 765.711 515.266 766.031 514.75C766.352 514.227 766.758 513.82 767.25 513.531C767.75 513.234 768.344 513.086 769.031 513.086C769.188 513.086 769.367 513.105 769.57 513.145C769.773 513.176 769.914 513.211 769.992 513.25ZM779.879 522.637C779.879 522.324 779.809 522.035 779.668 521.77C779.535 521.496 779.258 521.25 778.836 521.031C778.422 520.805 777.797 520.609 776.961 520.445C776.258 520.297 775.621 520.121 775.051 519.918C774.488 519.715 774.008 519.469 773.609 519.18C773.219 518.891 772.918 518.551 772.707 518.16C772.496 517.77 772.391 517.312 772.391 516.789C772.391 516.289 772.5 515.816 772.719 515.371C772.945 514.926 773.262 514.531 773.668 514.188C774.082 513.844 774.578 513.574 775.156 513.379C775.734 513.184 776.379 513.086 777.09 513.086C778.105 513.086 778.973 513.266 779.691 513.625C780.41 513.984 780.961 514.465 781.344 515.066C781.727 515.66 781.918 516.32 781.918 517.047H779.75C779.75 516.695 779.645 516.355 779.434 516.027C779.23 515.691 778.93 515.414 778.531 515.195C778.141 514.977 777.66 514.867 777.09 514.867C776.488 514.867 776 514.961 775.625 515.148C775.258 515.328 774.988 515.559 774.816 515.84C774.652 516.121 774.57 516.418 774.57 516.73C774.57 516.965 774.609 517.176 774.688 517.363C774.773 517.543 774.922 517.711 775.133 517.867C775.344 518.016 775.641 518.156 776.023 518.289C776.406 518.422 776.895 518.555 777.488 518.688C778.527 518.922 779.383 519.203 780.055 519.531C780.727 519.859 781.227 520.262 781.555 520.738C781.883 521.215 782.047 521.793 782.047 522.473C782.047 523.027 781.93 523.535 781.695 523.996C781.469 524.457 781.137 524.855 780.699 525.191C780.27 525.52 779.754 525.777 779.152 525.965C778.559 526.145 777.891 526.234 777.148 526.234C776.031 526.234 775.086 526.035 774.312 525.637C773.539 525.238 772.953 524.723 772.555 524.09C772.156 523.457 771.957 522.789 771.957 522.086H774.137C774.168 522.68 774.34 523.152 774.652 523.504C774.965 523.848 775.348 524.094 775.801 524.242C776.254 524.383 776.703 524.453 777.148 524.453C777.742 524.453 778.238 524.375 778.637 524.219C779.043 524.062 779.352 523.848 779.562 523.574C779.773 523.301 779.879 522.988 779.879 522.637ZM787.574 508V526H785.395V508H787.574ZM795.32 513.32L789.789 519.238L786.695 522.449L786.52 520.141L788.734 517.492L792.672 513.32H795.32ZM793.34 526L788.816 519.953L789.941 518.02L795.895 526H793.34ZM800.227 515.312V526H798.059V513.32H800.168L800.227 515.312ZM804.188 513.25L804.176 515.266C803.996 515.227 803.824 515.203 803.66 515.195C803.504 515.18 803.324 515.172 803.121 515.172C802.621 515.172 802.18 515.25 801.797 515.406C801.414 515.562 801.09 515.781 800.824 516.062C800.559 516.344 800.348 516.68 800.191 517.07C800.043 517.453 799.945 517.875 799.898 518.336L799.289 518.688C799.289 517.922 799.363 517.203 799.512 516.531C799.668 515.859 799.906 515.266 800.227 514.75C800.547 514.227 800.953 513.82 801.445 513.531C801.945 513.234 802.539 513.086 803.227 513.086C803.383 513.086 803.562 513.105 803.766 513.145C803.969 513.176 804.109 513.211 804.188 513.25ZM809.047 513.32V526H806.867V513.32H809.047ZM806.703 509.957C806.703 509.605 806.809 509.309 807.02 509.066C807.238 508.824 807.559 508.703 807.98 508.703C808.395 508.703 808.711 508.824 808.93 509.066C809.156 509.309 809.27 509.605 809.27 509.957C809.27 510.293 809.156 510.582 808.93 510.824C808.711 511.059 808.395 511.176 807.98 511.176C807.559 511.176 807.238 511.059 807.02 510.824C806.809 510.582 806.703 510.293 806.703 509.957ZM816.262 526H814.094V511.984C814.094 511.07 814.258 510.301 814.586 509.676C814.922 509.043 815.402 508.566 816.027 508.246C816.652 507.918 817.395 507.754 818.254 507.754C818.504 507.754 818.754 507.77 819.004 507.801C819.262 507.832 819.512 507.879 819.754 507.941L819.637 509.711C819.473 509.672 819.285 509.645 819.074 509.629C818.871 509.613 818.668 509.605 818.465 509.605C818.004 509.605 817.605 509.699 817.27 509.887C816.941 510.066 816.691 510.332 816.52 510.684C816.348 511.035 816.262 511.469 816.262 511.984V526ZM818.957 513.32V514.984H812.09V513.32H818.957ZM827.18 513.32V514.984H820.324V513.32H827.18ZM822.645 510.238H824.812V522.859C824.812 523.289 824.879 523.613 825.012 523.832C825.145 524.051 825.316 524.195 825.527 524.266C825.738 524.336 825.965 524.371 826.207 524.371C826.387 524.371 826.574 524.355 826.77 524.324C826.973 524.285 827.125 524.254 827.227 524.23L827.238 526C827.066 526.055 826.84 526.105 826.559 526.152C826.285 526.207 825.953 526.234 825.562 526.234C825.031 526.234 824.543 526.129 824.098 525.918C823.652 525.707 823.297 525.355 823.031 524.863C822.773 524.363 822.645 523.691 822.645 522.848V510.238ZM844.152 523.832V517.305C844.152 516.805 844.051 516.371 843.848 516.004C843.652 515.629 843.355 515.34 842.957 515.137C842.559 514.934 842.066 514.832 841.48 514.832C840.934 514.832 840.453 514.926 840.039 515.113C839.633 515.301 839.312 515.547 839.078 515.852C838.852 516.156 838.738 516.484 838.738 516.836H836.57C836.57 516.383 836.688 515.934 836.922 515.488C837.156 515.043 837.492 514.641 837.93 514.281C838.375 513.914 838.906 513.625 839.523 513.414C840.148 513.195 840.844 513.086 841.609 513.086C842.531 513.086 843.344 513.242 844.047 513.555C844.758 513.867 845.312 514.34 845.711 514.973C846.117 515.598 846.32 516.383 846.32 517.328V523.234C846.32 523.656 846.355 524.105 846.426 524.582C846.504 525.059 846.617 525.469 846.766 525.812V526H844.504C844.395 525.75 844.309 525.418 844.246 525.004C844.184 524.582 844.152 524.191 844.152 523.832ZM844.527 518.312L844.551 519.836H842.359C841.742 519.836 841.191 519.887 840.707 519.988C840.223 520.082 839.816 520.227 839.488 520.422C839.16 520.617 838.91 520.863 838.738 521.16C838.566 521.449 838.48 521.789 838.48 522.18C838.48 522.578 838.57 522.941 838.75 523.27C838.93 523.598 839.199 523.859 839.559 524.055C839.926 524.242 840.375 524.336 840.906 524.336C841.57 524.336 842.156 524.195 842.664 523.914C843.172 523.633 843.574 523.289 843.871 522.883C844.176 522.477 844.34 522.082 844.363 521.699L845.289 522.742C845.234 523.07 845.086 523.434 844.844 523.832C844.602 524.23 844.277 524.613 843.871 524.98C843.473 525.34 842.996 525.641 842.441 525.883C841.895 526.117 841.277 526.234 840.59 526.234C839.73 526.234 838.977 526.066 838.328 525.73C837.688 525.395 837.188 524.945 836.828 524.383C836.477 523.812 836.301 523.176 836.301 522.473C836.301 521.793 836.434 521.195 836.699 520.68C836.965 520.156 837.348 519.723 837.848 519.379C838.348 519.027 838.949 518.762 839.652 518.582C840.355 518.402 841.141 518.312 842.008 518.312H844.527ZM858.445 513.32H860.414V525.73C860.414 526.848 860.188 527.801 859.734 528.59C859.281 529.379 858.648 529.977 857.836 530.383C857.031 530.797 856.102 531.004 855.047 531.004C854.609 531.004 854.094 530.934 853.5 530.793C852.914 530.66 852.336 530.43 851.766 530.102C851.203 529.781 850.73 529.348 850.348 528.801L851.484 527.512C852.016 528.152 852.57 528.598 853.148 528.848C853.734 529.098 854.312 529.223 854.883 529.223C855.57 529.223 856.164 529.094 856.664 528.836C857.164 528.578 857.551 528.195 857.824 527.688C858.105 527.188 858.246 526.57 858.246 525.836V516.109L858.445 513.32ZM849.715 519.801V519.555C849.715 518.586 849.828 517.707 850.055 516.918C850.289 516.121 850.621 515.438 851.051 514.867C851.488 514.297 852.016 513.859 852.633 513.555C853.25 513.242 853.945 513.086 854.719 513.086C855.516 513.086 856.211 513.227 856.805 513.508C857.406 513.781 857.914 514.184 858.328 514.715C858.75 515.238 859.082 515.871 859.324 516.613C859.566 517.355 859.734 518.195 859.828 519.133V520.211C859.742 521.141 859.574 521.977 859.324 522.719C859.082 523.461 858.75 524.094 858.328 524.617C857.914 525.141 857.406 525.543 856.805 525.824C856.203 526.098 855.5 526.234 854.695 526.234C853.938 526.234 853.25 526.074 852.633 525.754C852.023 525.434 851.5 524.984 851.062 524.406C850.625 523.828 850.289 523.148 850.055 522.367C849.828 521.578 849.715 520.723 849.715 519.801ZM851.883 519.555V519.801C851.883 520.434 851.945 521.027 852.07 521.582C852.203 522.137 852.402 522.625 852.668 523.047C852.941 523.469 853.289 523.801 853.711 524.043C854.133 524.277 854.637 524.395 855.223 524.395C855.941 524.395 856.535 524.242 857.004 523.938C857.473 523.633 857.844 523.23 858.117 522.73C858.398 522.23 858.617 521.688 858.773 521.102V518.277C858.688 517.848 858.555 517.434 858.375 517.035C858.203 516.629 857.977 516.27 857.695 515.957C857.422 515.637 857.082 515.383 856.676 515.195C856.27 515.008 855.793 514.914 855.246 514.914C854.652 514.914 854.141 515.039 853.711 515.289C853.289 515.531 852.941 515.867 852.668 516.297C852.402 516.719 852.203 517.211 852.07 517.773C851.945 518.328 851.883 518.922 851.883 519.555ZM869.516 513.32V514.984H862.66V513.32H869.516ZM864.98 510.238H867.148V522.859C867.148 523.289 867.215 523.613 867.348 523.832C867.48 524.051 867.652 524.195 867.863 524.266C868.074 524.336 868.301 524.371 868.543 524.371C868.723 524.371 868.91 524.355 869.105 524.324C869.309 524.285 869.461 524.254 869.562 524.23L869.574 526C869.402 526.055 869.176 526.105 868.895 526.152C868.621 526.207 868.289 526.234 867.898 526.234C867.367 526.234 866.879 526.129 866.434 525.918C865.988 525.707 865.633 525.355 865.367 524.863C865.109 524.363 864.98 523.691 864.98 522.848V510.238ZM874.914 513.32V526H872.734V513.32H874.914ZM872.57 509.957C872.57 509.605 872.676 509.309 872.887 509.066C873.105 508.824 873.426 508.703 873.848 508.703C874.262 508.703 874.578 508.824 874.797 509.066C875.023 509.309 875.137 509.605 875.137 509.957C875.137 510.293 875.023 510.582 874.797 510.824C874.578 511.059 874.262 511.176 873.848 511.176C873.426 511.176 873.105 511.059 872.887 510.824C872.676 510.582 872.57 510.293 872.57 509.957ZM887.109 513.32H889.078V525.73C889.078 526.848 888.852 527.801 888.398 528.59C887.945 529.379 887.312 529.977 886.5 530.383C885.695 530.797 884.766 531.004 883.711 531.004C883.273 531.004 882.758 530.934 882.164 530.793C881.578 530.66 881 530.43 880.43 530.102C879.867 529.781 879.395 529.348 879.012 528.801L880.148 527.512C880.68 528.152 881.234 528.598 881.812 528.848C882.398 529.098 882.977 529.223 883.547 529.223C884.234 529.223 884.828 529.094 885.328 528.836C885.828 528.578 886.215 528.195 886.488 527.688C886.77 527.188 886.91 526.57 886.91 525.836V516.109L887.109 513.32ZM878.379 519.801V519.555C878.379 518.586 878.492 517.707 878.719 516.918C878.953 516.121 879.285 515.438 879.715 514.867C880.152 514.297 880.68 513.859 881.297 513.555C881.914 513.242 882.609 513.086 883.383 513.086C884.18 513.086 884.875 513.227 885.469 513.508C886.07 513.781 886.578 514.184 886.992 514.715C887.414 515.238 887.746 515.871 887.988 516.613C888.23 517.355 888.398 518.195 888.492 519.133V520.211C888.406 521.141 888.238 521.977 887.988 522.719C887.746 523.461 887.414 524.094 886.992 524.617C886.578 525.141 886.07 525.543 885.469 525.824C884.867 526.098 884.164 526.234 883.359 526.234C882.602 526.234 881.914 526.074 881.297 525.754C880.688 525.434 880.164 524.984 879.727 524.406C879.289 523.828 878.953 523.148 878.719 522.367C878.492 521.578 878.379 520.723 878.379 519.801ZM880.547 519.555V519.801C880.547 520.434 880.609 521.027 880.734 521.582C880.867 522.137 881.066 522.625 881.332 523.047C881.605 523.469 881.953 523.801 882.375 524.043C882.797 524.277 883.301 524.395 883.887 524.395C884.605 524.395 885.199 524.242 885.668 523.938C886.137 523.633 886.508 523.23 886.781 522.73C887.062 522.23 887.281 521.688 887.438 521.102V518.277C887.352 517.848 887.219 517.434 887.039 517.035C886.867 516.629 886.641 516.27 886.359 515.957C886.086 515.637 885.746 515.383 885.34 515.195C884.934 515.008 884.457 514.914 883.91 514.914C883.316 514.914 882.805 515.039 882.375 515.289C881.953 515.531 881.605 515.867 881.332 516.297C881.066 516.719 880.867 517.211 880.734 517.773C880.609 518.328 880.547 518.922 880.547 519.555ZM906.801 523.832V517.305C906.801 516.805 906.699 516.371 906.496 516.004C906.301 515.629 906.004 515.34 905.605 515.137C905.207 514.934 904.715 514.832 904.129 514.832C903.582 514.832 903.102 514.926 902.688 515.113C902.281 515.301 901.961 515.547 901.727 515.852C901.5 516.156 901.387 516.484 901.387 516.836H899.219C899.219 516.383 899.336 515.934 899.57 515.488C899.805 515.043 900.141 514.641 900.578 514.281C901.023 513.914 901.555 513.625 902.172 513.414C902.797 513.195 903.492 513.086 904.258 513.086C905.18 513.086 905.992 513.242 906.695 513.555C907.406 513.867 907.961 514.34 908.359 514.973C908.766 515.598 908.969 516.383 908.969 517.328V523.234C908.969 523.656 909.004 524.105 909.074 524.582C909.152 525.059 909.266 525.469 909.414 525.812V526H907.152C907.043 525.75 906.957 525.418 906.895 525.004C906.832 524.582 906.801 524.191 906.801 523.832ZM907.176 518.312L907.199 519.836H905.008C904.391 519.836 903.84 519.887 903.355 519.988C902.871 520.082 902.465 520.227 902.137 520.422C901.809 520.617 901.559 520.863 901.387 521.16C901.215 521.449 901.129 521.789 901.129 522.18C901.129 522.578 901.219 522.941 901.398 523.27C901.578 523.598 901.848 523.859 902.207 524.055C902.574 524.242 903.023 524.336 903.555 524.336C904.219 524.336 904.805 524.195 905.312 523.914C905.82 523.633 906.223 523.289 906.52 522.883C906.824 522.477 906.988 522.082 907.012 521.699L907.938 522.742C907.883 523.07 907.734 523.434 907.492 523.832C907.25 524.23 906.926 524.613 906.52 524.98C906.121 525.34 905.645 525.641 905.09 525.883C904.543 526.117 903.926 526.234 903.238 526.234C902.379 526.234 901.625 526.066 900.977 525.73C900.336 525.395 899.836 524.945 899.477 524.383C899.125 523.812 898.949 523.176 898.949 522.473C898.949 521.793 899.082 521.195 899.348 520.68C899.613 520.156 899.996 519.723 900.496 519.379C900.996 519.027 901.598 518.762 902.301 518.582C903.004 518.402 903.789 518.312 904.656 518.312H907.176ZM916.113 526H913.945V511.984C913.945 511.07 914.109 510.301 914.438 509.676C914.773 509.043 915.254 508.566 915.879 508.246C916.504 507.918 917.246 507.754 918.105 507.754C918.355 507.754 918.605 507.77 918.855 507.801C919.113 507.832 919.363 507.879 919.605 507.941L919.488 509.711C919.324 509.672 919.137 509.645 918.926 509.629C918.723 509.613 918.52 509.605 918.316 509.605C917.855 509.605 917.457 509.699 917.121 509.887C916.793 510.066 916.543 510.332 916.371 510.684C916.199 511.035 916.113 511.469 916.113 511.984V526ZM918.809 513.32V514.984H911.941V513.32H918.809ZM933.438 526.234C932.555 526.234 931.754 526.086 931.035 525.789C930.324 525.484 929.711 525.059 929.195 524.512C928.688 523.965 928.297 523.316 928.023 522.566C927.75 521.816 927.613 520.996 927.613 520.105V519.613C927.613 518.582 927.766 517.664 928.07 516.859C928.375 516.047 928.789 515.359 929.312 514.797C929.836 514.234 930.43 513.809 931.094 513.52C931.758 513.23 932.445 513.086 933.156 513.086C934.062 513.086 934.844 513.242 935.5 513.555C936.164 513.867 936.707 514.305 937.129 514.867C937.551 515.422 937.863 516.078 938.066 516.836C938.27 517.586 938.371 518.406 938.371 519.297V520.27H928.902V518.5H936.203V518.336C936.172 517.773 936.055 517.227 935.852 516.695C935.656 516.164 935.344 515.727 934.914 515.383C934.484 515.039 933.898 514.867 933.156 514.867C932.664 514.867 932.211 514.973 931.797 515.184C931.383 515.387 931.027 515.691 930.73 516.098C930.434 516.504 930.203 517 930.039 517.586C929.875 518.172 929.793 518.848 929.793 519.613V520.105C929.793 520.707 929.875 521.273 930.039 521.805C930.211 522.328 930.457 522.789 930.777 523.188C931.105 523.586 931.5 523.898 931.961 524.125C932.43 524.352 932.961 524.465 933.555 524.465C934.32 524.465 934.969 524.309 935.5 523.996C936.031 523.684 936.496 523.266 936.895 522.742L938.207 523.785C937.934 524.199 937.586 524.594 937.164 524.969C936.742 525.344 936.223 525.648 935.605 525.883C934.996 526.117 934.273 526.234 933.438 526.234ZM943.57 516.027V526H941.402V513.32H943.453L943.57 516.027ZM943.055 519.18L942.152 519.145C942.16 518.277 942.289 517.477 942.539 516.742C942.789 516 943.141 515.355 943.594 514.809C944.047 514.262 944.586 513.84 945.211 513.543C945.844 513.238 946.543 513.086 947.309 513.086C947.934 513.086 948.496 513.172 948.996 513.344C949.496 513.508 949.922 513.773 950.273 514.141C950.633 514.508 950.906 514.984 951.094 515.57C951.281 516.148 951.375 516.855 951.375 517.691V526H949.195V517.668C949.195 517.004 949.098 516.473 948.902 516.074C948.707 515.668 948.422 515.375 948.047 515.195C947.672 515.008 947.211 514.914 946.664 514.914C946.125 514.914 945.633 515.027 945.188 515.254C944.75 515.48 944.371 515.793 944.051 516.191C943.738 516.59 943.492 517.047 943.312 517.562C943.141 518.07 943.055 518.609 943.055 519.18ZM964.516 526H962.348V512.219C962.348 511.258 962.535 510.445 962.91 509.781C963.285 509.117 963.82 508.613 964.516 508.27C965.211 507.926 966.035 507.754 966.988 507.754C967.551 507.754 968.102 507.824 968.641 507.965C969.18 508.098 969.734 508.266 970.305 508.469L969.941 510.297C969.582 510.156 969.164 510.023 968.688 509.898C968.219 509.766 967.703 509.699 967.141 509.699C966.211 509.699 965.539 509.91 965.125 510.332C964.719 510.746 964.516 511.375 964.516 512.219V526ZM967.105 513.32V514.984H960.344V513.32H967.105ZM971.371 513.32V526H969.203V513.32H971.371ZM977.789 508V526H975.609V508H977.789ZM983.926 515.84V526H981.746V513.32H983.809L983.926 515.84ZM983.48 519.18L982.473 519.145C982.48 518.277 982.594 517.477 982.812 516.742C983.031 516 983.355 515.355 983.785 514.809C984.215 514.262 984.75 513.84 985.391 513.543C986.031 513.238 986.773 513.086 987.617 513.086C988.211 513.086 988.758 513.172 989.258 513.344C989.758 513.508 990.191 513.77 990.559 514.129C990.926 514.488 991.211 514.949 991.414 515.512C991.617 516.074 991.719 516.754 991.719 517.551V526H989.551V517.656C989.551 516.992 989.438 516.461 989.211 516.062C988.992 515.664 988.68 515.375 988.273 515.195C987.867 515.008 987.391 514.914 986.844 514.914C986.203 514.914 985.668 515.027 985.238 515.254C984.809 515.48 984.465 515.793 984.207 516.191C983.949 516.59 983.762 517.047 983.645 517.562C983.535 518.07 983.48 518.609 983.48 519.18ZM991.695 517.984L990.242 518.43C990.25 517.734 990.363 517.066 990.582 516.426C990.809 515.785 991.133 515.215 991.555 514.715C991.984 514.215 992.512 513.82 993.137 513.531C993.762 513.234 994.477 513.086 995.281 513.086C995.961 513.086 996.562 513.176 997.086 513.355C997.617 513.535 998.062 513.812 998.422 514.188C998.789 514.555 999.066 515.027 999.254 515.605C999.441 516.184 999.535 516.871 999.535 517.668V526H997.355V517.645C997.355 516.934 997.242 516.383 997.016 515.992C996.797 515.594 996.484 515.316 996.078 515.16C995.68 514.996 995.203 514.914 994.648 514.914C994.172 514.914 993.75 514.996 993.383 515.16C993.016 515.324 992.707 515.551 992.457 515.84C992.207 516.121 992.016 516.445 991.883 516.812C991.758 517.18 991.695 517.57 991.695 517.984ZM1010.86 508.938L1003.75 527.465H1001.89L1009.01 508.938H1010.86ZM1015.9 515.758V530.875H1013.72V513.32H1015.71L1015.9 515.758ZM1024.44 519.555V519.801C1024.44 520.723 1024.33 521.578 1024.11 522.367C1023.89 523.148 1023.57 523.828 1023.15 524.406C1022.74 524.984 1022.23 525.434 1021.62 525.754C1021.01 526.074 1020.31 526.234 1019.52 526.234C1018.71 526.234 1018 526.102 1017.39 525.836C1016.77 525.57 1016.25 525.184 1015.82 524.676C1015.39 524.168 1015.04 523.559 1014.79 522.848C1014.54 522.137 1014.36 521.336 1014.27 520.445V519.133C1014.36 518.195 1014.54 517.355 1014.8 516.613C1015.05 515.871 1015.39 515.238 1015.82 514.715C1016.25 514.184 1016.77 513.781 1017.38 513.508C1017.98 513.227 1018.69 513.086 1019.48 513.086C1020.28 513.086 1020.99 513.242 1021.61 513.555C1022.22 513.859 1022.74 514.297 1023.16 514.867C1023.59 515.438 1023.9 516.121 1024.11 516.918C1024.33 517.707 1024.44 518.586 1024.44 519.555ZM1022.26 519.801V519.555C1022.26 518.922 1022.2 518.328 1022.06 517.773C1021.93 517.211 1021.72 516.719 1021.44 516.297C1021.17 515.867 1020.82 515.531 1020.39 515.289C1019.96 515.039 1019.45 514.914 1018.85 514.914C1018.3 514.914 1017.83 515.008 1017.42 515.195C1017.02 515.383 1016.68 515.637 1016.4 515.957C1016.12 516.27 1015.89 516.629 1015.71 517.035C1015.54 517.434 1015.41 517.848 1015.32 518.277V521.312C1015.48 521.859 1015.7 522.375 1015.98 522.859C1016.26 523.336 1016.64 523.723 1017.11 524.02C1017.57 524.309 1018.16 524.453 1018.88 524.453C1019.46 524.453 1019.96 524.332 1020.39 524.09C1020.82 523.84 1021.17 523.5 1021.44 523.07C1021.72 522.641 1021.93 522.148 1022.06 521.594C1022.2 521.031 1022.26 520.434 1022.26 519.801ZM1032.97 526.234C1032.09 526.234 1031.29 526.086 1030.57 525.789C1029.86 525.484 1029.24 525.059 1028.73 524.512C1028.22 523.965 1027.83 523.316 1027.55 522.566C1027.28 521.816 1027.14 520.996 1027.14 520.105V519.613C1027.14 518.582 1027.3 517.664 1027.6 516.859C1027.91 516.047 1028.32 515.359 1028.84 514.797C1029.37 514.234 1029.96 513.809 1030.62 513.52C1031.29 513.23 1031.98 513.086 1032.69 513.086C1033.59 513.086 1034.38 513.242 1035.03 513.555C1035.7 513.867 1036.24 514.305 1036.66 514.867C1037.08 515.422 1037.39 516.078 1037.6 516.836C1037.8 517.586 1037.9 518.406 1037.9 519.297V520.27H1028.43V518.5H1035.73V518.336C1035.7 517.773 1035.59 517.227 1035.38 516.695C1035.19 516.164 1034.88 515.727 1034.45 515.383C1034.02 515.039 1033.43 514.867 1032.69 514.867C1032.2 514.867 1031.74 514.973 1031.33 515.184C1030.91 515.387 1030.56 515.691 1030.26 516.098C1029.96 516.504 1029.73 517 1029.57 517.586C1029.41 518.172 1029.32 518.848 1029.32 519.613V520.105C1029.32 520.707 1029.41 521.273 1029.57 521.805C1029.74 522.328 1029.99 522.789 1030.31 523.188C1030.64 523.586 1031.03 523.898 1031.49 524.125C1031.96 524.352 1032.49 524.465 1033.09 524.465C1033.85 524.465 1034.5 524.309 1035.03 523.996C1035.56 523.684 1036.03 523.266 1036.43 522.742L1037.74 523.785C1037.46 524.199 1037.12 524.594 1036.7 524.969C1036.27 525.344 1035.75 525.648 1035.14 525.883C1034.53 526.117 1033.8 526.234 1032.97 526.234ZM1043.1 515.312V526H1040.93V513.32H1043.04L1043.1 515.312ZM1047.06 513.25L1047.05 515.266C1046.87 515.227 1046.7 515.203 1046.54 515.195C1046.38 515.18 1046.2 515.172 1046 515.172C1045.5 515.172 1045.05 515.25 1044.67 515.406C1044.29 515.562 1043.96 515.781 1043.7 516.062C1043.43 516.344 1043.22 516.68 1043.07 517.07C1042.92 517.453 1042.82 517.875 1042.77 518.336L1042.16 518.688C1042.16 517.922 1042.24 517.203 1042.39 516.531C1042.54 515.859 1042.78 515.266 1043.1 514.75C1043.42 514.227 1043.83 513.82 1044.32 513.531C1044.82 513.234 1045.41 513.086 1046.1 513.086C1046.26 513.086 1046.44 513.105 1046.64 513.145C1046.84 513.176 1046.98 513.211 1047.06 513.25ZM1056.95 522.637C1056.95 522.324 1056.88 522.035 1056.74 521.77C1056.61 521.496 1056.33 521.25 1055.91 521.031C1055.49 520.805 1054.87 520.609 1054.03 520.445C1053.33 520.297 1052.69 520.121 1052.12 519.918C1051.56 519.715 1051.08 519.469 1050.68 519.18C1050.29 518.891 1049.99 518.551 1049.78 518.16C1049.57 517.77 1049.46 517.312 1049.46 516.789C1049.46 516.289 1049.57 515.816 1049.79 515.371C1050.02 514.926 1050.33 514.531 1050.74 514.188C1051.15 513.844 1051.65 513.574 1052.23 513.379C1052.8 513.184 1053.45 513.086 1054.16 513.086C1055.18 513.086 1056.04 513.266 1056.76 513.625C1057.48 513.984 1058.03 514.465 1058.41 515.066C1058.8 515.66 1058.99 516.32 1058.99 517.047H1056.82C1056.82 516.695 1056.71 516.355 1056.5 516.027C1056.3 515.691 1056 515.414 1055.6 515.195C1055.21 514.977 1054.73 514.867 1054.16 514.867C1053.56 514.867 1053.07 514.961 1052.7 515.148C1052.33 515.328 1052.06 515.559 1051.89 515.84C1051.72 516.121 1051.64 516.418 1051.64 516.73C1051.64 516.965 1051.68 517.176 1051.76 517.363C1051.84 517.543 1051.99 517.711 1052.2 517.867C1052.41 518.016 1052.71 518.156 1053.09 518.289C1053.48 518.422 1053.96 518.555 1054.56 518.688C1055.6 518.922 1056.45 519.203 1057.12 519.531C1057.8 519.859 1058.3 520.262 1058.62 520.738C1058.95 521.215 1059.12 521.793 1059.12 522.473C1059.12 523.027 1059 523.535 1058.77 523.996C1058.54 524.457 1058.21 524.855 1057.77 525.191C1057.34 525.52 1056.82 525.777 1056.22 525.965C1055.63 526.145 1054.96 526.234 1054.22 526.234C1053.1 526.234 1052.16 526.035 1051.38 525.637C1050.61 525.238 1050.02 524.723 1049.62 524.09C1049.23 523.457 1049.03 522.789 1049.03 522.086H1051.21C1051.24 522.68 1051.41 523.152 1051.72 523.504C1052.04 523.848 1052.42 524.094 1052.87 524.242C1053.32 524.383 1053.77 524.453 1054.22 524.453C1054.81 524.453 1055.31 524.375 1055.71 524.219C1056.11 524.062 1056.42 523.848 1056.63 523.574C1056.84 523.301 1056.95 522.988 1056.95 522.637ZM1061.89 519.801V519.531C1061.89 518.617 1062.02 517.77 1062.29 516.988C1062.55 516.199 1062.94 515.516 1063.44 514.938C1063.94 514.352 1064.54 513.898 1065.25 513.578C1065.96 513.25 1066.76 513.086 1067.64 513.086C1068.54 513.086 1069.34 513.25 1070.05 513.578C1070.77 513.898 1071.38 514.352 1071.88 514.938C1072.38 515.516 1072.77 516.199 1073.04 516.988C1073.3 517.77 1073.43 518.617 1073.43 519.531V519.801C1073.43 520.715 1073.3 521.562 1073.04 522.344C1072.77 523.125 1072.38 523.809 1071.88 524.395C1071.38 524.973 1070.77 525.426 1070.06 525.754C1069.36 526.074 1068.56 526.234 1067.67 526.234C1066.78 526.234 1065.98 526.074 1065.27 525.754C1064.55 525.426 1063.95 524.973 1063.44 524.395C1062.94 523.809 1062.55 523.125 1062.29 522.344C1062.02 521.562 1061.89 520.715 1061.89 519.801ZM1064.06 519.531V519.801C1064.06 520.434 1064.13 521.031 1064.28 521.594C1064.43 522.148 1064.65 522.641 1064.95 523.07C1065.25 523.5 1065.63 523.84 1066.09 524.09C1066.54 524.332 1067.07 524.453 1067.67 524.453C1068.26 524.453 1068.78 524.332 1069.23 524.09C1069.68 523.84 1070.05 523.5 1070.35 523.07C1070.65 522.641 1070.87 522.148 1071.02 521.594C1071.18 521.031 1071.25 520.434 1071.25 519.801V519.531C1071.25 518.906 1071.18 518.316 1071.02 517.762C1070.87 517.199 1070.64 516.703 1070.34 516.273C1070.04 515.836 1069.67 515.492 1069.21 515.242C1068.77 514.992 1068.25 514.867 1067.64 514.867C1067.05 514.867 1066.53 514.992 1066.07 515.242C1065.63 515.492 1065.25 515.836 1064.95 516.273C1064.65 516.703 1064.43 517.199 1064.28 517.762C1064.13 518.316 1064.06 518.906 1064.06 519.531ZM1078.82 516.027V526H1076.65V513.32H1078.7L1078.82 516.027ZM1078.3 519.18L1077.4 519.145C1077.41 518.277 1077.54 517.477 1077.79 516.742C1078.04 516 1078.39 515.355 1078.84 514.809C1079.3 514.262 1079.84 513.84 1080.46 513.543C1081.09 513.238 1081.79 513.086 1082.56 513.086C1083.18 513.086 1083.75 513.172 1084.25 513.344C1084.75 513.508 1085.17 513.773 1085.52 514.141C1085.88 514.508 1086.16 514.984 1086.34 515.57C1086.53 516.148 1086.62 516.855 1086.62 517.691V526H1084.45V517.668C1084.45 517.004 1084.35 516.473 1084.15 516.074C1083.96 515.668 1083.67 515.375 1083.3 515.195C1082.92 515.008 1082.46 514.914 1081.91 514.914C1081.38 514.914 1080.88 515.027 1080.44 515.254C1080 515.48 1079.62 515.793 1079.3 516.191C1078.99 516.59 1078.74 517.047 1078.56 517.562C1078.39 518.07 1078.3 518.609 1078.3 519.18Z" fill="black"/>
<g filter="url(#filter0_d_17_259)">
<path d="M1045.47 879.592C1036.05 840.004 1066.07 802 1106.76 802H1137.17H1171.57C1211.19 802 1240.97 838.135 1233.41 877.025C1227.66 906.628 1201.73 928 1171.57 928H1106.76C1077.59 928 1052.23 907.972 1045.47 879.592Z" fill="#D9D9D9"/>
</g>
<g filter="url(#filter1_d_17_259)">
<path d="M281.474 879.592C272.049 840.004 302.067 802 342.761 802H373.171H407.57C447.189 802 476.974 838.135 469.412 877.025C463.656 906.628 437.728 928 407.57 928H342.761C313.588 928 288.231 907.972 281.474 879.592Z" fill="#D9D9D9"/>
</g>
<g filter="url(#filter2_d_17_259)">
<path d="M850.6 866.886C843.959 821.616 879.051 781 924.806 781H977.583H1033.48C1078.44 781 1113.3 820.28 1107.95 864.918L1105.91 881.918C1101.4 919.621 1069.42 948 1031.45 948H927.3C890.083 948 858.496 920.709 853.094 883.886L850.6 866.886Z" fill="#D9D9D9"/>
</g>
<g filter="url(#filter3_d_17_259)">
<path d="M418.6 866.886C411.959 821.616 447.051 781 492.806 781H545.583H601.482C646.439 781 681.296 820.28 675.95 864.918L673.914 881.918C669.399 919.621 637.418 948 599.446 948H495.3C458.083 948 426.496 920.709 421.094 883.886L418.6 866.886Z" fill="#D9D9D9"/>
</g>
<g filter="url(#filter4_d_17_259)">
<path d="M596.425 846.61C591.917 802.409 626.608 764 671.038 764H755.5H841.576C885.786 764 920.404 802.045 916.243 846.058L911.422 897.058C907.782 935.573 875.442 965 836.755 965H676.24C637.765 965 605.531 935.886 601.627 897.61L596.425 846.61Z" fill="#D9D9D9"/>
</g>
<path d="M650.062 836.02H645.738L645.715 834.203H649.641C650.289 834.203 650.855 834.094 651.34 833.875C651.824 833.656 652.199 833.344 652.465 832.938C652.738 832.523 652.875 832.031 652.875 831.461C652.875 830.836 652.754 830.328 652.512 829.938C652.277 829.539 651.914 829.25 651.422 829.07C650.938 828.883 650.32 828.789 649.57 828.789H646.242V844H643.98V826.938H649.57C650.445 826.938 651.227 827.027 651.914 827.207C652.602 827.379 653.184 827.652 653.66 828.027C654.145 828.395 654.512 828.863 654.762 829.434C655.012 830.004 655.137 830.688 655.137 831.484C655.137 832.188 654.957 832.824 654.598 833.395C654.238 833.957 653.738 834.418 653.098 834.777C652.465 835.137 651.723 835.367 650.871 835.469L650.062 836.02ZM649.957 844H644.848L646.125 842.16H649.957C650.676 842.16 651.285 842.035 651.785 841.785C652.293 841.535 652.68 841.184 652.945 840.73C653.211 840.27 653.344 839.727 653.344 839.102C653.344 838.469 653.23 837.922 653.004 837.461C652.777 837 652.422 836.645 651.938 836.395C651.453 836.145 650.828 836.02 650.062 836.02H646.84L646.863 834.203H651.27L651.75 834.859C652.57 834.93 653.266 835.164 653.836 835.562C654.406 835.953 654.84 836.453 655.137 837.062C655.441 837.672 655.594 838.344 655.594 839.078C655.594 840.141 655.359 841.039 654.891 841.773C654.43 842.5 653.777 843.055 652.934 843.438C652.09 843.812 651.098 844 649.957 844ZM661.461 831.32V844H659.281V831.32H661.461ZM659.117 827.957C659.117 827.605 659.223 827.309 659.434 827.066C659.652 826.824 659.973 826.703 660.395 826.703C660.809 826.703 661.125 826.824 661.344 827.066C661.57 827.309 661.684 827.605 661.684 827.957C661.684 828.293 661.57 828.582 661.344 828.824C661.125 829.059 660.809 829.176 660.395 829.176C659.973 829.176 659.652 829.059 659.434 828.824C659.223 828.582 659.117 828.293 659.117 827.957ZM667.797 826V844H665.617V826H667.797ZM674.133 826V844H671.953V826H674.133ZM683.375 844.234C682.492 844.234 681.691 844.086 680.973 843.789C680.262 843.484 679.648 843.059 679.133 842.512C678.625 841.965 678.234 841.316 677.961 840.566C677.688 839.816 677.551 838.996 677.551 838.105V837.613C677.551 836.582 677.703 835.664 678.008 834.859C678.312 834.047 678.727 833.359 679.25 832.797C679.773 832.234 680.367 831.809 681.031 831.52C681.695 831.23 682.383 831.086 683.094 831.086C684 831.086 684.781 831.242 685.438 831.555C686.102 831.867 686.645 832.305 687.066 832.867C687.488 833.422 687.801 834.078 688.004 834.836C688.207 835.586 688.309 836.406 688.309 837.297V838.27H678.84V836.5H686.141V836.336C686.109 835.773 685.992 835.227 685.789 834.695C685.594 834.164 685.281 833.727 684.852 833.383C684.422 833.039 683.836 832.867 683.094 832.867C682.602 832.867 682.148 832.973 681.734 833.184C681.32 833.387 680.965 833.691 680.668 834.098C680.371 834.504 680.141 835 679.977 835.586C679.812 836.172 679.73 836.848 679.73 837.613V838.105C679.73 838.707 679.812 839.273 679.977 839.805C680.148 840.328 680.395 840.789 680.715 841.188C681.043 841.586 681.438 841.898 681.898 842.125C682.367 842.352 682.898 842.465 683.492 842.465C684.258 842.465 684.906 842.309 685.438 841.996C685.969 841.684 686.434 841.266 686.832 840.742L688.145 841.785C687.871 842.199 687.523 842.594 687.102 842.969C686.68 843.344 686.16 843.648 685.543 843.883C684.934 844.117 684.211 844.234 683.375 844.234ZM699.332 841.539V826H701.512V844H699.52L699.332 841.539ZM690.801 837.801V837.555C690.801 836.586 690.918 835.707 691.152 834.918C691.395 834.121 691.734 833.438 692.172 832.867C692.617 832.297 693.145 831.859 693.754 831.555C694.371 831.242 695.059 831.086 695.816 831.086C696.613 831.086 697.309 831.227 697.902 831.508C698.504 831.781 699.012 832.184 699.426 832.715C699.848 833.238 700.18 833.871 700.422 834.613C700.664 835.355 700.832 836.195 700.926 837.133V838.211C700.84 839.141 700.672 839.977 700.422 840.719C700.18 841.461 699.848 842.094 699.426 842.617C699.012 843.141 698.504 843.543 697.902 843.824C697.301 844.098 696.598 844.234 695.793 844.234C695.051 844.234 694.371 844.074 693.754 843.754C693.145 843.434 692.617 842.984 692.172 842.406C691.734 841.828 691.395 841.148 691.152 840.367C690.918 839.578 690.801 838.723 690.801 837.801ZM692.98 837.555V837.801C692.98 838.434 693.043 839.027 693.168 839.582C693.301 840.137 693.504 840.625 693.777 841.047C694.051 841.469 694.398 841.801 694.82 842.043C695.242 842.277 695.746 842.395 696.332 842.395C697.051 842.395 697.641 842.242 698.102 841.938C698.57 841.633 698.945 841.23 699.227 840.73C699.508 840.23 699.727 839.688 699.883 839.102V836.277C699.789 835.848 699.652 835.434 699.473 835.035C699.301 834.629 699.074 834.27 698.793 833.957C698.52 833.637 698.18 833.383 697.773 833.195C697.375 833.008 696.902 832.914 696.355 832.914C695.762 832.914 695.25 833.039 694.82 833.289C694.398 833.531 694.051 833.867 693.777 834.297C693.504 834.719 693.301 835.211 693.168 835.773C693.043 836.328 692.98 836.922 692.98 837.555ZM710.648 844.234C709.766 844.234 708.965 844.086 708.246 843.789C707.535 843.484 706.922 843.059 706.406 842.512C705.898 841.965 705.508 841.316 705.234 840.566C704.961 839.816 704.824 838.996 704.824 838.105V837.613C704.824 836.582 704.977 835.664 705.281 834.859C705.586 834.047 706 833.359 706.523 832.797C707.047 832.234 707.641 831.809 708.305 831.52C708.969 831.23 709.656 831.086 710.367 831.086C711.273 831.086 712.055 831.242 712.711 831.555C713.375 831.867 713.918 832.305 714.34 832.867C714.762 833.422 715.074 834.078 715.277 834.836C715.48 835.586 715.582 836.406 715.582 837.297V838.27H706.113V836.5H713.414V836.336C713.383 835.773 713.266 835.227 713.062 834.695C712.867 834.164 712.555 833.727 712.125 833.383C711.695 833.039 711.109 832.867 710.367 832.867C709.875 832.867 709.422 832.973 709.008 833.184C708.594 833.387 708.238 833.691 707.941 834.098C707.645 834.504 707.414 835 707.25 835.586C707.086 836.172 707.004 836.848 707.004 837.613V838.105C707.004 838.707 707.086 839.273 707.25 839.805C707.422 840.328 707.668 840.789 707.988 841.188C708.316 841.586 708.711 841.898 709.172 842.125C709.641 842.352 710.172 842.465 710.766 842.465C711.531 842.465 712.18 842.309 712.711 841.996C713.242 841.684 713.707 841.266 714.105 840.742L715.418 841.785C715.145 842.199 714.797 842.594 714.375 842.969C713.953 843.344 713.434 843.648 712.816 843.883C712.207 844.117 711.484 844.234 710.648 844.234ZM732.543 841.832V835.305C732.543 834.805 732.441 834.371 732.238 834.004C732.043 833.629 731.746 833.34 731.348 833.137C730.949 832.934 730.457 832.832 729.871 832.832C729.324 832.832 728.844 832.926 728.43 833.113C728.023 833.301 727.703 833.547 727.469 833.852C727.242 834.156 727.129 834.484 727.129 834.836H724.961C724.961 834.383 725.078 833.934 725.312 833.488C725.547 833.043 725.883 832.641 726.32 832.281C726.766 831.914 727.297 831.625 727.914 831.414C728.539 831.195 729.234 831.086 730 831.086C730.922 831.086 731.734 831.242 732.438 831.555C733.148 831.867 733.703 832.34 734.102 832.973C734.508 833.598 734.711 834.383 734.711 835.328V841.234C734.711 841.656 734.746 842.105 734.816 842.582C734.895 843.059 735.008 843.469 735.156 843.812V844H732.895C732.785 843.75 732.699 843.418 732.637 843.004C732.574 842.582 732.543 842.191 732.543 841.832ZM732.918 836.312L732.941 837.836H730.75C730.133 837.836 729.582 837.887 729.098 837.988C728.613 838.082 728.207 838.227 727.879 838.422C727.551 838.617 727.301 838.863 727.129 839.16C726.957 839.449 726.871 839.789 726.871 840.18C726.871 840.578 726.961 840.941 727.141 841.27C727.32 841.598 727.59 841.859 727.949 842.055C728.316 842.242 728.766 842.336 729.297 842.336C729.961 842.336 730.547 842.195 731.055 841.914C731.562 841.633 731.965 841.289 732.262 840.883C732.566 840.477 732.73 840.082 732.754 839.699L733.68 840.742C733.625 841.07 733.477 841.434 733.234 841.832C732.992 842.23 732.668 842.613 732.262 842.98C731.863 843.34 731.387 843.641 730.832 843.883C730.285 844.117 729.668 844.234 728.98 844.234C728.121 844.234 727.367 844.066 726.719 843.73C726.078 843.395 725.578 842.945 725.219 842.383C724.867 841.812 724.691 841.176 724.691 840.473C724.691 839.793 724.824 839.195 725.09 838.68C725.355 838.156 725.738 837.723 726.238 837.379C726.738 837.027 727.34 836.762 728.043 836.582C728.746 836.402 729.531 836.312 730.398 836.312H732.918ZM741.855 844H739.688V829.984C739.688 829.07 739.852 828.301 740.18 827.676C740.516 827.043 740.996 826.566 741.621 826.246C742.246 825.918 742.988 825.754 743.848 825.754C744.098 825.754 744.348 825.77 744.598 825.801C744.855 825.832 745.105 825.879 745.348 825.941L745.23 827.711C745.066 827.672 744.879 827.645 744.668 827.629C744.465 827.613 744.262 827.605 744.059 827.605C743.598 827.605 743.199 827.699 742.863 827.887C742.535 828.066 742.285 828.332 742.113 828.684C741.941 829.035 741.855 829.469 741.855 829.984V844ZM744.551 831.32V832.984H737.684V831.32H744.551ZM756.086 826V844H753.918V826H756.086ZM755.57 837.18L754.668 837.145C754.676 836.277 754.805 835.477 755.055 834.742C755.305 834 755.656 833.355 756.109 832.809C756.562 832.262 757.102 831.84 757.727 831.543C758.359 831.238 759.059 831.086 759.824 831.086C760.449 831.086 761.012 831.172 761.512 831.344C762.012 831.508 762.438 831.773 762.789 832.141C763.148 832.508 763.422 832.984 763.609 833.57C763.797 834.148 763.891 834.855 763.891 835.691V844H761.711V835.668C761.711 835.004 761.613 834.473 761.418 834.074C761.223 833.668 760.938 833.375 760.562 833.195C760.188 833.008 759.727 832.914 759.18 832.914C758.641 832.914 758.148 833.027 757.703 833.254C757.266 833.48 756.887 833.793 756.566 834.191C756.254 834.59 756.008 835.047 755.828 835.562C755.656 836.07 755.57 836.609 755.57 837.18ZM769.992 831.32V844H767.812V831.32H769.992ZM767.648 827.957C767.648 827.605 767.754 827.309 767.965 827.066C768.184 826.824 768.504 826.703 768.926 826.703C769.34 826.703 769.656 826.824 769.875 827.066C770.102 827.309 770.215 827.605 770.215 827.957C770.215 828.293 770.102 828.582 769.875 828.824C769.656 829.059 769.34 829.176 768.926 829.176C768.504 829.176 768.184 829.059 767.965 828.824C767.754 828.582 767.648 828.293 767.648 827.957ZM782.188 831.32H784.156V843.73C784.156 844.848 783.93 845.801 783.477 846.59C783.023 847.379 782.391 847.977 781.578 848.383C780.773 848.797 779.844 849.004 778.789 849.004C778.352 849.004 777.836 848.934 777.242 848.793C776.656 848.66 776.078 848.43 775.508 848.102C774.945 847.781 774.473 847.348 774.09 846.801L775.227 845.512C775.758 846.152 776.312 846.598 776.891 846.848C777.477 847.098 778.055 847.223 778.625 847.223C779.312 847.223 779.906 847.094 780.406 846.836C780.906 846.578 781.293 846.195 781.566 845.688C781.848 845.188 781.988 844.57 781.988 843.836V834.109L782.188 831.32ZM773.457 837.801V837.555C773.457 836.586 773.57 835.707 773.797 834.918C774.031 834.121 774.363 833.438 774.793 832.867C775.23 832.297 775.758 831.859 776.375 831.555C776.992 831.242 777.688 831.086 778.461 831.086C779.258 831.086 779.953 831.227 780.547 831.508C781.148 831.781 781.656 832.184 782.07 832.715C782.492 833.238 782.824 833.871 783.066 834.613C783.309 835.355 783.477 836.195 783.57 837.133V838.211C783.484 839.141 783.316 839.977 783.066 840.719C782.824 841.461 782.492 842.094 782.07 842.617C781.656 843.141 781.148 843.543 780.547 843.824C779.945 844.098 779.242 844.234 778.438 844.234C777.68 844.234 776.992 844.074 776.375 843.754C775.766 843.434 775.242 842.984 774.805 842.406C774.367 841.828 774.031 841.148 773.797 840.367C773.57 839.578 773.457 838.723 773.457 837.801ZM775.625 837.555V837.801C775.625 838.434 775.688 839.027 775.812 839.582C775.945 840.137 776.145 840.625 776.41 841.047C776.684 841.469 777.031 841.801 777.453 842.043C777.875 842.277 778.379 842.395 778.965 842.395C779.684 842.395 780.277 842.242 780.746 841.938C781.215 841.633 781.586 841.23 781.859 840.73C782.141 840.23 782.359 839.688 782.516 839.102V836.277C782.43 835.848 782.297 835.434 782.117 835.035C781.945 834.629 781.719 834.27 781.438 833.957C781.164 833.637 780.824 833.383 780.418 833.195C780.012 833.008 779.535 832.914 778.988 832.914C778.395 832.914 777.883 833.039 777.453 833.289C777.031 833.531 776.684 833.867 776.41 834.297C776.145 834.719 775.945 835.211 775.812 835.773C775.688 836.328 775.625 836.922 775.625 837.555ZM790.117 826V844H787.949V826H790.117ZM789.602 837.18L788.699 837.145C788.707 836.277 788.836 835.477 789.086 834.742C789.336 834 789.688 833.355 790.141 832.809C790.594 832.262 791.133 831.84 791.758 831.543C792.391 831.238 793.09 831.086 793.855 831.086C794.48 831.086 795.043 831.172 795.543 831.344C796.043 831.508 796.469 831.773 796.82 832.141C797.18 832.508 797.453 832.984 797.641 833.57C797.828 834.148 797.922 834.855 797.922 835.691V844H795.742V835.668C795.742 835.004 795.645 834.473 795.449 834.074C795.254 833.668 794.969 833.375 794.594 833.195C794.219 833.008 793.758 832.914 793.211 832.914C792.672 832.914 792.18 833.027 791.734 833.254C791.297 833.48 790.918 833.793 790.598 834.191C790.285 834.59 790.039 835.047 789.859 835.562C789.688 836.07 789.602 836.609 789.602 837.18ZM806.977 831.32V832.984H800.121V831.32H806.977ZM802.441 828.238H804.609V840.859C804.609 841.289 804.676 841.613 804.809 841.832C804.941 842.051 805.113 842.195 805.324 842.266C805.535 842.336 805.762 842.371 806.004 842.371C806.184 842.371 806.371 842.355 806.566 842.324C806.77 842.285 806.922 842.254 807.023 842.23L807.035 844C806.863 844.055 806.637 844.105 806.355 844.152C806.082 844.207 805.75 844.234 805.359 844.234C804.828 844.234 804.34 844.129 803.895 843.918C803.449 843.707 803.094 843.355 802.828 842.863C802.57 842.363 802.441 841.691 802.441 840.848V828.238ZM812.375 826V844H810.195V826H812.375ZM818.711 831.32V844H816.531V831.32H818.711ZM816.367 827.957C816.367 827.605 816.473 827.309 816.684 827.066C816.902 826.824 817.223 826.703 817.645 826.703C818.059 826.703 818.375 826.824 818.594 827.066C818.82 827.309 818.934 827.605 818.934 827.957C818.934 828.293 818.82 828.582 818.594 828.824C818.375 829.059 818.059 829.176 817.645 829.176C817.223 829.176 816.902 829.059 816.684 828.824C816.473 828.582 816.367 828.293 816.367 827.957ZM830.906 831.32H832.875V843.73C832.875 844.848 832.648 845.801 832.195 846.59C831.742 847.379 831.109 847.977 830.297 848.383C829.492 848.797 828.562 849.004 827.508 849.004C827.07 849.004 826.555 848.934 825.961 848.793C825.375 848.66 824.797 848.43 824.227 848.102C823.664 847.781 823.191 847.348 822.809 846.801L823.945 845.512C824.477 846.152 825.031 846.598 825.609 846.848C826.195 847.098 826.773 847.223 827.344 847.223C828.031 847.223 828.625 847.094 829.125 846.836C829.625 846.578 830.012 846.195 830.285 845.688C830.566 845.188 830.707 844.57 830.707 843.836V834.109L830.906 831.32ZM822.176 837.801V837.555C822.176 836.586 822.289 835.707 822.516 834.918C822.75 834.121 823.082 833.438 823.512 832.867C823.949 832.297 824.477 831.859 825.094 831.555C825.711 831.242 826.406 831.086 827.18 831.086C827.977 831.086 828.672 831.227 829.266 831.508C829.867 831.781 830.375 832.184 830.789 832.715C831.211 833.238 831.543 833.871 831.785 834.613C832.027 835.355 832.195 836.195 832.289 837.133V838.211C832.203 839.141 832.035 839.977 831.785 840.719C831.543 841.461 831.211 842.094 830.789 842.617C830.375 843.141 829.867 843.543 829.266 843.824C828.664 844.098 827.961 844.234 827.156 844.234C826.398 844.234 825.711 844.074 825.094 843.754C824.484 843.434 823.961 842.984 823.523 842.406C823.086 841.828 822.75 841.148 822.516 840.367C822.289 839.578 822.176 838.723 822.176 837.801ZM824.344 837.555V837.801C824.344 838.434 824.406 839.027 824.531 839.582C824.664 840.137 824.863 840.625 825.129 841.047C825.402 841.469 825.75 841.801 826.172 842.043C826.594 842.277 827.098 842.395 827.684 842.395C828.402 842.395 828.996 842.242 829.465 841.938C829.934 841.633 830.305 841.23 830.578 840.73C830.859 840.23 831.078 839.688 831.234 839.102V836.277C831.148 835.848 831.016 835.434 830.836 835.035C830.664 834.629 830.438 834.27 830.156 833.957C829.883 833.637 829.543 833.383 829.137 833.195C828.73 833.008 828.254 832.914 827.707 832.914C827.113 832.914 826.602 833.039 826.172 833.289C825.75 833.531 825.402 833.867 825.129 834.297C824.863 834.719 824.664 835.211 824.531 835.773C824.406 836.328 824.344 836.922 824.344 837.555ZM838.836 826V844H836.668V826H838.836ZM838.32 837.18L837.418 837.145C837.426 836.277 837.555 835.477 837.805 834.742C838.055 834 838.406 833.355 838.859 832.809C839.312 832.262 839.852 831.84 840.477 831.543C841.109 831.238 841.809 831.086 842.574 831.086C843.199 831.086 843.762 831.172 844.262 831.344C844.762 831.508 845.188 831.773 845.539 832.141C845.898 832.508 846.172 832.984 846.359 833.57C846.547 834.148 846.641 834.855 846.641 835.691V844H844.461V835.668C844.461 835.004 844.363 834.473 844.168 834.074C843.973 833.668 843.688 833.375 843.312 833.195C842.938 833.008 842.477 832.914 841.93 832.914C841.391 832.914 840.898 833.027 840.453 833.254C840.016 833.48 839.637 833.793 839.316 834.191C839.004 834.59 838.758 835.047 838.578 835.562C838.406 836.07 838.32 836.609 838.32 837.18ZM855.695 831.32V832.984H848.84V831.32H855.695ZM851.16 828.238H853.328V840.859C853.328 841.289 853.395 841.613 853.527 841.832C853.66 842.051 853.832 842.195 854.043 842.266C854.254 842.336 854.48 842.371 854.723 842.371C854.902 842.371 855.09 842.355 855.285 842.324C855.488 842.285 855.641 842.254 855.742 842.23L855.754 844C855.582 844.055 855.355 844.105 855.074 844.152C854.801 844.207 854.469 844.234 854.078 844.234C853.547 844.234 853.059 844.129 852.613 843.918C852.168 843.707 851.812 843.355 851.547 842.863C851.289 842.363 851.16 841.691 851.16 840.848V828.238ZM866.121 840.637C866.121 840.324 866.051 840.035 865.91 839.77C865.777 839.496 865.5 839.25 865.078 839.031C864.664 838.805 864.039 838.609 863.203 838.445C862.5 838.297 861.863 838.121 861.293 837.918C860.73 837.715 860.25 837.469 859.852 837.18C859.461 836.891 859.16 836.551 858.949 836.16C858.738 835.77 858.633 835.312 858.633 834.789C858.633 834.289 858.742 833.816 858.961 833.371C859.188 832.926 859.504 832.531 859.91 832.188C860.324 831.844 860.82 831.574 861.398 831.379C861.977 831.184 862.621 831.086 863.332 831.086C864.348 831.086 865.215 831.266 865.934 831.625C866.652 831.984 867.203 832.465 867.586 833.066C867.969 833.66 868.16 834.32 868.16 835.047H865.992C865.992 834.695 865.887 834.355 865.676 834.027C865.473 833.691 865.172 833.414 864.773 833.195C864.383 832.977 863.902 832.867 863.332 832.867C862.73 832.867 862.242 832.961 861.867 833.148C861.5 833.328 861.23 833.559 861.059 833.84C860.895 834.121 860.812 834.418 860.812 834.73C860.812 834.965 860.852 835.176 860.93 835.363C861.016 835.543 861.164 835.711 861.375 835.867C861.586 836.016 861.883 836.156 862.266 836.289C862.648 836.422 863.137 836.555 863.73 836.688C864.77 836.922 865.625 837.203 866.297 837.531C866.969 837.859 867.469 838.262 867.797 838.738C868.125 839.215 868.289 839.793 868.289 840.473C868.289 841.027 868.172 841.535 867.938 841.996C867.711 842.457 867.379 842.855 866.941 843.191C866.512 843.52 865.996 843.777 865.395 843.965C864.801 844.145 864.133 844.234 863.391 844.234C862.273 844.234 861.328 844.035 860.555 843.637C859.781 843.238 859.195 842.723 858.797 842.09C858.398 841.457 858.199 840.789 858.199 840.086H860.379C860.41 840.68 860.582 841.152 860.895 841.504C861.207 841.848 861.59 842.094 862.043 842.242C862.496 842.383 862.945 842.453 863.391 842.453C863.984 842.453 864.48 842.375 864.879 842.219C865.285 842.062 865.594 841.848 865.805 841.574C866.016 841.301 866.121 840.988 866.121 840.637Z" fill="black"/>
<path d="M186 169C210.809 169.98 214.222 179.538 213.989 202.011M213.989 566.266C213.989 591.878 210.491 597 186.5 597" stroke="white"/>
<path d="M61.0078 177.32V190H58.8281V177.32H61.0078ZM58.6641 173.957C58.6641 173.605 58.7695 173.309 58.9805 173.066C59.1992 172.824 59.5195 172.703 59.9414 172.703C60.3555 172.703 60.6719 172.824 60.8906 173.066C61.1172 173.309 61.2305 173.605 61.2305 173.957C61.2305 174.293 61.1172 174.582 60.8906 174.824C60.6719 175.059 60.3555 175.176 59.9414 175.176C59.5195 175.176 59.1992 175.059 58.9805 174.824C58.7695 174.582 58.6641 174.293 58.6641 173.957ZM67.1562 180.027V190H64.9883V177.32H67.0391L67.1562 180.027ZM66.6406 183.18L65.7383 183.145C65.7461 182.277 65.875 181.477 66.125 180.742C66.375 180 66.7266 179.355 67.1797 178.809C67.6328 178.262 68.1719 177.84 68.7969 177.543C69.4297 177.238 70.1289 177.086 70.8945 177.086C71.5195 177.086 72.082 177.172 72.582 177.344C73.082 177.508 73.5078 177.773 73.8594 178.141C74.2188 178.508 74.4922 178.984 74.6797 179.57C74.8672 180.148 74.9609 180.855 74.9609 181.691V190H72.7812V181.668C72.7812 181.004 72.6836 180.473 72.4883 180.074C72.293 179.668 72.0078 179.375 71.6328 179.195C71.2578 179.008 70.7969 178.914 70.25 178.914C69.7109 178.914 69.2188 179.027 68.7734 179.254C68.3359 179.48 67.957 179.793 67.6367 180.191C67.3242 180.59 67.0781 181.047 66.8984 181.562C66.7266 182.07 66.6406 182.609 66.6406 183.18ZM86.7461 187.539V172H88.9258V190H86.9336L86.7461 187.539ZM78.2148 183.801V183.555C78.2148 182.586 78.332 181.707 78.5664 180.918C78.8086 180.121 79.1484 179.438 79.5859 178.867C80.0312 178.297 80.5586 177.859 81.168 177.555C81.7852 177.242 82.4727 177.086 83.2305 177.086C84.0273 177.086 84.7227 177.227 85.3164 177.508C85.918 177.781 86.4258 178.184 86.8398 178.715C87.2617 179.238 87.5938 179.871 87.8359 180.613C88.0781 181.355 88.2461 182.195 88.3398 183.133V184.211C88.2539 185.141 88.0859 185.977 87.8359 186.719C87.5938 187.461 87.2617 188.094 86.8398 188.617C86.4258 189.141 85.918 189.543 85.3164 189.824C84.7148 190.098 84.0117 190.234 83.207 190.234C82.4648 190.234 81.7852 190.074 81.168 189.754C80.5586 189.434 80.0312 188.984 79.5859 188.406C79.1484 187.828 78.8086 187.148 78.5664 186.367C78.332 185.578 78.2148 184.723 78.2148 183.801ZM80.3945 183.555V183.801C80.3945 184.434 80.457 185.027 80.582 185.582C80.7148 186.137 80.918 186.625 81.1914 187.047C81.4648 187.469 81.8125 187.801 82.2344 188.043C82.6562 188.277 83.1602 188.395 83.7461 188.395C84.4648 188.395 85.0547 188.242 85.5156 187.938C85.9844 187.633 86.3594 187.23 86.6406 186.73C86.9219 186.23 87.1406 185.688 87.2969 185.102V182.277C87.2031 181.848 87.0664 181.434 86.8867 181.035C86.7148 180.629 86.4883 180.27 86.207 179.957C85.9336 179.637 85.5938 179.383 85.1875 179.195C84.7891 179.008 84.3164 178.914 83.7695 178.914C83.1758 178.914 82.6641 179.039 82.2344 179.289C81.8125 179.531 81.4648 179.867 81.1914 180.297C80.918 180.719 80.7148 181.211 80.582 181.773C80.457 182.328 80.3945 182.922 80.3945 183.555ZM94.9688 172V190H92.8008V172H94.9688ZM94.4531 183.18L93.5508 183.145C93.5586 182.277 93.6875 181.477 93.9375 180.742C94.1875 180 94.5391 179.355 94.9922 178.809C95.4453 178.262 95.9844 177.84 96.6094 177.543C97.2422 177.238 97.9414 177.086 98.707 177.086C99.332 177.086 99.8945 177.172 100.395 177.344C100.895 177.508 101.32 177.773 101.672 178.141C102.031 178.508 102.305 178.984 102.492 179.57C102.68 180.148 102.773 180.855 102.773 181.691V190H100.594V181.668C100.594 181.004 100.496 180.473 100.301 180.074C100.105 179.668 99.8203 179.375 99.4453 179.195C99.0703 179.008 98.6094 178.914 98.0625 178.914C97.5234 178.914 97.0312 179.027 96.5859 179.254C96.1484 179.48 95.7695 179.793 95.4492 180.191C95.1367 180.59 94.8906 181.047 94.7109 181.562C94.5391 182.07 94.4531 182.609 94.4531 183.18ZM105.945 183.801V183.531C105.945 182.617 106.078 181.77 106.344 180.988C106.609 180.199 106.992 179.516 107.492 178.938C107.992 178.352 108.598 177.898 109.309 177.578C110.02 177.25 110.816 177.086 111.699 177.086C112.59 177.086 113.391 177.25 114.102 177.578C114.82 177.898 115.43 178.352 115.93 178.938C116.438 179.516 116.824 180.199 117.09 180.988C117.355 181.77 117.488 182.617 117.488 183.531V183.801C117.488 184.715 117.355 185.562 117.09 186.344C116.824 187.125 116.438 187.809 115.93 188.395C115.43 188.973 114.824 189.426 114.113 189.754C113.41 190.074 112.613 190.234 111.723 190.234C110.832 190.234 110.031 190.074 109.32 189.754C108.609 189.426 108 188.973 107.492 188.395C106.992 187.809 106.609 187.125 106.344 186.344C106.078 185.562 105.945 184.715 105.945 183.801ZM108.113 183.531V183.801C108.113 184.434 108.188 185.031 108.336 185.594C108.484 186.148 108.707 186.641 109.004 187.07C109.309 187.5 109.688 187.84 110.141 188.09C110.594 188.332 111.121 188.453 111.723 188.453C112.316 188.453 112.836 188.332 113.281 188.09C113.734 187.84 114.109 187.5 114.406 187.07C114.703 186.641 114.926 186.148 115.074 185.594C115.23 185.031 115.309 184.434 115.309 183.801V183.531C115.309 182.906 115.23 182.316 115.074 181.762C114.926 181.199 114.699 180.703 114.395 180.273C114.098 179.836 113.723 179.492 113.27 179.242C112.824 178.992 112.301 178.867 111.699 178.867C111.105 178.867 110.582 178.992 110.129 179.242C109.684 179.492 109.309 179.836 109.004 180.273C108.707 180.703 108.484 181.199 108.336 181.762C108.188 182.316 108.113 182.906 108.113 183.531ZM123.062 172V190H120.883V172H123.062ZM135.035 187.539V172H137.215V190H135.223L135.035 187.539ZM126.504 183.801V183.555C126.504 182.586 126.621 181.707 126.855 180.918C127.098 180.121 127.438 179.438 127.875 178.867C128.32 178.297 128.848 177.859 129.457 177.555C130.074 177.242 130.762 177.086 131.52 177.086C132.316 177.086 133.012 177.227 133.605 177.508C134.207 177.781 134.715 178.184 135.129 178.715C135.551 179.238 135.883 179.871 136.125 180.613C136.367 181.355 136.535 182.195 136.629 183.133V184.211C136.543 185.141 136.375 185.977 136.125 186.719C135.883 187.461 135.551 188.094 135.129 188.617C134.715 189.141 134.207 189.543 133.605 189.824C133.004 190.098 132.301 190.234 131.496 190.234C130.754 190.234 130.074 190.074 129.457 189.754C128.848 189.434 128.32 188.984 127.875 188.406C127.438 187.828 127.098 187.148 126.855 186.367C126.621 185.578 126.504 184.723 126.504 183.801ZM128.684 183.555V183.801C128.684 184.434 128.746 185.027 128.871 185.582C129.004 186.137 129.207 186.625 129.48 187.047C129.754 187.469 130.102 187.801 130.523 188.043C130.945 188.277 131.449 188.395 132.035 188.395C132.754 188.395 133.344 188.242 133.805 187.938C134.273 187.633 134.648 187.23 134.93 186.73C135.211 186.23 135.43 185.688 135.586 185.102V182.277C135.492 181.848 135.355 181.434 135.176 181.035C135.004 180.629 134.777 180.27 134.496 179.957C134.223 179.637 133.883 179.383 133.477 179.195C133.078 179.008 132.605 178.914 132.059 178.914C131.465 178.914 130.953 179.039 130.523 179.289C130.102 179.531 129.754 179.867 129.48 180.297C129.207 180.719 129.004 181.211 128.871 181.773C128.746 182.328 128.684 182.922 128.684 183.555ZM140.996 188.852C140.996 188.484 141.109 188.176 141.336 187.926C141.57 187.668 141.906 187.539 142.344 187.539C142.781 187.539 143.113 187.668 143.34 187.926C143.574 188.176 143.691 188.484 143.691 188.852C143.691 189.211 143.574 189.516 143.34 189.766C143.113 190.016 142.781 190.141 142.344 190.141C141.906 190.141 141.57 190.016 141.336 189.766C141.109 189.516 140.996 189.211 140.996 188.852ZM141.008 178.504C141.008 178.137 141.121 177.828 141.348 177.578C141.582 177.32 141.918 177.191 142.355 177.191C142.793 177.191 143.125 177.32 143.352 177.578C143.586 177.828 143.703 178.137 143.703 178.504C143.703 178.863 143.586 179.168 143.352 179.418C143.125 179.668 142.793 179.793 142.355 179.793C141.918 179.793 141.582 179.668 141.348 179.418C141.121 179.168 141.008 178.863 141.008 178.504Z" fill="white"/>
<line x1="37" y1="200.5" x2="186" y2="200.5" stroke="white"/>
<rect x="36" y="203" width="150" height="92" fill="url(#paint0_linear_17_259)"/>
<rect x="36" y="295" width="150" height="92" fill="url(#paint1_linear_17_259)"/>
<rect x="36" y="479" width="150" height="92" fill="url(#paint2_linear_17_259)"/>
<rect x="36" y="387" width="150" height="92" fill="url(#paint3_linear_17_259)"/>
<path d="M50 218L54 222L58 218M46 211H62C62.5304 211 63.0391 211.211 63.4142 211.586C63.7893 211.961 64 212.47 64 213V219C64 221.652 62.9464 224.196 61.0711 226.071C59.1957 227.946 56.6522 229 54 229C52.6868 229 51.3864 228.741 50.1732 228.239C48.9599 227.736 47.8575 227 46.9289 226.071C45.0536 224.196 44 221.652 44 219V213C44 212.47 44.2107 211.961 44.5858 211.586C44.9609 211.211 45.4696 211 46 211Z" stroke="#E0E3E6" stroke-width="2" stroke-linecap="round" stroke-linejoin="round"/>
<path d="M50 312L54 316L58 312M46 305H62C62.5304 305 63.0391 305.211 63.4142 305.586C63.7893 305.961 64 306.47 64 307V313C64 315.652 62.9464 318.196 61.0711 320.071C59.1957 321.946 56.6522 323 54 323C52.6868 323 51.3864 322.741 50.1732 322.239C48.9599 321.736 47.8575 321 46.9289 320.071C45.0536 318.196 44 315.652 44 313V307C44 306.47 44.2107 305.961 44.5858 305.586C44.9609 305.211 45.4696 305 46 305Z" stroke="#E0E3E6" stroke-width="2" stroke-linecap="round" stroke-linejoin="round"/>
<path d="M50 402L54 406L58 402M46 395H62C62.5304 395 63.0391 395.211 63.4142 395.586C63.7893 395.961 64 396.47 64 397V403C64 405.652 62.9464 408.196 61.0711 410.071C59.1957 411.946 56.6522 413 54 413C52.6868 413 51.3864 412.741 50.1732 412.239C48.9599 411.736 47.8575 411 46.9289 410.071C45.0536 408.196 44 405.652 44 403V397C44 396.47 44.2107 395.961 44.5858 395.586C44.9609 395.211 45.4696 395 46 395Z" stroke="#E0E3E6" stroke-width="2" stroke-linecap="round" stroke-linejoin="round"/>
<path d="M50 494L54 498L58 494M46 487H62C62.5304 487 63.0391 487.211 63.4142 487.586C63.7893 487.961 64 488.47 64 489V495C64 497.652 62.9464 500.196 61.0711 502.071C59.1957 503.946 56.6522 505 54 505C52.6868 505 51.3864 504.741 50.1732 504.239C48.9599 503.736 47.8575 503 46.9289 502.071C45.0536 500.196 44 497.652 44 495V489C44 488.47 44.2107 487.961 44.5858 487.586C44.9609 487.211 45.4696 487 46 487Z" stroke="#E0E3E6" stroke-width="2" stroke-linecap="round" stroke-linejoin="round"/>
<path d="M691.062 670.02H686.738L686.715 668.203H690.641C691.289 668.203 691.855 668.094 692.34 667.875C692.824 667.656 693.199 667.344 693.465 666.938C693.738 666.523 693.875 666.031 693.875 665.461C693.875 664.836 693.754 664.328 693.512 663.938C693.277 663.539 692.914 663.25 692.422 663.07C691.938 662.883 691.32 662.789 690.57 662.789H687.242V678H684.98V660.938H690.57C691.445 660.938 692.227 661.027 692.914 661.207C693.602 661.379 694.184 661.652 694.66 662.027C695.145 662.395 695.512 662.863 695.762 663.434C696.012 664.004 696.137 664.688 696.137 665.484C696.137 666.188 695.957 666.824 695.598 667.395C695.238 667.957 694.738 668.418 694.098 668.777C693.465 669.137 692.723 669.367 691.871 669.469L691.062 670.02ZM690.957 678H685.848L687.125 676.16H690.957C691.676 676.16 692.285 676.035 692.785 675.785C693.293 675.535 693.68 675.184 693.945 674.73C694.211 674.27 694.344 673.727 694.344 673.102C694.344 672.469 694.23 671.922 694.004 671.461C693.777 671 693.422 670.645 692.938 670.395C692.453 670.145 691.828 670.02 691.062 670.02H687.84L687.863 668.203H692.27L692.75 668.859C693.57 668.93 694.266 669.164 694.836 669.562C695.406 669.953 695.84 670.453 696.137 671.062C696.441 671.672 696.594 672.344 696.594 673.078C696.594 674.141 696.359 675.039 695.891 675.773C695.43 676.5 694.777 677.055 693.934 677.438C693.09 677.812 692.098 678 690.957 678ZM705.367 678.234C704.484 678.234 703.684 678.086 702.965 677.789C702.254 677.484 701.641 677.059 701.125 676.512C700.617 675.965 700.227 675.316 699.953 674.566C699.68 673.816 699.543 672.996 699.543 672.105V671.613C699.543 670.582 699.695 669.664 700 668.859C700.305 668.047 700.719 667.359 701.242 666.797C701.766 666.234 702.359 665.809 703.023 665.52C703.688 665.23 704.375 665.086 705.086 665.086C705.992 665.086 706.773 665.242 707.43 665.555C708.094 665.867 708.637 666.305 709.059 666.867C709.48 667.422 709.793 668.078 709.996 668.836C710.199 669.586 710.301 670.406 710.301 671.297V672.27H700.832V670.5H708.133V670.336C708.102 669.773 707.984 669.227 707.781 668.695C707.586 668.164 707.273 667.727 706.844 667.383C706.414 667.039 705.828 666.867 705.086 666.867C704.594 666.867 704.141 666.973 703.727 667.184C703.312 667.387 702.957 667.691 702.66 668.098C702.363 668.504 702.133 669 701.969 669.586C701.805 670.172 701.723 670.848 701.723 671.613V672.105C701.723 672.707 701.805 673.273 701.969 673.805C702.141 674.328 702.387 674.789 702.707 675.188C703.035 675.586 703.43 675.898 703.891 676.125C704.359 676.352 704.891 676.465 705.484 676.465C706.25 676.465 706.898 676.309 707.43 675.996C707.961 675.684 708.426 675.266 708.824 674.742L710.137 675.785C709.863 676.199 709.516 676.594 709.094 676.969C708.672 677.344 708.152 677.648 707.535 677.883C706.926 678.117 706.203 678.234 705.367 678.234ZM720.715 674.637C720.715 674.324 720.645 674.035 720.504 673.77C720.371 673.496 720.094 673.25 719.672 673.031C719.258 672.805 718.633 672.609 717.797 672.445C717.094 672.297 716.457 672.121 715.887 671.918C715.324 671.715 714.844 671.469 714.445 671.18C714.055 670.891 713.754 670.551 713.543 670.16C713.332 669.77 713.227 669.312 713.227 668.789C713.227 668.289 713.336 667.816 713.555 667.371C713.781 666.926 714.098 666.531 714.504 666.188C714.918 665.844 715.414 665.574 715.992 665.379C716.57 665.184 717.215 665.086 717.926 665.086C718.941 665.086 719.809 665.266 720.527 665.625C721.246 665.984 721.797 666.465 722.18 667.066C722.562 667.66 722.754 668.32 722.754 669.047H720.586C720.586 668.695 720.48 668.355 720.27 668.027C720.066 667.691 719.766 667.414 719.367 667.195C718.977 666.977 718.496 666.867 717.926 666.867C717.324 666.867 716.836 666.961 716.461 667.148C716.094 667.328 715.824 667.559 715.652 667.84C715.488 668.121 715.406 668.418 715.406 668.73C715.406 668.965 715.445 669.176 715.523 669.363C715.609 669.543 715.758 669.711 715.969 669.867C716.18 670.016 716.477 670.156 716.859 670.289C717.242 670.422 717.73 670.555 718.324 670.688C719.363 670.922 720.219 671.203 720.891 671.531C721.562 671.859 722.062 672.262 722.391 672.738C722.719 673.215 722.883 673.793 722.883 674.473C722.883 675.027 722.766 675.535 722.531 675.996C722.305 676.457 721.973 676.855 721.535 677.191C721.105 677.52 720.59 677.777 719.988 677.965C719.395 678.145 718.727 678.234 717.984 678.234C716.867 678.234 715.922 678.035 715.148 677.637C714.375 677.238 713.789 676.723 713.391 676.09C712.992 675.457 712.793 674.789 712.793 674.086H714.973C715.004 674.68 715.176 675.152 715.488 675.504C715.801 675.848 716.184 676.094 716.637 676.242C717.09 676.383 717.539 676.453 717.984 676.453C718.578 676.453 719.074 676.375 719.473 676.219C719.879 676.062 720.188 675.848 720.398 675.574C720.609 675.301 720.715 674.988 720.715 674.637ZM728.41 660V678H726.23V660H728.41ZM736.156 665.32L730.625 671.238L727.531 674.449L727.355 672.141L729.57 669.492L733.508 665.32H736.156ZM734.176 678L729.652 671.953L730.777 670.02L736.73 678H734.176ZM741.062 667.312V678H738.895V665.32H741.004L741.062 667.312ZM745.023 665.25L745.012 667.266C744.832 667.227 744.66 667.203 744.496 667.195C744.34 667.18 744.16 667.172 743.957 667.172C743.457 667.172 743.016 667.25 742.633 667.406C742.25 667.562 741.926 667.781 741.66 668.062C741.395 668.344 741.184 668.68 741.027 669.07C740.879 669.453 740.781 669.875 740.734 670.336L740.125 670.688C740.125 669.922 740.199 669.203 740.348 668.531C740.504 667.859 740.742 667.266 741.062 666.75C741.383 666.227 741.789 665.82 742.281 665.531C742.781 665.234 743.375 665.086 744.062 665.086C744.219 665.086 744.398 665.105 744.602 665.145C744.805 665.176 744.945 665.211 745.023 665.25ZM749.883 665.32V678H747.703V665.32H749.883ZM747.539 661.957C747.539 661.605 747.645 661.309 747.855 661.066C748.074 660.824 748.395 660.703 748.816 660.703C749.23 660.703 749.547 660.824 749.766 661.066C749.992 661.309 750.105 661.605 750.105 661.957C750.105 662.293 749.992 662.582 749.766 662.824C749.547 663.059 749.23 663.176 748.816 663.176C748.395 663.176 748.074 663.059 747.855 662.824C747.645 662.582 747.539 662.293 747.539 661.957ZM757.719 676.043L761.188 665.32H763.402L758.844 678H757.391L757.719 676.043ZM754.824 665.32L758.398 676.102L758.645 678H757.191L752.598 665.32H754.824ZM771.086 678.234C770.203 678.234 769.402 678.086 768.684 677.789C767.973 677.484 767.359 677.059 766.844 676.512C766.336 675.965 765.945 675.316 765.672 674.566C765.398 673.816 765.262 672.996 765.262 672.105V671.613C765.262 670.582 765.414 669.664 765.719 668.859C766.023 668.047 766.438 667.359 766.961 666.797C767.484 666.234 768.078 665.809 768.742 665.52C769.406 665.23 770.094 665.086 770.805 665.086C771.711 665.086 772.492 665.242 773.148 665.555C773.812 665.867 774.355 666.305 774.777 666.867C775.199 667.422 775.512 668.078 775.715 668.836C775.918 669.586 776.02 670.406 776.02 671.297V672.27H766.551V670.5H773.852V670.336C773.82 669.773 773.703 669.227 773.5 668.695C773.305 668.164 772.992 667.727 772.562 667.383C772.133 667.039 771.547 666.867 770.805 666.867C770.312 666.867 769.859 666.973 769.445 667.184C769.031 667.387 768.676 667.691 768.379 668.098C768.082 668.504 767.852 669 767.688 669.586C767.523 670.172 767.441 670.848 767.441 671.613V672.105C767.441 672.707 767.523 673.273 767.688 673.805C767.859 674.328 768.105 674.789 768.426 675.188C768.754 675.586 769.148 675.898 769.609 676.125C770.078 676.352 770.609 676.465 771.203 676.465C771.969 676.465 772.617 676.309 773.148 675.996C773.68 675.684 774.145 675.266 774.543 674.742L775.855 675.785C775.582 676.199 775.234 676.594 774.812 676.969C774.391 677.344 773.871 677.648 773.254 677.883C772.645 678.117 771.922 678.234 771.086 678.234ZM781.406 660V678H779.227V660H781.406ZM792.77 674.637C792.77 674.324 792.699 674.035 792.559 673.77C792.426 673.496 792.148 673.25 791.727 673.031C791.312 672.805 790.688 672.609 789.852 672.445C789.148 672.297 788.512 672.121 787.941 671.918C787.379 671.715 786.898 671.469 786.5 671.18C786.109 670.891 785.809 670.551 785.598 670.16C785.387 669.77 785.281 669.312 785.281 668.789C785.281 668.289 785.391 667.816 785.609 667.371C785.836 666.926 786.152 666.531 786.559 666.188C786.973 665.844 787.469 665.574 788.047 665.379C788.625 665.184 789.27 665.086 789.98 665.086C790.996 665.086 791.863 665.266 792.582 665.625C793.301 665.984 793.852 666.465 794.234 667.066C794.617 667.66 794.809 668.32 794.809 669.047H792.641C792.641 668.695 792.535 668.355 792.324 668.027C792.121 667.691 791.82 667.414 791.422 667.195C791.031 666.977 790.551 666.867 789.98 666.867C789.379 666.867 788.891 666.961 788.516 667.148C788.148 667.328 787.879 667.559 787.707 667.84C787.543 668.121 787.461 668.418 787.461 668.73C787.461 668.965 787.5 669.176 787.578 669.363C787.664 669.543 787.812 669.711 788.023 669.867C788.234 670.016 788.531 670.156 788.914 670.289C789.297 670.422 789.785 670.555 790.379 670.688C791.418 670.922 792.273 671.203 792.945 671.531C793.617 671.859 794.117 672.262 794.445 672.738C794.773 673.215 794.938 673.793 794.938 674.473C794.938 675.027 794.82 675.535 794.586 675.996C794.359 676.457 794.027 676.855 793.59 677.191C793.16 677.52 792.645 677.777 792.043 677.965C791.449 678.145 790.781 678.234 790.039 678.234C788.922 678.234 787.977 678.035 787.203 677.637C786.43 677.238 785.844 676.723 785.445 676.09C785.047 675.457 784.848 674.789 784.848 674.086H787.027C787.059 674.68 787.23 675.152 787.543 675.504C787.855 675.848 788.238 676.094 788.691 676.242C789.145 676.383 789.594 676.453 790.039 676.453C790.633 676.453 791.129 676.375 791.527 676.219C791.934 676.062 792.242 675.848 792.453 675.574C792.664 675.301 792.77 674.988 792.77 674.637ZM803.547 678.234C802.664 678.234 801.863 678.086 801.145 677.789C800.434 677.484 799.82 677.059 799.305 676.512C798.797 675.965 798.406 675.316 798.133 674.566C797.859 673.816 797.723 672.996 797.723 672.105V671.613C797.723 670.582 797.875 669.664 798.18 668.859C798.484 668.047 798.898 667.359 799.422 666.797C799.945 666.234 800.539 665.809 801.203 665.52C801.867 665.23 802.555 665.086 803.266 665.086C804.172 665.086 804.953 665.242 805.609 665.555C806.273 665.867 806.816 666.305 807.238 666.867C807.66 667.422 807.973 668.078 808.176 668.836C808.379 669.586 808.48 670.406 808.48 671.297V672.27H799.012V670.5H806.312V670.336C806.281 669.773 806.164 669.227 805.961 668.695C805.766 668.164 805.453 667.727 805.023 667.383C804.594 667.039 804.008 666.867 803.266 666.867C802.773 666.867 802.32 666.973 801.906 667.184C801.492 667.387 801.137 667.691 800.84 668.098C800.543 668.504 800.312 669 800.148 669.586C799.984 670.172 799.902 670.848 799.902 671.613V672.105C799.902 672.707 799.984 673.273 800.148 673.805C800.32 674.328 800.566 674.789 800.887 675.188C801.215 675.586 801.609 675.898 802.07 676.125C802.539 676.352 803.07 676.465 803.664 676.465C804.43 676.465 805.078 676.309 805.609 675.996C806.141 675.684 806.605 675.266 807.004 674.742L808.316 675.785C808.043 676.199 807.695 676.594 807.273 676.969C806.852 677.344 806.332 677.648 805.715 677.883C805.105 678.117 804.383 678.234 803.547 678.234ZM819.059 660.938L811.945 679.465H810.082L817.207 660.938H819.059ZM824.094 667.758V682.875H821.914V665.32H823.906L824.094 667.758ZM832.637 671.555V671.801C832.637 672.723 832.527 673.578 832.309 674.367C832.09 675.148 831.77 675.828 831.348 676.406C830.934 676.984 830.422 677.434 829.812 677.754C829.203 678.074 828.504 678.234 827.715 678.234C826.91 678.234 826.199 678.102 825.582 677.836C824.965 677.57 824.441 677.184 824.012 676.676C823.582 676.168 823.238 675.559 822.98 674.848C822.73 674.137 822.559 673.336 822.465 672.445V671.133C822.559 670.195 822.734 669.355 822.992 668.613C823.25 667.871 823.59 667.238 824.012 666.715C824.441 666.184 824.961 665.781 825.57 665.508C826.18 665.227 826.883 665.086 827.68 665.086C828.477 665.086 829.184 665.242 829.801 665.555C830.418 665.859 830.938 666.297 831.359 666.867C831.781 667.438 832.098 668.121 832.309 668.918C832.527 669.707 832.637 670.586 832.637 671.555ZM830.457 671.801V671.555C830.457 670.922 830.391 670.328 830.258 669.773C830.125 669.211 829.918 668.719 829.637 668.297C829.363 667.867 829.012 667.531 828.582 667.289C828.152 667.039 827.641 666.914 827.047 666.914C826.5 666.914 826.023 667.008 825.617 667.195C825.219 667.383 824.879 667.637 824.598 667.957C824.316 668.27 824.086 668.629 823.906 669.035C823.734 669.434 823.605 669.848 823.52 670.277V673.312C823.676 673.859 823.895 674.375 824.176 674.859C824.457 675.336 824.832 675.723 825.301 676.02C825.77 676.309 826.359 676.453 827.07 676.453C827.656 676.453 828.16 676.332 828.582 676.09C829.012 675.84 829.363 675.5 829.637 675.07C829.918 674.641 830.125 674.148 830.258 673.594C830.391 673.031 830.457 672.434 830.457 671.801ZM838.07 667.312V678H835.902V665.32H838.012L838.07 667.312ZM842.031 665.25L842.02 667.266C841.84 667.227 841.668 667.203 841.504 667.195C841.348 667.18 841.168 667.172 840.965 667.172C840.465 667.172 840.023 667.25 839.641 667.406C839.258 667.562 838.934 667.781 838.668 668.062C838.402 668.344 838.191 668.68 838.035 669.07C837.887 669.453 837.789 669.875 837.742 670.336L837.133 670.688C837.133 669.922 837.207 669.203 837.355 668.531C837.512 667.859 837.75 667.266 838.07 666.75C838.391 666.227 838.797 665.82 839.289 665.531C839.789 665.234 840.383 665.086 841.07 665.086C841.227 665.086 841.406 665.105 841.609 665.145C841.812 665.176 841.953 665.211 842.031 665.25ZM851.66 675.855V669.562C851.66 669 851.562 668.52 851.367 668.121C851.18 667.715 850.898 667.406 850.523 667.195C850.148 666.977 849.691 666.867 849.152 666.867C848.574 666.867 848.07 666.969 847.641 667.172C847.211 667.375 846.879 667.645 846.645 667.98C846.41 668.316 846.293 668.688 846.293 669.094L844.137 668.883C844.137 668.336 844.258 667.832 844.5 667.371C844.742 666.91 845.082 666.508 845.52 666.164C845.965 665.82 846.492 665.555 847.102 665.367C847.719 665.18 848.402 665.086 849.152 665.086C850.074 665.086 850.879 665.254 851.566 665.59C852.262 665.926 852.801 666.426 853.184 667.09C853.574 667.754 853.77 668.586 853.77 669.586V675.445L851.66 675.855ZM852.141 670.547V672.188H849.082C848.402 672.188 847.832 672.297 847.371 672.516C846.91 672.727 846.562 673.008 846.328 673.359C846.094 673.703 845.977 674.078 845.977 674.484C845.977 674.859 846.062 675.199 846.234 675.504C846.414 675.801 846.68 676.039 847.031 676.219C847.391 676.391 847.844 676.477 848.391 676.477C848.812 676.477 849.242 676.398 849.68 676.242C850.125 676.078 850.531 675.871 850.898 675.621C851.273 675.363 851.574 675.094 851.801 674.812C852.035 674.531 852.156 674.27 852.164 674.027L853.289 675.715C853.078 676.098 852.742 676.484 852.281 676.875C851.828 677.266 851.242 677.594 850.523 677.859C849.812 678.117 848.961 678.246 847.969 678.246C847.078 678.246 846.32 678.09 845.695 677.777C845.078 677.465 844.609 677.023 844.289 676.453C843.969 675.875 843.809 675.203 843.809 674.438C843.809 673.82 843.918 673.273 844.137 672.797C844.363 672.312 844.695 671.906 845.133 671.578C845.578 671.242 846.129 670.988 846.785 670.816C847.441 670.637 848.199 670.547 849.059 670.547H852.141ZM857.684 678.246C856.723 678.246 855.875 678.09 855.141 677.777C854.406 677.465 853.789 677.027 853.289 676.465C852.789 675.895 852.41 675.223 852.152 674.449C851.895 673.676 851.766 672.828 851.766 671.906V671.391C851.766 670.461 851.898 669.613 852.164 668.848C852.438 668.074 852.816 667.406 853.301 666.844C853.793 666.281 854.367 665.848 855.023 665.543C855.68 665.23 856.395 665.078 857.168 665.086C858.012 665.086 858.754 665.219 859.395 665.484C860.043 665.742 860.586 666.121 861.023 666.621C861.461 667.113 861.789 667.711 862.008 668.414C862.234 669.117 862.348 669.906 862.348 670.781V672.164H852.926V670.5H860.168V670.137C860.168 669.543 860.07 669 859.875 668.508C859.68 668.016 859.363 667.621 858.926 667.324C858.488 667.02 857.902 666.867 857.168 666.867C856.629 666.867 856.152 666.984 855.738 667.219C855.324 667.453 854.973 667.777 854.684 668.191C854.402 668.605 854.188 669.086 854.039 669.633C853.891 670.18 853.816 670.766 853.816 671.391V671.906C853.816 672.539 853.891 673.133 854.039 673.688C854.188 674.234 854.418 674.719 854.73 675.141C855.043 675.555 855.441 675.879 855.926 676.113C856.418 676.348 857.004 676.465 857.684 676.465C858.613 676.465 859.363 676.324 859.934 676.043C860.504 675.754 860.984 675.477 861.375 675.211L862.137 676.805C861.965 676.938 861.688 677.121 861.305 677.355C860.93 677.582 860.441 677.789 859.84 677.977C859.238 678.156 858.52 678.246 857.684 678.246ZM872.691 674.637C872.691 674.324 872.621 674.035 872.48 673.77C872.348 673.496 872.07 673.25 871.648 673.031C871.234 672.805 870.609 672.609 869.773 672.445C869.07 672.297 868.434 672.121 867.863 671.918C867.301 671.715 866.82 671.469 866.422 671.18C866.031 670.891 865.73 670.551 865.52 670.16C865.309 669.77 865.203 669.312 865.203 668.789C865.203 668.289 865.312 667.816 865.531 667.371C865.758 666.926 866.074 666.531 866.48 666.188C866.895 665.844 867.391 665.574 867.969 665.379C868.547 665.184 869.191 665.086 869.902 665.086C870.918 665.086 871.785 665.266 872.504 665.625C873.223 665.984 873.773 666.465 874.156 667.066C874.539 667.66 874.73 668.32 874.73 669.047H872.562C872.562 668.695 872.457 668.355 872.246 668.027C872.043 667.691 871.742 667.414 871.344 667.195C870.953 666.977 870.473 666.867 869.902 666.867C869.301 666.867 868.812 666.961 868.438 667.148C868.07 667.328 867.801 667.559 867.629 667.84C867.465 668.121 867.383 668.418 867.383 668.73C867.383 668.965 867.422 669.176 867.5 669.363C867.586 669.543 867.734 669.711 867.945 669.867C868.156 670.016 868.453 670.156 868.836 670.289C869.219 670.422 869.707 670.555 870.301 670.688C871.34 670.922 872.195 671.203 872.867 671.531C873.539 671.859 874.039 672.262 874.367 672.738C874.695 673.215 874.859 673.793 874.859 674.473C874.859 675.027 874.742 675.535 874.508 675.996C874.281 676.457 873.949 676.855 873.512 677.191C873.082 677.52 872.566 677.777 871.965 677.965C871.371 678.145 870.703 678.234 869.961 678.234C868.844 678.234 867.898 678.035 867.125 677.637C866.352 677.238 865.766 676.723 865.367 676.09C864.969 675.457 864.77 674.789 864.77 674.086H866.949C866.98 674.68 867.152 675.152 867.465 675.504C867.777 675.848 868.16 676.094 868.613 676.242C869.066 676.383 869.516 676.453 869.961 676.453C870.555 676.453 871.051 676.375 871.449 676.219C871.855 676.062 872.164 675.848 872.375 675.574C872.586 675.301 872.691 674.988 872.691 674.637ZM883.469 678.234C882.586 678.234 881.785 678.086 881.066 677.789C880.355 677.484 879.742 677.059 879.227 676.512C878.719 675.965 878.328 675.316 878.055 674.566C877.781 673.816 877.645 672.996 877.645 672.105V671.613C877.645 670.582 877.797 669.664 878.102 668.859C878.406 668.047 878.82 667.359 879.344 666.797C879.867 666.234 880.461 665.809 881.125 665.52C881.789 665.23 882.477 665.086 883.188 665.086C884.094 665.086 884.875 665.242 885.531 665.555C886.195 665.867 886.738 666.305 887.16 666.867C887.582 667.422 887.895 668.078 888.098 668.836C888.301 669.586 888.402 670.406 888.402 671.297V672.27H878.934V670.5H886.234V670.336C886.203 669.773 886.086 669.227 885.883 668.695C885.688 668.164 885.375 667.727 884.945 667.383C884.516 667.039 883.93 666.867 883.188 666.867C882.695 666.867 882.242 666.973 881.828 667.184C881.414 667.387 881.059 667.691 880.762 668.098C880.465 668.504 880.234 669 880.07 669.586C879.906 670.172 879.824 670.848 879.824 671.613V672.105C879.824 672.707 879.906 673.273 880.07 673.805C880.242 674.328 880.488 674.789 880.809 675.188C881.137 675.586 881.531 675.898 881.992 676.125C882.461 676.352 882.992 676.465 883.586 676.465C884.352 676.465 885 676.309 885.531 675.996C886.062 675.684 886.527 675.266 886.926 674.742L888.238 675.785C887.965 676.199 887.617 676.594 887.195 676.969C886.773 677.344 886.254 677.648 885.637 677.883C885.027 678.117 884.305 678.234 883.469 678.234ZM893.602 668.027V678H891.434V665.32H893.484L893.602 668.027ZM893.086 671.18L892.184 671.145C892.191 670.277 892.32 669.477 892.57 668.742C892.82 668 893.172 667.355 893.625 666.809C894.078 666.262 894.617 665.84 895.242 665.543C895.875 665.238 896.574 665.086 897.34 665.086C897.965 665.086 898.527 665.172 899.027 665.344C899.527 665.508 899.953 665.773 900.305 666.141C900.664 666.508 900.938 666.984 901.125 667.57C901.312 668.148 901.406 668.855 901.406 669.691V678H899.227V669.668C899.227 669.004 899.129 668.473 898.934 668.074C898.738 667.668 898.453 667.375 898.078 667.195C897.703 667.008 897.242 666.914 896.695 666.914C896.156 666.914 895.664 667.027 895.219 667.254C894.781 667.48 894.402 667.793 894.082 668.191C893.77 668.59 893.523 669.047 893.344 669.562C893.172 670.07 893.086 670.609 893.086 671.18ZM910.508 665.32V666.984H903.652V665.32H910.508ZM905.973 662.238H908.141V674.859C908.141 675.289 908.207 675.613 908.34 675.832C908.473 676.051 908.645 676.195 908.855 676.266C909.066 676.336 909.293 676.371 909.535 676.371C909.715 676.371 909.902 676.355 910.098 676.324C910.301 676.285 910.453 676.254 910.555 676.23L910.566 678C910.395 678.055 910.168 678.105 909.887 678.152C909.613 678.207 909.281 678.234 908.891 678.234C908.359 678.234 907.871 678.129 907.426 677.918C906.98 677.707 906.625 677.355 906.359 676.863C906.102 676.363 905.973 675.691 905.973 674.848V662.238ZM921.027 675.832V669.305C921.027 668.805 920.926 668.371 920.723 668.004C920.527 667.629 920.23 667.34 919.832 667.137C919.434 666.934 918.941 666.832 918.355 666.832C917.809 666.832 917.328 666.926 916.914 667.113C916.508 667.301 916.188 667.547 915.953 667.852C915.727 668.156 915.613 668.484 915.613 668.836H913.445C913.445 668.383 913.562 667.934 913.797 667.488C914.031 667.043 914.367 666.641 914.805 666.281C915.25 665.914 915.781 665.625 916.398 665.414C917.023 665.195 917.719 665.086 918.484 665.086C919.406 665.086 920.219 665.242 920.922 665.555C921.633 665.867 922.188 666.34 922.586 666.973C922.992 667.598 923.195 668.383 923.195 669.328V675.234C923.195 675.656 923.23 676.105 923.301 676.582C923.379 677.059 923.492 677.469 923.641 677.812V678H921.379C921.27 677.75 921.184 677.418 921.121 677.004C921.059 676.582 921.027 676.191 921.027 675.832ZM921.402 670.312L921.426 671.836H919.234C918.617 671.836 918.066 671.887 917.582 671.988C917.098 672.082 916.691 672.227 916.363 672.422C916.035 672.617 915.785 672.863 915.613 673.16C915.441 673.449 915.355 673.789 915.355 674.18C915.355 674.578 915.445 674.941 915.625 675.27C915.805 675.598 916.074 675.859 916.434 676.055C916.801 676.242 917.25 676.336 917.781 676.336C918.445 676.336 919.031 676.195 919.539 675.914C920.047 675.633 920.449 675.289 920.746 674.883C921.051 674.477 921.215 674.082 921.238 673.699L922.164 674.742C922.109 675.07 921.961 675.434 921.719 675.832C921.477 676.23 921.152 676.613 920.746 676.98C920.348 677.34 919.871 677.641 919.316 677.883C918.77 678.117 918.152 678.234 917.465 678.234C916.605 678.234 915.852 678.066 915.203 677.73C914.562 677.395 914.062 676.945 913.703 676.383C913.352 675.812 913.176 675.176 913.176 674.473C913.176 673.793 913.309 673.195 913.574 672.68C913.84 672.156 914.223 671.723 914.723 671.379C915.223 671.027 915.824 670.762 916.527 670.582C917.23 670.402 918.016 670.312 918.883 670.312H921.402ZM932.414 665.32V666.984H925.559V665.32H932.414ZM927.879 662.238H930.047V674.859C930.047 675.289 930.113 675.613 930.246 675.832C930.379 676.051 930.551 676.195 930.762 676.266C930.973 676.336 931.199 676.371 931.441 676.371C931.621 676.371 931.809 676.355 932.004 676.324C932.207 676.285 932.359 676.254 932.461 676.23L932.473 678C932.301 678.055 932.074 678.105 931.793 678.152C931.52 678.207 931.188 678.234 930.797 678.234C930.266 678.234 929.777 678.129 929.332 677.918C928.887 677.707 928.531 677.355 928.266 676.863C928.008 676.363 927.879 675.691 927.879 674.848V662.238ZM937.812 665.32V678H935.633V665.32H937.812ZM935.469 661.957C935.469 661.605 935.574 661.309 935.785 661.066C936.004 660.824 936.324 660.703 936.746 660.703C937.16 660.703 937.477 660.824 937.695 661.066C937.922 661.309 938.035 661.605 938.035 661.957C938.035 662.293 937.922 662.582 937.695 662.824C937.477 663.059 937.16 663.176 936.746 663.176C936.324 663.176 936.004 663.059 935.785 662.824C935.574 662.582 935.469 662.293 935.469 661.957ZM941.219 671.801V671.531C941.219 670.617 941.352 669.77 941.617 668.988C941.883 668.199 942.266 667.516 942.766 666.938C943.266 666.352 943.871 665.898 944.582 665.578C945.293 665.25 946.09 665.086 946.973 665.086C947.863 665.086 948.664 665.25 949.375 665.578C950.094 665.898 950.703 666.352 951.203 666.938C951.711 667.516 952.098 668.199 952.363 668.988C952.629 669.77 952.762 670.617 952.762 671.531V671.801C952.762 672.715 952.629 673.562 952.363 674.344C952.098 675.125 951.711 675.809 951.203 676.395C950.703 676.973 950.098 677.426 949.387 677.754C948.684 678.074 947.887 678.234 946.996 678.234C946.105 678.234 945.305 678.074 944.594 677.754C943.883 677.426 943.273 676.973 942.766 676.395C942.266 675.809 941.883 675.125 941.617 674.344C941.352 673.562 941.219 672.715 941.219 671.801ZM943.387 671.531V671.801C943.387 672.434 943.461 673.031 943.609 673.594C943.758 674.148 943.98 674.641 944.277 675.07C944.582 675.5 944.961 675.84 945.414 676.09C945.867 676.332 946.395 676.453 946.996 676.453C947.59 676.453 948.109 676.332 948.555 676.09C949.008 675.84 949.383 675.5 949.68 675.07C949.977 674.641 950.199 674.148 950.348 673.594C950.504 673.031 950.582 672.434 950.582 671.801V671.531C950.582 670.906 950.504 670.316 950.348 669.762C950.199 669.199 949.973 668.703 949.668 668.273C949.371 667.836 948.996 667.492 948.543 667.242C948.098 666.992 947.574 666.867 946.973 666.867C946.379 666.867 945.855 666.992 945.402 667.242C944.957 667.492 944.582 667.836 944.277 668.273C943.98 668.703 943.758 669.199 943.609 669.762C943.461 670.316 943.387 670.906 943.387 671.531ZM958.148 668.027V678H955.98V665.32H958.031L958.148 668.027ZM957.633 671.18L956.73 671.145C956.738 670.277 956.867 669.477 957.117 668.742C957.367 668 957.719 667.355 958.172 666.809C958.625 666.262 959.164 665.84 959.789 665.543C960.422 665.238 961.121 665.086 961.887 665.086C962.512 665.086 963.074 665.172 963.574 665.344C964.074 665.508 964.5 665.773 964.852 666.141C965.211 666.508 965.484 666.984 965.672 667.57C965.859 668.148 965.953 668.855 965.953 669.691V678H963.773V669.668C963.773 669.004 963.676 668.473 963.48 668.074C963.285 667.668 963 667.375 962.625 667.195C962.25 667.008 961.789 666.914 961.242 666.914C960.703 666.914 960.211 667.027 959.766 667.254C959.328 667.48 958.949 667.793 958.629 668.191C958.316 668.59 958.07 669.047 957.891 669.562C957.719 670.07 957.633 670.609 957.633 671.18ZM977.293 660.938L970.18 679.465H968.316L975.441 660.938H977.293ZM980.148 660H982.328V675.539L982.141 678H980.148V660ZM990.895 671.555V671.801C990.895 672.723 990.785 673.578 990.566 674.367C990.348 675.148 990.027 675.828 989.605 676.406C989.184 676.984 988.668 677.434 988.059 677.754C987.449 678.074 986.75 678.234 985.961 678.234C985.156 678.234 984.449 678.098 983.84 677.824C983.238 677.543 982.73 677.141 982.316 676.617C981.902 676.094 981.57 675.461 981.32 674.719C981.078 673.977 980.91 673.141 980.816 672.211V671.133C980.91 670.195 981.078 669.355 981.32 668.613C981.57 667.871 981.902 667.238 982.316 666.715C982.73 666.184 983.238 665.781 983.84 665.508C984.441 665.227 985.141 665.086 985.938 665.086C986.734 665.086 987.441 665.242 988.059 665.555C988.676 665.859 989.191 666.297 989.605 666.867C990.027 667.438 990.348 668.121 990.566 668.918C990.785 669.707 990.895 670.586 990.895 671.555ZM988.715 671.801V671.555C988.715 670.922 988.656 670.328 988.539 669.773C988.422 669.211 988.234 668.719 987.977 668.297C987.719 667.867 987.379 667.531 986.957 667.289C986.535 667.039 986.016 666.914 985.398 666.914C984.852 666.914 984.375 667.008 983.969 667.195C983.57 667.383 983.23 667.637 982.949 667.957C982.668 668.27 982.438 668.629 982.258 669.035C982.086 669.434 981.957 669.848 981.871 670.277V673.102C981.996 673.648 982.199 674.176 982.48 674.684C982.77 675.184 983.152 675.594 983.629 675.914C984.113 676.234 984.711 676.395 985.422 676.395C986.008 676.395 986.508 676.277 986.922 676.043C987.344 675.801 987.684 675.469 987.941 675.047C988.207 674.625 988.402 674.137 988.527 673.582C988.652 673.027 988.715 672.434 988.715 671.801ZM996.492 665.32V678H994.312V665.32H996.492ZM994.148 661.957C994.148 661.605 994.254 661.309 994.465 661.066C994.684 660.824 995.004 660.703 995.426 660.703C995.84 660.703 996.156 660.824 996.375 661.066C996.602 661.309 996.715 661.605 996.715 661.957C996.715 662.293 996.602 662.582 996.375 662.824C996.156 663.059 995.84 663.176 995.426 663.176C995.004 663.176 994.684 663.059 994.465 662.824C994.254 662.582 994.148 662.293 994.148 661.957ZM999.898 671.801V671.531C999.898 670.617 1000.03 669.77 1000.3 668.988C1000.56 668.199 1000.95 667.516 1001.45 666.938C1001.95 666.352 1002.55 665.898 1003.26 665.578C1003.97 665.25 1004.77 665.086 1005.65 665.086C1006.54 665.086 1007.34 665.25 1008.05 665.578C1008.77 665.898 1009.38 666.352 1009.88 666.938C1010.39 667.516 1010.78 668.199 1011.04 668.988C1011.31 669.77 1011.44 670.617 1011.44 671.531V671.801C1011.44 672.715 1011.31 673.562 1011.04 674.344C1010.78 675.125 1010.39 675.809 1009.88 676.395C1009.38 676.973 1008.78 677.426 1008.07 677.754C1007.36 678.074 1006.57 678.234 1005.68 678.234C1004.79 678.234 1003.98 678.074 1003.27 677.754C1002.56 677.426 1001.95 676.973 1001.45 676.395C1000.95 675.809 1000.56 675.125 1000.3 674.344C1000.03 673.562 999.898 672.715 999.898 671.801ZM1002.07 671.531V671.801C1002.07 672.434 1002.14 673.031 1002.29 673.594C1002.44 674.148 1002.66 674.641 1002.96 675.07C1003.26 675.5 1003.64 675.84 1004.09 676.09C1004.55 676.332 1005.07 676.453 1005.68 676.453C1006.27 676.453 1006.79 676.332 1007.23 676.09C1007.69 675.84 1008.06 675.5 1008.36 675.07C1008.66 674.641 1008.88 674.148 1009.03 673.594C1009.18 673.031 1009.26 672.434 1009.26 671.801V671.531C1009.26 670.906 1009.18 670.316 1009.03 669.762C1008.88 669.199 1008.65 668.703 1008.35 668.273C1008.05 667.836 1007.68 667.492 1007.22 667.242C1006.78 666.992 1006.25 666.867 1005.65 666.867C1005.06 666.867 1004.54 666.992 1004.08 667.242C1003.64 667.492 1003.26 667.836 1002.96 668.273C1002.66 668.703 1002.44 669.199 1002.29 669.762C1002.14 670.316 1002.07 670.906 1002.07 671.531Z" fill="black"/>
</g>
<defs>
<filter id="filter0_d_17_259" x="1025.63" y="791.9" width="227.058" height="162.2" filterUnits="userSpaceOnUse" color-interpolation-filters="sRGB">
<feFlood flood-opacity="0" result="BackgroundImageFix"/>
<feColorMatrix in="SourceAlpha" type="matrix" values="0 0 0 0 0 0 0 0 0 0 0 0 0 0 0 0 0 0 127 0" result="hardAlpha"/>
<feOffset dy="8"/>
<feGaussianBlur stdDeviation="9.05"/>
<feComposite in2="hardAlpha" operator="out"/>
<feColorMatrix type="matrix" values="0 0 0 0 0 0 0 0 0 0 0 0 0 0 0 0 0 0 0.25 0"/>
<feBlend mode="normal" in2="BackgroundImageFix" result="effect1_dropShadow_17_259"/>
<feBlend mode="normal" in="SourceGraphic" in2="effect1_dropShadow_17_259" result="shape"/>
</filter>
<filter id="filter1_d_17_259" x="261.632" y="791.9" width="227.058" height="162.2" filterUnits="userSpaceOnUse" color-interpolation-filters="sRGB">
<feFlood flood-opacity="0" result="BackgroundImageFix"/>
<feColorMatrix in="SourceAlpha" type="matrix" values="0 0 0 0 0 0 0 0 0 0 0 0 0 0 0 0 0 0 127 0" result="hardAlpha"/>
<feOffset dy="8"/>
<feGaussianBlur stdDeviation="9.05"/>
<feComposite in2="hardAlpha" operator="out"/>
<feColorMatrix type="matrix" values="0 0 0 0 0 0 0 0 0 0 0 0 0 0 0 0 0 0 0.25 0"/>
<feBlend mode="normal" in2="BackgroundImageFix" result="effect1_dropShadow_17_259"/>
<feBlend mode="normal" in="SourceGraphic" in2="effect1_dropShadow_17_259" result="shape"/>
</filter>
<filter id="filter2_d_17_259" x="831.691" y="770.9" width="294.901" height="203.2" filterUnits="userSpaceOnUse" color-interpolation-filters="sRGB">
<feFlood flood-opacity="0" result="BackgroundImageFix"/>
<feColorMatrix in="SourceAlpha" type="matrix" values="0 0 0 0 0 0 0 0 0 0 0 0 0 0 0 0 0 0 127 0" result="hardAlpha"/>
<feOffset dy="8"/>
<feGaussianBlur stdDeviation="9.05"/>
<feComposite in2="hardAlpha" operator="out"/>
<feColorMatrix type="matrix" values="0 0 0 0 0 0 0 0 0 0 0 0 0 0 0 0 0 0 0.25 0"/>
<feBlend mode="normal" in2="BackgroundImageFix" result="effect1_dropShadow_17_259"/>
<feBlend mode="normal" in="SourceGraphic" in2="effect1_dropShadow_17_259" result="shape"/>
</filter>
<filter id="filter3_d_17_259" x="399.691" y="770.9" width="294.901" height="203.2" filterUnits="userSpaceOnUse" color-interpolation-filters="sRGB">
<feFlood flood-opacity="0" result="BackgroundImageFix"/>
<feColorMatrix in="SourceAlpha" type="matrix" values="0 0 0 0 0 0 0 0 0 0 0 0 0 0 0 0 0 0 127 0" result="hardAlpha"/>
<feOffset dy="8"/>
<feGaussianBlur stdDeviation="9.05"/>
<feComposite in2="hardAlpha" operator="out"/>
<feColorMatrix type="matrix" values="0 0 0 0 0 0 0 0 0 0 0 0 0 0 0 0 0 0 0.25 0"/>
<feBlend mode="normal" in2="BackgroundImageFix" result="effect1_dropShadow_17_259"/>
<feBlend mode="normal" in="SourceGraphic" in2="effect1_dropShadow_17_259" result="shape"/>
</filter>
<filter id="filter4_d_17_259" x="577.931" y="753.9" width="356.752" height="237.2" filterUnits="userSpaceOnUse" color-interpolation-filters="sRGB">
<feFlood flood-opacity="0" result="BackgroundImageFix"/>
<feColorMatrix in="SourceAlpha" type="matrix" values="0 0 0 0 0 0 0 0 0 0 0 0 0 0 0 0 0 0 127 0" result="hardAlpha"/>
<feOffset dy="8"/>
<feGaussianBlur stdDeviation="9.05"/>
<feComposite in2="hardAlpha" operator="out"/>
<feColorMatrix type="matrix" values="0 0 0 0 0 0 0 0 0 0 0 0 0 0 0 0 0 0 0.25 0"/>
<feBlend mode="normal" in2="BackgroundImageFix" result="effect1_dropShadow_17_259"/>
<feBlend mode="normal" in="SourceGraphic" in2="effect1_dropShadow_17_259" result="shape"/>
</filter>
<linearGradient id="paint0_linear_17_259" x1="111" y1="295" x2="111" y2="203" gradientUnits="userSpaceOnUse">
<stop stop-color="#FF1212" stop-opacity="0"/>
<stop offset="0.85" stop-color="#FF1212" stop-opacity="0.65"/>
</linearGradient>
<linearGradient id="paint1_linear_17_259" x1="111" y1="387" x2="111" y2="295" gradientUnits="userSpaceOnUse">
<stop stop-color="#F5CE59" stop-opacity="0"/>
<stop offset="0.85" stop-color="#F5CE59" stop-opacity="0.65"/>
</linearGradient>
<linearGradient id="paint2_linear_17_259" x1="111" y1="571" x2="111" y2="479" gradientUnits="userSpaceOnUse">
<stop stop-color="white" stop-opacity="0"/>
<stop offset="0.785" stop-color="white" stop-opacity="0.65"/>
</linearGradient>
<linearGradient id="paint3_linear_17_259" x1="111" y1="479" x2="111" y2="387" gradientUnits="userSpaceOnUse">
<stop stop-color="#C910F2" stop-opacity="0"/>
<stop offset="0.85" stop-color="#C910F2" stop-opacity="0.65"/>
</linearGradient>
<clipPath id="clip0_17_259">
<rect width="1512" height="982" fill="white"/>
</clipPath>
</defs>
</svg>
