<svg width="1512" height="982" viewBox="0 0 1512 982" fill="none" xmlns="http://www.w3.org/2000/svg">
<rect width="1512" height="982" fill="#383838"/>
<g filter="url(#filter0_d_215_377)">
<path d="M63.0862 266.876C56.4517 221.609 91.5426 181 137.293 181H217.501H300.992C345.946 181 380.801 220.274 375.461 264.91L369.479 314.91C364.967 352.616 332.985 381 295.01 381H144.622C107.401 381 75.8118 353.703 70.4143 316.876L63.0862 266.876Z" fill="#D9D9D9"/>
</g>
<g filter="url(#filter1_d_215_377)">
<path d="M422.086 266.876C415.452 221.609 450.543 181 496.293 181H576.501H659.992C704.946 181 739.801 220.274 734.461 264.91L728.479 314.91C723.967 352.616 691.985 381 654.01 381H503.622C466.401 381 434.812 353.703 429.414 316.876L422.086 266.876Z" fill="#D9D9D9"/>
</g>
<g filter="url(#filter2_d_215_377)">
<path d="M781.086 266.876C774.452 221.609 809.543 181 855.293 181H935.501H1018.99C1063.95 181 1098.8 220.274 1093.46 264.91L1087.48 314.91C1082.97 352.616 1050.98 381 1013.01 381H862.622C825.401 381 793.812 353.703 788.414 316.876L781.086 266.876Z" fill="#D9D9D9"/>
</g>
<g filter="url(#filter3_d_215_377)">
<path d="M1140.09 266.876C1133.45 221.609 1168.54 181 1214.29 181H1294.5H1377.99C1422.95 181 1457.8 220.274 1452.46 264.91L1446.48 314.91C1441.97 352.616 1409.98 381 1372.01 381H1221.62C1184.4 381 1152.81 353.703 1147.41 316.876L1140.09 266.876Z" fill="#D9D9D9"/>
</g>
<g filter="url(#filter4_d_215_377)">
<path d="M63.0862 535.876C56.4517 490.609 91.5426 450 137.293 450H217.501H300.992C345.946 450 380.801 489.274 375.461 533.91L369.479 583.91C364.967 621.616 332.985 650 295.01 650H144.622C107.401 650 75.8118 622.703 70.4143 585.876L63.0862 535.876Z" fill="#D9D9D9"/>
</g>
<g filter="url(#filter5_d_215_377)">
<path d="M422.086 535.876C415.452 490.609 450.543 450 496.293 450H576.501H659.992C704.946 450 739.801 489.274 734.461 533.91L728.479 583.91C723.967 621.616 691.985 650 654.01 650H503.622C466.401 650 434.812 622.703 429.414 585.876L422.086 535.876Z" fill="#D9D9D9"/>
</g>
<g filter="url(#filter6_d_215_377)">
<path d="M781.086 535.876C774.452 490.609 809.543 450 855.293 450H935.501H1018.99C1063.95 450 1098.8 489.274 1093.46 533.91L1087.48 583.91C1082.97 621.616 1050.98 650 1013.01 650H862.622C825.401 650 793.812 622.703 788.414 585.876L781.086 535.876Z" fill="#D9D9D9"/>
</g>
<g filter="url(#filter7_d_215_377)">
<path d="M1140.09 535.876C1133.45 490.609 1168.54 450 1214.29 450H1294.5H1377.99C1422.95 450 1457.8 489.274 1452.46 533.91L1446.48 583.91C1441.97 621.616 1409.98 650 1372.01 650H1221.62C1184.4 650 1152.81 622.703 1147.41 585.876L1140.09 535.876Z" fill="#D9D9D9"/>
</g>
<g filter="url(#filter8_d_215_377)">
<path d="M63.0862 804.876C56.4517 759.609 91.5426 719 137.293 719H217.501H300.992C345.946 719 380.801 758.274 375.461 802.91L369.479 852.91C364.967 890.616 332.985 919 295.01 919H144.622C107.401 919 75.8118 891.703 70.4143 854.876L63.0862 804.876Z" fill="#D9D9D9"/>
</g>
<g filter="url(#filter9_d_215_377)">
<path d="M422.086 804.876C415.452 759.609 450.543 719 496.293 719H576.501H659.992C704.946 719 739.801 758.274 734.461 802.91L728.479 852.91C723.967 890.616 691.985 919 654.01 919H503.622C466.401 919 434.812 891.703 429.414 854.876L422.086 804.876Z" fill="#D9D9D9"/>
</g>
<g filter="url(#filter10_d_215_377)">
<path d="M781.086 804.876C774.452 759.609 809.543 719 855.293 719H935.501H1018.99C1063.95 719 1098.8 758.274 1093.46 802.91L1087.48 852.91C1082.97 890.616 1050.98 919 1013.01 919H862.622C825.401 919 793.812 891.703 788.414 854.876L781.086 804.876Z" fill="#D9D9D9"/>
</g>
<g filter="url(#filter11_d_215_377)">
<path d="M1140.09 804.876C1133.45 759.609 1168.54 719 1214.29 719H1294.5H1377.99C1422.95 719 1457.8 758.274 1452.46 802.91L1446.48 852.91C1441.97 890.616 1409.98 919 1372.01 919H1221.62C1184.4 919 1152.81 891.703 1147.41 854.876L1140.09 804.876Z" fill="#D9D9D9"/>
</g>
<path d="M117.32 109.592C117.32 108.536 117.368 107.576 117.464 106.712L117.368 106.568C116.472 106.696 115.496 106.792 114.44 106.856C113.384 106.888 112.408 106.888 111.512 106.856V100.616L124.04 100.568V116.888C122.568 117.56 120.888 118.088 119 118.472C117.144 118.824 114.776 119 111.896 119C108.056 119 105.048 118.488 102.872 117.464C100.696 116.408 99.16 114.728 98.264 112.424C97.368 110.088 96.92 106.984 96.92 103.112C96.92 99.976 97.272 97.4 97.976 95.384C98.712 93.368 99.768 91.816 101.144 90.728C102.552 89.608 104.264 88.84 106.28 88.424C108.296 87.976 110.6 87.752 113.192 87.752C114.728 87.752 116.264 87.816 117.8 87.944C119.368 88.072 120.92 88.312 122.456 88.664V95L122.312 95.096C120.968 94.776 119.624 94.552 118.28 94.424C116.968 94.296 115.64 94.232 114.296 94.232C112.344 94.232 110.632 94.44 109.16 94.856C107.72 95.24 106.6 96.056 105.8 97.304C105 98.552 104.6 100.488 104.6 103.112C104.6 105.704 104.808 107.688 105.224 109.064C105.672 110.408 106.488 111.336 107.672 111.848C108.888 112.328 110.616 112.568 112.856 112.568C113.144 112.568 113.592 112.568 114.2 112.568C114.808 112.536 115.416 112.504 116.024 112.472C116.632 112.44 117.064 112.392 117.32 112.328V109.592ZM150.425 117.8C149.529 118.12 148.281 118.408 146.681 118.664C145.113 118.888 143.241 119 141.065 119C138.313 119 135.961 118.648 134.009 117.944C132.089 117.208 130.633 115.976 129.641 114.248C128.649 112.488 128.153 110.056 128.153 106.952C128.153 102.728 129.113 99.672 131.033 97.784C132.985 95.896 135.993 94.952 140.057 94.952C142.969 94.952 145.257 95.368 146.921 96.2C148.617 97.032 149.817 98.216 150.521 99.752C151.257 101.256 151.625 103.048 151.625 105.128C151.625 105.736 151.593 106.392 151.529 107.096C151.497 107.8 151.417 108.488 151.289 109.16L151.097 109.352H135.305C135.529 110.76 136.185 111.688 137.273 112.136C138.393 112.584 140.201 112.808 142.697 112.808C144.361 112.808 145.737 112.776 146.825 112.712C147.945 112.616 149.081 112.488 150.233 112.328L150.425 112.472V117.8ZM144.953 104.312C144.953 103.544 144.825 102.888 144.569 102.344C144.345 101.768 143.881 101.336 143.177 101.048C142.473 100.728 141.433 100.568 140.057 100.568C138.041 100.568 136.713 100.92 136.073 101.624C135.465 102.296 135.161 103.192 135.161 104.312H144.953ZM163.888 118.568H156.208V95.192H163.504L163.888 99.464H164.032C164.48 98.024 165.28 96.92 166.432 96.152C167.584 95.352 169.184 94.952 171.232 94.952C174.016 94.952 176.064 95.736 177.376 97.304C178.72 98.872 179.392 101.592 179.392 105.464V118.568H171.712L171.664 106.952C171.664 105.16 171.392 103.88 170.848 103.112C170.304 102.344 169.28 101.96 167.776 101.96C166.368 101.96 165.376 102.312 164.8 103.016C164.224 103.688 163.92 104.856 163.888 106.52V118.568ZM192.841 118.568H185.161V95.192H191.401L192.025 99.992H192.169C192.457 98.2 193.145 96.92 194.233 96.152C195.321 95.352 196.937 94.952 199.081 94.952C199.945 94.952 200.729 95 201.433 95.096C202.137 95.16 202.729 95.224 203.209 95.288V102.776L203.113 102.872C202.601 102.744 202.009 102.632 201.337 102.536C200.697 102.44 199.961 102.392 199.129 102.392C197.945 102.392 196.873 102.584 195.913 102.968C194.985 103.352 194.249 104.104 193.705 105.224C193.193 106.312 192.937 107.944 192.937 110.12L192.841 118.568ZM227.675 117.8C226.779 118.12 225.531 118.408 223.931 118.664C222.363 118.888 220.491 119 218.315 119C215.563 119 213.211 118.648 211.259 117.944C209.339 117.208 207.883 115.976 206.891 114.248C205.899 112.488 205.403 110.056 205.403 106.952C205.403 102.728 206.363 99.672 208.283 97.784C210.235 95.896 213.243 94.952 217.307 94.952C220.219 94.952 222.507 95.368 224.171 96.2C225.867 97.032 227.067 98.216 227.771 99.752C228.507 101.256 228.875 103.048 228.875 105.128C228.875 105.736 228.843 106.392 228.779 107.096C228.747 107.8 228.667 108.488 228.539 109.16L228.347 109.352H212.555C212.779 110.76 213.435 111.688 214.523 112.136C215.643 112.584 217.451 112.808 219.947 112.808C221.611 112.808 222.987 112.776 224.075 112.712C225.195 112.616 226.331 112.488 227.483 112.328L227.675 112.472V117.8ZM222.203 104.312C222.203 103.544 222.075 102.888 221.819 102.344C221.595 101.768 221.131 101.336 220.427 101.048C219.723 100.728 218.683 100.568 217.307 100.568C215.291 100.568 213.963 100.92 213.323 101.624C212.715 102.296 212.411 103.192 212.411 104.312H222.203Z" fill="white"/>
<defs>
<filter id="filter0_d_215_377" x="44.1786" y="170.9" width="349.924" height="236.2" filterUnits="userSpaceOnUse" color-interpolation-filters="sRGB">
<feFlood flood-opacity="0" result="BackgroundImageFix"/>
<feColorMatrix in="SourceAlpha" type="matrix" values="0 0 0 0 0 0 0 0 0 0 0 0 0 0 0 0 0 0 127 0" result="hardAlpha"/>
<feOffset dy="8"/>
<feGaussianBlur stdDeviation="9.05"/>
<feComposite in2="hardAlpha" operator="out"/>
<feColorMatrix type="matrix" values="0 0 0 0 0 0 0 0 0 0 0 0 0 0 0 0 0 0 0.25 0"/>
<feBlend mode="normal" in2="BackgroundImageFix" result="effect1_dropShadow_215_377"/>
<feBlend mode="normal" in="SourceGraphic" in2="effect1_dropShadow_215_377" result="shape"/>
</filter>
<filter id="filter1_d_215_377" x="403.179" y="170.9" width="349.924" height="236.2" filterUnits="userSpaceOnUse" color-interpolation-filters="sRGB">
<feFlood flood-opacity="0" result="BackgroundImageFix"/>
<feColorMatrix in="SourceAlpha" type="matrix" values="0 0 0 0 0 0 0 0 0 0 0 0 0 0 0 0 0 0 127 0" result="hardAlpha"/>
<feOffset dy="8"/>
<feGaussianBlur stdDeviation="9.05"/>
<feComposite in2="hardAlpha" operator="out"/>
<feColorMatrix type="matrix" values="0 0 0 0 0 0 0 0 0 0 0 0 0 0 0 0 0 0 0.25 0"/>
<feBlend mode="normal" in2="BackgroundImageFix" result="effect1_dropShadow_215_377"/>
<feBlend mode="normal" in="SourceGraphic" in2="effect1_dropShadow_215_377" result="shape"/>
</filter>
<filter id="filter2_d_215_377" x="762.179" y="170.9" width="349.924" height="236.2" filterUnits="userSpaceOnUse" color-interpolation-filters="sRGB">
<feFlood flood-opacity="0" result="BackgroundImageFix"/>
<feColorMatrix in="SourceAlpha" type="matrix" values="0 0 0 0 0 0 0 0 0 0 0 0 0 0 0 0 0 0 127 0" result="hardAlpha"/>
<feOffset dy="8"/>
<feGaussianBlur stdDeviation="9.05"/>
<feComposite in2="hardAlpha" operator="out"/>
<feColorMatrix type="matrix" values="0 0 0 0 0 0 0 0 0 0 0 0 0 0 0 0 0 0 0.25 0"/>
<feBlend mode="normal" in2="BackgroundImageFix" result="effect1_dropShadow_215_377"/>
<feBlend mode="normal" in="SourceGraphic" in2="effect1_dropShadow_215_377" result="shape"/>
</filter>
<filter id="filter3_d_215_377" x="1121.18" y="170.9" width="349.924" height="236.2" filterUnits="userSpaceOnUse" color-interpolation-filters="sRGB">
<feFlood flood-opacity="0" result="BackgroundImageFix"/>
<feColorMatrix in="SourceAlpha" type="matrix" values="0 0 0 0 0 0 0 0 0 0 0 0 0 0 0 0 0 0 127 0" result="hardAlpha"/>
<feOffset dy="8"/>
<feGaussianBlur stdDeviation="9.05"/>
<feComposite in2="hardAlpha" operator="out"/>
<feColorMatrix type="matrix" values="0 0 0 0 0 0 0 0 0 0 0 0 0 0 0 0 0 0 0.25 0"/>
<feBlend mode="normal" in2="BackgroundImageFix" result="effect1_dropShadow_215_377"/>
<feBlend mode="normal" in="SourceGraphic" in2="effect1_dropShadow_215_377" result="shape"/>
</filter>
<filter id="filter4_d_215_377" x="44.1786" y="439.9" width="349.924" height="236.2" filterUnits="userSpaceOnUse" color-interpolation-filters="sRGB">
<feFlood flood-opacity="0" result="BackgroundImageFix"/>
<feColorMatrix in="SourceAlpha" type="matrix" values="0 0 0 0 0 0 0 0 0 0 0 0 0 0 0 0 0 0 127 0" result="hardAlpha"/>
<feOffset dy="8"/>
<feGaussianBlur stdDeviation="9.05"/>
<feComposite in2="hardAlpha" operator="out"/>
<feColorMatrix type="matrix" values="0 0 0 0 0 0 0 0 0 0 0 0 0 0 0 0 0 0 0.25 0"/>
<feBlend mode="normal" in2="BackgroundImageFix" result="effect1_dropShadow_215_377"/>
<feBlend mode="normal" in="SourceGraphic" in2="effect1_dropShadow_215_377" result="shape"/>
</filter>
<filter id="filter5_d_215_377" x="403.179" y="439.9" width="349.924" height="236.2" filterUnits="userSpaceOnUse" color-interpolation-filters="sRGB">
<feFlood flood-opacity="0" result="BackgroundImageFix"/>
<feColorMatrix in="SourceAlpha" type="matrix" values="0 0 0 0 0 0 0 0 0 0 0 0 0 0 0 0 0 0 127 0" result="hardAlpha"/>
<feOffset dy="8"/>
<feGaussianBlur stdDeviation="9.05"/>
<feComposite in2="hardAlpha" operator="out"/>
<feColorMatrix type="matrix" values="0 0 0 0 0 0 0 0 0 0 0 0 0 0 0 0 0 0 0.25 0"/>
<feBlend mode="normal" in2="BackgroundImageFix" result="effect1_dropShadow_215_377"/>
<feBlend mode="normal" in="SourceGraphic" in2="effect1_dropShadow_215_377" result="shape"/>
</filter>
<filter id="filter6_d_215_377" x="762.179" y="439.9" width="349.924" height="236.2" filterUnits="userSpaceOnUse" color-interpolation-filters="sRGB">
<feFlood flood-opacity="0" result="BackgroundImageFix"/>
<feColorMatrix in="SourceAlpha" type="matrix" values="0 0 0 0 0 0 0 0 0 0 0 0 0 0 0 0 0 0 127 0" result="hardAlpha"/>
<feOffset dy="8"/>
<feGaussianBlur stdDeviation="9.05"/>
<feComposite in2="hardAlpha" operator="out"/>
<feColorMatrix type="matrix" values="0 0 0 0 0 0 0 0 0 0 0 0 0 0 0 0 0 0 0.25 0"/>
<feBlend mode="normal" in2="BackgroundImageFix" result="effect1_dropShadow_215_377"/>
<feBlend mode="normal" in="SourceGraphic" in2="effect1_dropShadow_215_377" result="shape"/>
</filter>
<filter id="filter7_d_215_377" x="1121.18" y="439.9" width="349.924" height="236.2" filterUnits="userSpaceOnUse" color-interpolation-filters="sRGB">
<feFlood flood-opacity="0" result="BackgroundImageFix"/>
<feColorMatrix in="SourceAlpha" type="matrix" values="0 0 0 0 0 0 0 0 0 0 0 0 0 0 0 0 0 0 127 0" result="hardAlpha"/>
<feOffset dy="8"/>
<feGaussianBlur stdDeviation="9.05"/>
<feComposite in2="hardAlpha" operator="out"/>
<feColorMatrix type="matrix" values="0 0 0 0 0 0 0 0 0 0 0 0 0 0 0 0 0 0 0.25 0"/>
<feBlend mode="normal" in2="BackgroundImageFix" result="effect1_dropShadow_215_377"/>
<feBlend mode="normal" in="SourceGraphic" in2="effect1_dropShadow_215_377" result="shape"/>
</filter>
<filter id="filter8_d_215_377" x="44.1786" y="708.9" width="349.924" height="236.2" filterUnits="userSpaceOnUse" color-interpolation-filters="sRGB">
<feFlood flood-opacity="0" result="BackgroundImageFix"/>
<feColorMatrix in="SourceAlpha" type="matrix" values="0 0 0 0 0 0 0 0 0 0 0 0 0 0 0 0 0 0 127 0" result="hardAlpha"/>
<feOffset dy="8"/>
<feGaussianBlur stdDeviation="9.05"/>
<feComposite in2="hardAlpha" operator="out"/>
<feColorMatrix type="matrix" values="0 0 0 0 0 0 0 0 0 0 0 0 0 0 0 0 0 0 0.25 0"/>
<feBlend mode="normal" in2="BackgroundImageFix" result="effect1_dropShadow_215_377"/>
<feBlend mode="normal" in="SourceGraphic" in2="effect1_dropShadow_215_377" result="shape"/>
</filter>
<filter id="filter9_d_215_377" x="403.179" y="708.9" width="349.924" height="236.2" filterUnits="userSpaceOnUse" color-interpolation-filters="sRGB">
<feFlood flood-opacity="0" result="BackgroundImageFix"/>
<feColorMatrix in="SourceAlpha" type="matrix" values="0 0 0 0 0 0 0 0 0 0 0 0 0 0 0 0 0 0 127 0" result="hardAlpha"/>
<feOffset dy="8"/>
<feGaussianBlur stdDeviation="9.05"/>
<feComposite in2="hardAlpha" operator="out"/>
<feColorMatrix type="matrix" values="0 0 0 0 0 0 0 0 0 0 0 0 0 0 0 0 0 0 0.25 0"/>
<feBlend mode="normal" in2="BackgroundImageFix" result="effect1_dropShadow_215_377"/>
<feBlend mode="normal" in="SourceGraphic" in2="effect1_dropShadow_215_377" result="shape"/>
</filter>
<filter id="filter10_d_215_377" x="762.179" y="708.9" width="349.924" height="236.2" filterUnits="userSpaceOnUse" color-interpolation-filters="sRGB">
<feFlood flood-opacity="0" result="BackgroundImageFix"/>
<feColorMatrix in="SourceAlpha" type="matrix" values="0 0 0 0 0 0 0 0 0 0 0 0 0 0 0 0 0 0 127 0" result="hardAlpha"/>
<feOffset dy="8"/>
<feGaussianBlur stdDeviation="9.05"/>
<feComposite in2="hardAlpha" operator="out"/>
<feColorMatrix type="matrix" values="0 0 0 0 0 0 0 0 0 0 0 0 0 0 0 0 0 0 0.25 0"/>
<feBlend mode="normal" in2="BackgroundImageFix" result="effect1_dropShadow_215_377"/>
<feBlend mode="normal" in="SourceGraphic" in2="effect1_dropShadow_215_377" result="shape"/>
</filter>
<filter id="filter11_d_215_377" x="1121.18" y="708.9" width="349.924" height="236.2" filterUnits="userSpaceOnUse" color-interpolation-filters="sRGB">
<feFlood flood-opacity="0" result="BackgroundImageFix"/>
<feColorMatrix in="SourceAlpha" type="matrix" values="0 0 0 0 0 0 0 0 0 0 0 0 0 0 0 0 0 0 127 0" result="hardAlpha"/>
<feOffset dy="8"/>
<feGaussianBlur stdDeviation="9.05"/>
<feComposite in2="hardAlpha" operator="out"/>
<feColorMatrix type="matrix" values="0 0 0 0 0 0 0 0 0 0 0 0 0 0 0 0 0 0 0.25 0"/>
<feBlend mode="normal" in2="BackgroundImageFix" result="effect1_dropShadow_215_377"/>
<feBlend mode="normal" in="SourceGraphic" in2="effect1_dropShadow_215_377" result="shape"/>
</filter>
</defs>
</svg>
