<svg width="1143" height="466" viewBox="0 0 1143 466" fill="none" xmlns="http://www.w3.org/2000/svg">
<path d="M8.32 388.16H16.08V438.56H45.44V446H8.32V388.16ZM56.2456 412.88H63.6856V446H56.2456V412.88ZM55.6856 400.88C55.6856 399.707 56.139 398.72 57.0456 397.92C58.0056 397.12 59.0456 396.72 60.1656 396.72C61.2856 396.72 62.2723 397.12 63.1256 397.92C64.0323 398.72 64.4856 399.707 64.4856 400.88C64.4856 402.107 64.0323 403.12 63.1256 403.92C62.2723 404.667 61.2856 405.04 60.1656 405.04C59.0456 405.04 58.0056 404.64 57.0456 403.84C56.139 403.04 55.6856 402.053 55.6856 400.88ZM83.1981 412.88L83.8381 420.96L83.5181 419.68C84.5848 417.227 86.3181 415.28 88.7181 413.84C91.1181 412.347 93.8915 411.6 97.0381 411.6C100.185 411.6 102.745 412.533 104.718 414.4C106.745 416.213 107.785 418.587 107.838 421.52V446H100.318V424.16C100.265 422.347 99.7315 420.88 98.7181 419.76C97.7581 418.587 96.2381 418 94.1581 418C92.2381 418 90.5048 418.533 88.9581 419.6C87.4115 420.667 86.1848 422.133 85.2781 424C84.4248 425.867 83.9981 428.027 83.9981 430.48V446H76.5581V412.88H83.1981ZM134.217 446.8C131.177 446.8 128.404 446.08 125.897 444.64C123.444 443.147 121.497 441.067 120.057 438.4C118.617 435.68 117.897 432.56 117.897 429.04C117.897 425.36 118.644 422.213 120.137 419.6C121.684 416.987 123.764 414.987 126.377 413.6C128.99 412.213 131.924 411.52 135.177 411.52C137.79 411.52 140.27 412.08 142.617 413.2C145.017 414.32 146.884 415.867 148.217 417.84L147.897 420.48V384.08H155.257V446H147.817V437.76L148.617 439.84C147.07 441.867 145.07 443.547 142.617 444.88C140.164 446.16 137.364 446.8 134.217 446.8ZM136.537 440.48C138.51 440.48 140.27 440.133 141.817 439.44C143.364 438.693 144.644 437.68 145.657 436.4C146.67 435.12 147.39 433.6 147.817 431.84V425.6C147.39 424 146.617 422.613 145.497 421.44C144.43 420.213 143.124 419.253 141.577 418.56C140.084 417.813 138.404 417.44 136.537 417.44C134.51 417.44 132.644 417.947 130.937 418.96C129.284 419.92 127.95 421.253 126.937 422.96C125.924 424.667 125.417 426.64 125.417 428.88C125.417 431.067 125.924 433.04 126.937 434.8C127.95 436.507 129.31 437.893 131.017 438.96C132.724 439.973 134.564 440.48 136.537 440.48ZM181.959 446.8C178.865 446.8 176.039 446.133 173.479 444.8C170.972 443.467 168.972 441.52 167.479 438.96C166.039 436.347 165.319 433.173 165.319 429.44C165.319 425.76 166.092 422.587 167.639 419.92C169.185 417.2 171.239 415.12 173.799 413.68C176.412 412.24 179.265 411.52 182.359 411.52C185.452 411.52 188.065 412.24 190.199 413.68C192.332 415.067 193.959 416.72 195.079 418.64L194.599 419.92L195.319 412.88H202.199V446H194.759V437.36L195.559 439.28C195.345 439.813 194.865 440.507 194.119 441.36C193.425 442.16 192.465 442.987 191.239 443.84C190.065 444.693 188.705 445.413 187.159 446C185.612 446.533 183.879 446.8 181.959 446.8ZM183.959 440.64C185.825 440.64 187.505 440.293 188.999 439.6C190.492 438.907 191.719 437.947 192.679 436.72C193.692 435.44 194.385 433.92 194.759 432.16V425.68C194.332 424.08 193.585 422.693 192.519 421.52C191.452 420.293 190.172 419.36 188.679 418.72C187.185 418.027 185.532 417.68 183.719 417.68C181.745 417.68 179.932 418.16 178.279 419.12C176.625 420.08 175.292 421.413 174.279 423.12C173.319 424.827 172.839 426.827 172.839 429.12C172.839 431.253 173.345 433.2 174.359 434.96C175.372 436.72 176.732 438.107 178.439 439.12C180.145 440.133 181.985 440.64 183.959 440.64ZM221.714 412.88L222.354 420.96L222.034 419.68C223.1 417.227 224.834 415.28 227.234 413.84C229.634 412.347 232.407 411.6 235.554 411.6C238.7 411.6 241.26 412.533 243.234 414.4C245.26 416.213 246.3 418.587 246.354 421.52V446H238.834V424.16C238.78 422.347 238.247 420.88 237.234 419.76C236.274 418.587 234.754 418 232.674 418C230.754 418 229.02 418.533 227.474 419.6C225.927 420.667 224.7 422.133 223.794 424C222.94 425.867 222.514 428.027 222.514 430.48V446H215.074V412.88H221.714Z" fill="#F0EF9C"/>
<path d="M724.28 33.48H733.24L748.92 77.64L747.56 77.08L759 47.48L762.6 57.96L747.32 93.64L724.28 33.48ZM752.04 33.48H759.8L776.76 77L775.16 76.68L790.12 33.48H798.36L775.64 93.56L752.04 33.48ZM816.043 91.8C812.256 91.8 809.003 91.0533 806.283 89.56C803.563 88.0133 801.456 85.9333 799.963 83.32C798.523 80.6533 797.803 77.6133 797.803 74.2C797.803 70.9467 798.63 67.9867 800.283 65.32C801.936 62.6533 804.15 60.52 806.923 58.92C809.696 57.32 812.79 56.52 816.203 56.52C820.576 56.52 824.203 57.8 827.083 60.36C829.963 62.92 831.91 66.44 832.923 70.92L805.643 80.52L803.883 76.12L826.283 67.96L824.683 69C824.043 67.24 822.976 65.72 821.483 64.44C819.99 63.1067 818.043 62.44 815.643 62.44C813.616 62.44 811.803 62.9467 810.203 63.96C808.603 64.92 807.35 66.2533 806.443 67.96C805.536 69.6667 805.083 71.6133 805.083 73.8C805.083 76.0933 805.563 78.12 806.523 79.88C807.483 81.5867 808.79 82.9467 810.443 83.96C812.15 84.92 814.07 85.4 816.203 85.4C817.643 85.4 819.03 85.1333 820.363 84.6C821.75 84.0667 823.03 83.3733 824.203 82.52L827.643 88.04C825.99 89.16 824.123 90.0667 822.043 90.76C820.016 91.4533 818.016 91.8 816.043 91.8ZM862.406 91.8C859.366 91.8 856.672 91.1333 854.326 89.8C852.032 88.4667 850.192 86.7867 848.806 84.76L849.686 82.44V91H842.246V29.08H849.606V65.48L849.366 62.68C850.699 60.8667 852.592 59.4 855.046 58.28C857.552 57.1067 860.326 56.52 863.366 56.52C866.352 56.52 869.072 57.24 871.526 58.68C873.979 60.12 875.926 62.1467 877.366 64.76C878.859 67.32 879.606 70.3867 879.606 73.96C879.606 77.6933 878.806 80.8933 877.206 83.56C875.659 86.2267 873.579 88.28 870.966 89.72C868.352 91.1067 865.499 91.8 862.406 91.8ZM860.886 85.48C863.019 85.48 864.939 84.9733 866.646 83.96C868.352 82.9467 869.686 81.5867 870.646 79.88C871.606 78.12 872.086 76.12 872.086 73.88C872.086 71.7467 871.579 69.8267 870.566 68.12C869.606 66.36 868.272 64.9733 866.566 63.96C864.912 62.9467 863.019 62.44 860.886 62.44C859.072 62.44 857.392 62.7867 855.846 63.48C854.299 64.1733 852.992 65.1333 851.926 66.36C850.859 67.5333 850.112 68.92 849.686 70.52V77.16C850.112 78.76 850.832 80.2 851.846 81.48C852.859 82.7067 854.139 83.6933 855.686 84.44C857.232 85.1333 858.966 85.48 860.886 85.48ZM928.42 91.8C925.38 91.8 922.607 91.08 920.1 89.64C917.647 88.1467 915.7 86.0667 914.26 83.4C912.82 80.68 912.1 77.56 912.1 74.04C912.1 70.36 912.847 67.2133 914.34 64.6C915.887 61.9867 917.967 59.9867 920.58 58.6C923.193 57.2133 926.127 56.52 929.38 56.52C931.993 56.52 934.473 57.08 936.82 58.2C939.22 59.32 941.087 60.8667 942.42 62.84L942.1 65.48V29.08H949.46V91H942.02V82.76L942.82 84.84C941.273 86.8667 939.273 88.5467 936.82 89.88C934.367 91.16 931.567 91.8 928.42 91.8ZM930.74 85.48C932.713 85.48 934.473 85.1333 936.02 84.44C937.567 83.6933 938.847 82.68 939.86 81.4C940.873 80.12 941.593 78.6 942.02 76.84V70.6C941.593 69 940.82 67.6133 939.7 66.44C938.633 65.2133 937.327 64.2533 935.78 63.56C934.287 62.8133 932.607 62.44 930.74 62.44C928.713 62.44 926.847 62.9467 925.14 63.96C923.487 64.92 922.153 66.2533 921.14 67.96C920.127 69.6667 919.62 71.64 919.62 73.88C919.62 76.0667 920.127 78.04 921.14 79.8C922.153 81.5067 923.513 82.8933 925.22 83.96C926.927 84.9733 928.767 85.48 930.74 85.48ZM977.762 91.8C973.975 91.8 970.722 91.0533 968.002 89.56C965.282 88.0133 963.175 85.9333 961.682 83.32C960.242 80.6533 959.522 77.6133 959.522 74.2C959.522 70.9467 960.349 67.9867 962.002 65.32C963.655 62.6533 965.869 60.52 968.642 58.92C971.415 57.32 974.509 56.52 977.922 56.52C982.295 56.52 985.922 57.8 988.802 60.36C991.682 62.92 993.629 66.44 994.642 70.92L967.362 80.52L965.602 76.12L988.002 67.96L986.402 69C985.762 67.24 984.695 65.72 983.202 64.44C981.709 63.1067 979.762 62.44 977.362 62.44C975.335 62.44 973.522 62.9467 971.922 63.96C970.322 64.92 969.069 66.2533 968.162 67.96C967.255 69.6667 966.802 71.6133 966.802 73.8C966.802 76.0933 967.282 78.12 968.242 79.88C969.202 81.5867 970.509 82.9467 972.162 83.96C973.869 84.92 975.789 85.4 977.922 85.4C979.362 85.4 980.749 85.1333 982.082 84.6C983.469 84.0667 984.749 83.3733 985.922 82.52L989.362 88.04C987.709 89.16 985.842 90.0667 983.762 90.76C981.735 91.4533 979.735 91.8 977.762 91.8ZM1013.24 91.64C1010.9 91.64 1008.6 91.24 1006.36 90.44C1004.18 89.5867 1002.36 88.3333 1000.92 86.68L1004.04 82.36C1005.43 83.6933 1006.84 84.7067 1008.28 85.4C1009.78 86.04 1011.24 86.36 1012.68 86.36C1013.75 86.36 1014.74 86.2267 1015.64 85.96C1016.55 85.6933 1017.27 85.2667 1017.8 84.68C1018.39 84.04 1018.68 83.1867 1018.68 82.12C1018.68 80.9467 1018.28 80.0133 1017.48 79.32C1016.74 78.6267 1015.75 78.0667 1014.52 77.64C1013.35 77.2133 1012.1 76.8133 1010.76 76.44C1008.04 75.5333 1005.96 74.28 1004.52 72.68C1003.08 71.08 1002.36 69.1333 1002.36 66.84C1002.36 65.08 1002.79 63.4533 1003.64 61.96C1004.55 60.4133 1005.86 59.16 1007.56 58.2C1009.32 57.24 1011.48 56.76 1014.04 56.76C1016.34 56.76 1018.39 57.0533 1020.2 57.64C1022.02 58.1733 1023.72 59.08 1025.32 60.36L1022.36 65C1021.4 63.9867 1020.26 63.24 1018.92 62.76C1017.59 62.28 1016.39 62.0133 1015.32 61.96C1014.42 61.9067 1013.54 62.04 1012.68 62.36C1011.88 62.68 1011.22 63.1333 1010.68 63.72C1010.15 64.3067 1009.88 65 1009.88 65.8C1009.88 66.92 1010.26 67.8267 1011 68.52C1011.75 69.2133 1012.71 69.7733 1013.88 70.2C1015.11 70.5733 1016.31 70.9733 1017.48 71.4C1019.14 71.88 1020.6 72.52 1021.88 73.32C1023.16 74.12 1024.18 75.1067 1024.92 76.28C1025.72 77.4533 1026.12 78.92 1026.12 80.68C1026.12 82.6533 1025.64 84.4933 1024.68 86.2C1023.78 87.8533 1022.36 89.1867 1020.44 90.2C1018.58 91.16 1016.18 91.64 1013.24 91.64ZM1036.54 57.88H1043.98V91H1036.54V57.88ZM1035.98 45.88C1035.98 44.7067 1036.44 43.72 1037.34 42.92C1038.3 42.12 1039.34 41.72 1040.46 41.72C1041.58 41.72 1042.57 42.12 1043.42 42.92C1044.33 43.72 1044.78 44.7067 1044.78 45.88C1044.78 47.1067 1044.33 48.12 1043.42 48.92C1042.57 49.6667 1041.58 50.04 1040.46 50.04C1039.34 50.04 1038.3 49.64 1037.34 48.84C1036.44 48.04 1035.98 47.0533 1035.98 45.88ZM1072.78 107.4C1070.32 107.4 1068.16 107.107 1066.3 106.52C1064.43 105.987 1062.72 105.213 1061.18 104.2C1059.68 103.187 1058.24 102.04 1056.86 100.76L1061.18 95.72C1062.94 97.3733 1064.72 98.6533 1066.54 99.56C1068.35 100.467 1070.38 100.92 1072.62 100.92C1075.12 100.92 1077.23 100.493 1078.94 99.64C1080.7 98.84 1082.03 97.6933 1082.94 96.2C1083.84 94.76 1084.3 93.08 1084.3 91.16L1084.38 82.2L1085.02 83.64C1084.06 85.9333 1082.32 87.88 1079.82 89.48C1077.31 91.0267 1074.27 91.8 1070.7 91.8C1067.66 91.8 1064.86 91.0267 1062.3 89.48C1059.79 87.9333 1057.76 85.8533 1056.22 83.24C1054.72 80.5733 1053.98 77.5867 1053.98 74.28C1053.98 70.8133 1054.78 67.7733 1056.38 65.16C1057.98 62.4933 1060.08 60.3867 1062.7 58.84C1065.31 57.2933 1068.16 56.52 1071.26 56.52C1074.19 56.52 1076.86 57.1333 1079.26 58.36C1081.71 59.5333 1083.5 61.0533 1084.62 62.92L1084.22 64.28L1085.02 57.88H1091.82V91.24C1091.82 94.2267 1091.04 96.9467 1089.5 99.4C1087.95 101.853 1085.76 103.8 1082.94 105.24C1080.11 106.68 1076.72 107.4 1072.78 107.4ZM1061.42 74.12C1061.42 76.2533 1061.92 78.2 1062.94 79.96C1063.95 81.72 1065.31 83.1067 1067.02 84.12C1068.78 85.1333 1070.72 85.64 1072.86 85.64C1074.83 85.64 1076.59 85.2933 1078.14 84.6C1079.74 83.8533 1081.07 82.8667 1082.14 81.64C1083.2 80.36 1083.95 78.8933 1084.38 77.24V70.68C1083.9 69.08 1083.1 67.6933 1081.98 66.52C1080.86 65.2933 1079.52 64.36 1077.98 63.72C1076.43 63.0267 1074.72 62.68 1072.86 62.68C1070.72 62.68 1068.78 63.16 1067.02 64.12C1065.31 65.08 1063.95 66.44 1062.94 68.2C1061.92 69.9067 1061.42 71.88 1061.42 74.12ZM1111.31 57.88L1111.95 65.96L1111.63 64.68C1112.69 62.2267 1114.43 60.28 1116.83 58.84C1119.23 57.3467 1122 56.6 1125.15 56.6C1128.29 56.6 1130.85 57.5333 1132.83 59.4C1134.85 61.2133 1135.89 63.5867 1135.95 66.52V91H1128.43V69.16C1128.37 67.3467 1127.84 65.88 1126.83 64.76C1125.87 63.5867 1124.35 63 1122.27 63C1120.35 63 1118.61 63.5333 1117.07 64.6C1115.52 65.6667 1114.29 67.1333 1113.39 69C1112.53 70.8667 1112.11 73.0267 1112.11 75.48V91H1104.67V57.88H1111.31Z" fill="#F0EF9C"/>
<mask id="path-3-outside-1_55_189" maskUnits="userSpaceOnUse" x="5" y="127" width="1128" height="289" fill="black">
<rect fill="white" x="5" y="127" width="1128" height="289"/>
<path d="M72 257.1C68.2 256.7 65.6 255.4 64.2 253.2C63 251 62.4 248.7 62.4 246.3L85.8 246.6C104.2 246.8 118.3 243.1 128.1 235.5C138.1 227.9 143.4 217.1 144 203.1C144.6 193.5 142.5 185.3 137.7 178.5C132.9 171.5 126.1 166.1 117.3 162.3C108.7 158.5 98.7 156.6 87.3 156.6H48.6C52.8 156.6 55.6 157.8 57 160.2C58.4 162.6 59.1 165.1 59.1 167.7C59.3 170.3 59.4 172 59.4 172.8L51.3 323.7C51.1 329.9 53.1 334.1 57.3 336.3C61.5 338.5 65.8 340 70.2 340.8C72.2 341 73.2 342.2 73.2 344.4C73.4 346.6 71.8 347.7 68.4 347.7H12.9C10.3 347.7 8.9 346.7 8.7 344.7C8.5 342.7 9.5 341.4 11.7 340.8C16.7 339.6 21.1 338 24.9 336C28.7 334 30.7 329.9 30.9 323.7L39 173.7C39.2 169.3 37.7 165.9 34.5 163.5C31.5 160.9 27.9 159 23.7 157.8C19.7 156.4 16.2 155.2 13.2 154.2C11.2 153.6 10.3 152.1 10.5 149.7C10.9 147.1 12.8 145.8 16.2 145.8H87.9C107.1 145.8 122.5 148.6 134.1 154.2C145.9 159.6 154.4 166.7 159.6 175.5C164.8 184.1 167.1 193.3 166.5 203.1C166.1 212.9 163.1 222 157.5 230.4C151.9 238.8 143.7 245.5 132.9 250.5C122.1 255.3 108.7 257.6 92.7 257.4L72 257.1ZM239.048 350.1C227.248 350.1 216.448 347 206.648 340.8C197.048 334.4 189.648 325.5 184.448 314.1C179.248 302.7 177.248 289.6 178.448 274.8C179.848 260 183.848 247 190.448 235.8C197.248 224.6 205.948 215.9 216.548 209.7C227.148 203.3 238.848 200.1 251.648 200.1C263.448 200.1 274.148 203.3 283.748 209.7C293.548 215.9 301.148 224.6 306.548 235.8C312.148 247 314.248 260 312.848 274.8C311.648 289.6 307.548 302.7 300.548 314.1C293.748 325.5 284.948 334.4 274.148 340.8C263.548 347 251.848 350.1 239.048 350.1ZM199.148 274.8C198.748 286.4 200.248 297.1 203.648 306.9C207.248 316.5 212.348 324.2 218.948 330C225.748 335.6 233.648 338.4 242.648 338.4C251.648 338.4 259.748 335.6 266.948 330C274.148 324.2 279.948 316.5 284.348 306.9C288.948 297.1 291.448 286.4 291.848 274.8C292.448 263.2 290.948 252.7 287.348 243.3C283.748 233.7 278.648 226.1 272.048 220.5C265.448 214.7 257.648 211.8 248.648 211.8C239.648 211.8 231.448 214.7 224.048 220.5C216.848 226.1 211.048 233.7 206.648 243.3C202.248 252.7 199.748 263.2 199.148 274.8ZM331.181 222.3C334.581 220.1 338.681 217.4 343.481 214.2C348.281 210.8 352.781 207.7 356.981 204.9C361.381 202.1 364.281 200.5 365.681 200.1C368.481 199.1 370.981 199.2 373.181 200.4C375.381 201.4 376.381 203.2 376.181 205.8L372.581 277.8C375.381 262.6 379.881 249.5 386.081 238.5C392.481 227.5 399.381 218.8 406.781 212.4C414.181 205.8 420.681 201.7 426.281 200.1C428.681 199.3 430.581 199.3 431.981 200.1C433.581 200.7 435.181 201.9 436.781 203.7C439.981 207.3 441.681 211.4 441.881 216C442.081 220.6 440.181 223.2 436.181 223.8C434.781 224 433.381 223.9 431.981 223.5C430.781 222.9 429.681 222.4 428.681 222C423.681 221.6 417.981 223.8 411.581 228.6C405.181 233.4 398.981 240.7 392.981 250.5C386.981 260.1 381.781 272 377.381 286.2C373.181 300.2 370.681 316.3 369.881 334.5C369.681 339.7 368.181 343.4 365.381 345.6C362.581 347.8 357.781 348.5 350.981 347.7L356.981 223.2C356.581 223 355.981 223 355.181 223.2C354.381 223.2 353.181 223.7 351.581 224.7C343.581 228.9 336.781 228.1 331.181 222.3ZM479.079 316.8L483.279 216.9C478.879 217.1 475.479 217.4 473.079 217.8C470.879 218 468.779 218.4 466.779 219C463.779 220 461.979 221.2 461.379 222.6C460.579 223.8 459.379 224.2 457.779 223.8C456.379 223.4 455.779 222.2 455.979 220.2L457.179 208.5C457.579 206.3 459.079 205.2 461.679 205.2H483.879L485.079 176.7C485.279 171.9 486.679 168.1 489.279 165.3C491.879 162.3 496.779 161 503.979 161.4L502.179 205.2H537.879C540.679 205.2 541.879 206.3 541.479 208.5L540.279 220.2C540.079 222.2 539.279 223.4 537.879 223.8C536.679 224.2 535.679 223.8 534.879 222.6C534.279 221.2 532.479 220 529.479 219C526.879 218 523.779 217.4 520.179 217.2C516.779 217 510.579 216.9 501.579 216.9L497.379 312C497.179 319.4 498.479 324.8 501.279 328.2C504.279 331.4 508.079 333.2 512.679 333.6C517.479 333.8 522.079 332.9 526.479 330.9C531.079 328.9 535.079 326.2 538.479 322.8C539.679 321.6 541.079 321.5 542.679 322.5C544.479 323.5 544.979 325 544.179 327C541.579 333.4 536.779 338.9 529.779 343.5C522.779 348.1 515.279 350.4 507.279 350.4C503.479 350.4 499.279 349.4 494.679 347.4C490.079 345.4 486.179 342 482.979 337.2C479.979 332.2 478.679 325.4 479.079 316.8ZM560.318 412.2C553.318 412.4 546.618 411.1 540.218 408.3C533.618 405.7 529.218 401.9 527.018 396.9C525.618 393.5 526.318 390.3 529.118 387.3C531.718 384.5 535.518 382.9 540.518 382.5C542.318 382.3 544.118 382.4 545.918 382.8C547.518 383.2 548.518 384.2 548.918 385.8C549.318 387.2 549.318 388.6 548.918 390C548.518 391.4 548.218 392.6 548.018 393.6C548.418 396 549.718 398.2 551.918 400.2C554.118 402.2 557.118 403.2 560.918 403.2C566.718 403.2 571.418 401.3 575.018 397.5C578.618 393.9 581.418 389.1 583.418 383.1C585.418 377.1 586.818 370.6 587.618 363.6C588.618 356.6 589.218 349.6 589.418 342.6C589.618 335.6 589.818 329.4 590.018 324L592.418 217.5C588.018 217.7 584.618 217.9 582.218 218.1C580.018 218.3 577.818 218.8 575.618 219.6C572.618 220.6 570.818 221.8 570.218 223.2C569.418 224.4 568.218 224.9 566.618 224.7C565.218 224.3 564.618 223.2 564.818 221.4L565.718 209.1C565.918 208.1 566.218 207.3 566.618 206.7C567.218 206.1 568.218 205.8 569.618 205.8H592.718C594.318 179.2 599.818 160 609.218 148.2C618.818 136.2 630.918 130.2 645.518 130.2C653.518 130.2 660.718 132.2 667.118 136.2C673.718 140.2 677.418 144.8 678.218 150C678.618 152.8 677.518 155.4 674.918 157.8C672.518 160 669.718 161.5 666.518 162.3C663.518 163.1 661.318 162.9 659.918 161.7C658.918 160.7 658.418 159.4 658.418 157.8C658.418 156.2 658.718 154.7 659.318 153.3C658.518 150.5 656.618 147.9 653.618 145.5C650.818 142.9 647.418 141.6 643.418 141.6C637.218 141.4 632.118 143.1 628.118 146.7C624.118 150.3 621.018 155.1 618.818 161.1C616.818 166.9 615.318 173.2 614.318 180C613.318 186.8 612.718 193.4 612.518 199.8L612.218 205.8H646.718C649.718 205.8 651.018 206.9 650.618 209.1L649.718 221.4C649.518 223.2 648.718 224.2 647.318 224.4C645.918 224.6 644.918 224.2 644.318 223.2C644.118 222.6 643.618 222 642.818 221.4C642.018 220.6 640.618 219.9 638.618 219.3C636.018 218.5 633.118 218 629.918 217.8C626.718 217.6 620.718 217.5 611.918 217.5L608.018 339.9C607.618 352.3 606.018 363.9 603.218 374.7C600.418 385.7 595.618 394.6 588.818 401.4C582.218 408.2 572.718 411.8 560.318 412.2ZM731.822 350.1C720.022 350.1 709.222 347 699.422 340.8C689.822 334.4 682.422 325.5 677.222 314.1C672.022 302.7 670.022 289.6 671.222 274.8C672.622 260 676.622 247 683.222 235.8C690.022 224.6 698.722 215.9 709.322 209.7C719.922 203.3 731.622 200.1 744.422 200.1C756.222 200.1 766.922 203.3 776.522 209.7C786.322 215.9 793.922 224.6 799.322 235.8C804.922 247 807.022 260 805.622 274.8C804.422 289.6 800.322 302.7 793.322 314.1C786.522 325.5 777.722 334.4 766.922 340.8C756.322 347 744.622 350.1 731.822 350.1ZM691.922 274.8C691.522 286.4 693.022 297.1 696.422 306.9C700.022 316.5 705.122 324.2 711.722 330C718.522 335.6 726.422 338.4 735.422 338.4C744.422 338.4 752.522 335.6 759.722 330C766.922 324.2 772.722 316.5 777.122 306.9C781.722 297.1 784.222 286.4 784.622 274.8C785.222 263.2 783.722 252.7 780.122 243.3C776.522 233.7 771.422 226.1 764.822 220.5C758.222 214.7 750.422 211.8 741.422 211.8C732.422 211.8 724.222 214.7 716.822 220.5C709.622 226.1 703.822 233.7 699.422 243.3C695.022 252.7 692.522 263.2 691.922 274.8ZM842.834 333.6L852.134 159.3C851.934 159.1 851.434 159.1 850.634 159.3C850.034 159.3 848.734 159.8 846.734 160.8C838.734 165 832.134 164.2 826.934 158.4C830.134 156.2 834.134 153.5 838.934 150.3C843.734 146.9 848.234 143.8 852.434 141C856.834 138.2 859.734 136.6 861.134 136.2C863.934 135.2 866.334 135.2 868.334 136.2C870.334 137.2 871.234 139 871.034 141.6L861.434 325.5C861.234 327.9 861.534 330.2 862.334 332.4C863.334 334.4 865.434 335.4 868.634 335.4C870.634 335.4 873.234 334.5 876.434 332.7C879.634 330.9 882.434 328.4 884.834 325.2C885.834 323.8 887.034 323.4 888.434 324C890.034 324.6 890.634 325.9 890.234 327.9C888.834 334.5 885.334 340.3 879.734 345.3C874.334 350.1 867.934 352.5 860.534 352.5C854.534 352.5 850.034 350.6 847.034 346.8C844.034 342.8 842.634 338.4 842.834 333.6ZM919.891 148.2C919.291 146.2 920.191 144.8 922.591 144C924.991 143 928.091 142.8 931.891 143.4C935.691 144 939.391 145.3 942.991 147.3C946.591 149.3 949.191 152.1 950.791 155.7C952.391 159.5 951.791 163.4 948.991 167.4C946.191 171.2 942.891 173.6 939.091 174.6C937.291 175.2 934.591 175.2 930.991 174.6C927.591 174 925.691 172 925.291 168.6C925.291 167 924.891 164.3 924.091 160.5C923.291 156.7 921.891 152.6 919.891 148.2ZM924.691 332.7L930.991 225.9C930.791 225.7 930.291 225.7 929.491 225.9C928.891 225.9 927.591 226.4 925.591 227.4C917.591 231.6 910.991 230.8 905.791 225C908.991 222.8 912.991 220.1 917.791 216.9C922.591 213.5 927.091 210.4 931.291 207.6C935.691 204.8 938.591 203.2 939.991 202.8C942.791 201.8 945.191 201.8 947.191 202.8C949.191 203.8 950.091 205.6 949.891 208.2L943.291 324.6C943.091 327 943.391 329.3 944.191 331.5C945.191 333.5 947.291 334.5 950.491 334.5C952.491 334.5 954.991 333.6 957.991 331.8C961.191 330 963.991 327.5 966.391 324.3C967.391 322.9 968.591 322.4 969.991 322.8C971.591 323.2 972.191 324.4 971.791 326.4C970.591 332.6 967.191 338.4 961.591 343.8C956.191 349 949.791 351.6 942.391 351.6C936.391 351.6 931.891 349.7 928.891 345.9C925.891 341.9 924.491 337.5 924.691 332.7ZM1054.97 350.1C1043.17 350.1 1032.37 347 1022.57 340.8C1012.97 334.4 1005.57 325.5 1000.37 314.1C995.166 302.7 993.166 289.6 994.366 274.8C995.766 260 999.766 247 1006.37 235.8C1013.17 224.6 1021.87 215.9 1032.47 209.7C1043.07 203.3 1054.77 200.1 1067.57 200.1C1079.37 200.1 1090.07 203.3 1099.67 209.7C1109.47 215.9 1117.07 224.6 1122.47 235.8C1128.07 247 1130.17 260 1128.77 274.8C1127.57 289.6 1123.47 302.7 1116.47 314.1C1109.67 325.5 1100.87 334.4 1090.07 340.8C1079.47 347 1067.77 350.1 1054.97 350.1ZM1015.07 274.8C1014.67 286.4 1016.17 297.1 1019.57 306.9C1023.17 316.5 1028.27 324.2 1034.87 330C1041.67 335.6 1049.57 338.4 1058.57 338.4C1067.57 338.4 1075.67 335.6 1082.87 330C1090.07 324.2 1095.87 316.5 1100.27 306.9C1104.87 297.1 1107.37 286.4 1107.77 274.8C1108.37 263.2 1106.87 252.7 1103.27 243.3C1099.67 233.7 1094.57 226.1 1087.97 220.5C1081.37 214.7 1073.57 211.8 1064.57 211.8C1055.57 211.8 1047.37 214.7 1039.97 220.5C1032.77 226.1 1026.97 233.7 1022.57 243.3C1018.17 252.7 1015.67 263.2 1015.07 274.8Z"/>
</mask>
<path d="M72 257.1C68.2 256.7 65.6 255.4 64.2 253.2C63 251 62.4 248.7 62.4 246.3L85.8 246.6C104.2 246.8 118.3 243.1 128.1 235.5C138.1 227.9 143.4 217.1 144 203.1C144.6 193.5 142.5 185.3 137.7 178.5C132.9 171.5 126.1 166.1 117.3 162.3C108.7 158.5 98.7 156.6 87.3 156.6H48.6C52.8 156.6 55.6 157.8 57 160.2C58.4 162.6 59.1 165.1 59.1 167.7C59.3 170.3 59.4 172 59.4 172.8L51.3 323.7C51.1 329.9 53.1 334.1 57.3 336.3C61.5 338.5 65.8 340 70.2 340.8C72.2 341 73.2 342.2 73.2 344.4C73.4 346.6 71.8 347.7 68.4 347.7H12.9C10.3 347.7 8.9 346.7 8.7 344.7C8.5 342.7 9.5 341.4 11.7 340.8C16.7 339.6 21.1 338 24.9 336C28.7 334 30.7 329.9 30.9 323.7L39 173.7C39.2 169.3 37.7 165.9 34.5 163.5C31.5 160.9 27.9 159 23.7 157.8C19.7 156.4 16.2 155.2 13.2 154.2C11.2 153.6 10.3 152.1 10.5 149.7C10.9 147.1 12.8 145.8 16.2 145.8H87.9C107.1 145.8 122.5 148.6 134.1 154.2C145.9 159.6 154.4 166.7 159.6 175.5C164.8 184.1 167.1 193.3 166.5 203.1C166.1 212.9 163.1 222 157.5 230.4C151.9 238.8 143.7 245.5 132.9 250.5C122.1 255.3 108.7 257.6 92.7 257.4L72 257.1ZM239.048 350.1C227.248 350.1 216.448 347 206.648 340.8C197.048 334.4 189.648 325.5 184.448 314.1C179.248 302.7 177.248 289.6 178.448 274.8C179.848 260 183.848 247 190.448 235.8C197.248 224.6 205.948 215.9 216.548 209.7C227.148 203.3 238.848 200.1 251.648 200.1C263.448 200.1 274.148 203.3 283.748 209.7C293.548 215.9 301.148 224.6 306.548 235.8C312.148 247 314.248 260 312.848 274.8C311.648 289.6 307.548 302.7 300.548 314.1C293.748 325.5 284.948 334.4 274.148 340.8C263.548 347 251.848 350.1 239.048 350.1ZM199.148 274.8C198.748 286.4 200.248 297.1 203.648 306.9C207.248 316.5 212.348 324.2 218.948 330C225.748 335.6 233.648 338.4 242.648 338.4C251.648 338.4 259.748 335.6 266.948 330C274.148 324.2 279.948 316.5 284.348 306.9C288.948 297.1 291.448 286.4 291.848 274.8C292.448 263.2 290.948 252.7 287.348 243.3C283.748 233.7 278.648 226.1 272.048 220.5C265.448 214.7 257.648 211.8 248.648 211.8C239.648 211.8 231.448 214.7 224.048 220.5C216.848 226.1 211.048 233.7 206.648 243.3C202.248 252.7 199.748 263.2 199.148 274.8ZM331.181 222.3C334.581 220.1 338.681 217.4 343.481 214.2C348.281 210.8 352.781 207.7 356.981 204.9C361.381 202.1 364.281 200.5 365.681 200.1C368.481 199.1 370.981 199.2 373.181 200.4C375.381 201.4 376.381 203.2 376.181 205.8L372.581 277.8C375.381 262.6 379.881 249.5 386.081 238.5C392.481 227.5 399.381 218.8 406.781 212.4C414.181 205.8 420.681 201.7 426.281 200.1C428.681 199.3 430.581 199.3 431.981 200.1C433.581 200.7 435.181 201.9 436.781 203.7C439.981 207.3 441.681 211.4 441.881 216C442.081 220.6 440.181 223.2 436.181 223.8C434.781 224 433.381 223.9 431.981 223.5C430.781 222.9 429.681 222.4 428.681 222C423.681 221.6 417.981 223.8 411.581 228.6C405.181 233.4 398.981 240.7 392.981 250.5C386.981 260.1 381.781 272 377.381 286.2C373.181 300.2 370.681 316.3 369.881 334.5C369.681 339.7 368.181 343.4 365.381 345.6C362.581 347.8 357.781 348.5 350.981 347.7L356.981 223.2C356.581 223 355.981 223 355.181 223.2C354.381 223.2 353.181 223.7 351.581 224.7C343.581 228.9 336.781 228.1 331.181 222.3ZM479.079 316.8L483.279 216.9C478.879 217.1 475.479 217.4 473.079 217.8C470.879 218 468.779 218.4 466.779 219C463.779 220 461.979 221.2 461.379 222.6C460.579 223.8 459.379 224.2 457.779 223.8C456.379 223.4 455.779 222.2 455.979 220.2L457.179 208.5C457.579 206.3 459.079 205.2 461.679 205.2H483.879L485.079 176.7C485.279 171.9 486.679 168.1 489.279 165.3C491.879 162.3 496.779 161 503.979 161.4L502.179 205.2H537.879C540.679 205.2 541.879 206.3 541.479 208.5L540.279 220.2C540.079 222.2 539.279 223.4 537.879 223.8C536.679 224.2 535.679 223.8 534.879 222.6C534.279 221.2 532.479 220 529.479 219C526.879 218 523.779 217.4 520.179 217.2C516.779 217 510.579 216.9 501.579 216.9L497.379 312C497.179 319.4 498.479 324.8 501.279 328.2C504.279 331.4 508.079 333.2 512.679 333.6C517.479 333.8 522.079 332.9 526.479 330.9C531.079 328.9 535.079 326.2 538.479 322.8C539.679 321.6 541.079 321.5 542.679 322.5C544.479 323.5 544.979 325 544.179 327C541.579 333.4 536.779 338.9 529.779 343.5C522.779 348.1 515.279 350.4 507.279 350.4C503.479 350.4 499.279 349.4 494.679 347.4C490.079 345.4 486.179 342 482.979 337.2C479.979 332.2 478.679 325.4 479.079 316.8ZM560.318 412.2C553.318 412.4 546.618 411.1 540.218 408.3C533.618 405.7 529.218 401.9 527.018 396.9C525.618 393.5 526.318 390.3 529.118 387.3C531.718 384.5 535.518 382.9 540.518 382.5C542.318 382.3 544.118 382.4 545.918 382.8C547.518 383.2 548.518 384.2 548.918 385.8C549.318 387.2 549.318 388.6 548.918 390C548.518 391.4 548.218 392.6 548.018 393.6C548.418 396 549.718 398.2 551.918 400.2C554.118 402.2 557.118 403.2 560.918 403.2C566.718 403.2 571.418 401.3 575.018 397.5C578.618 393.9 581.418 389.1 583.418 383.1C585.418 377.1 586.818 370.6 587.618 363.6C588.618 356.6 589.218 349.6 589.418 342.6C589.618 335.6 589.818 329.4 590.018 324L592.418 217.5C588.018 217.7 584.618 217.9 582.218 218.1C580.018 218.3 577.818 218.8 575.618 219.6C572.618 220.6 570.818 221.8 570.218 223.2C569.418 224.4 568.218 224.9 566.618 224.7C565.218 224.3 564.618 223.2 564.818 221.4L565.718 209.1C565.918 208.1 566.218 207.3 566.618 206.7C567.218 206.1 568.218 205.8 569.618 205.8H592.718C594.318 179.2 599.818 160 609.218 148.2C618.818 136.2 630.918 130.2 645.518 130.2C653.518 130.2 660.718 132.2 667.118 136.2C673.718 140.2 677.418 144.8 678.218 150C678.618 152.8 677.518 155.4 674.918 157.8C672.518 160 669.718 161.5 666.518 162.3C663.518 163.1 661.318 162.9 659.918 161.7C658.918 160.7 658.418 159.4 658.418 157.8C658.418 156.2 658.718 154.7 659.318 153.3C658.518 150.5 656.618 147.9 653.618 145.5C650.818 142.9 647.418 141.6 643.418 141.6C637.218 141.4 632.118 143.1 628.118 146.7C624.118 150.3 621.018 155.1 618.818 161.1C616.818 166.9 615.318 173.2 614.318 180C613.318 186.8 612.718 193.4 612.518 199.8L612.218 205.8H646.718C649.718 205.8 651.018 206.9 650.618 209.1L649.718 221.4C649.518 223.2 648.718 224.2 647.318 224.4C645.918 224.6 644.918 224.2 644.318 223.2C644.118 222.6 643.618 222 642.818 221.4C642.018 220.6 640.618 219.9 638.618 219.3C636.018 218.5 633.118 218 629.918 217.8C626.718 217.6 620.718 217.5 611.918 217.5L608.018 339.9C607.618 352.3 606.018 363.9 603.218 374.7C600.418 385.7 595.618 394.6 588.818 401.4C582.218 408.2 572.718 411.8 560.318 412.2ZM731.822 350.1C720.022 350.1 709.222 347 699.422 340.8C689.822 334.4 682.422 325.5 677.222 314.1C672.022 302.7 670.022 289.6 671.222 274.8C672.622 260 676.622 247 683.222 235.8C690.022 224.6 698.722 215.9 709.322 209.7C719.922 203.3 731.622 200.1 744.422 200.1C756.222 200.1 766.922 203.3 776.522 209.7C786.322 215.9 793.922 224.6 799.322 235.8C804.922 247 807.022 260 805.622 274.8C804.422 289.6 800.322 302.7 793.322 314.1C786.522 325.5 777.722 334.4 766.922 340.8C756.322 347 744.622 350.1 731.822 350.1ZM691.922 274.8C691.522 286.4 693.022 297.1 696.422 306.9C700.022 316.5 705.122 324.2 711.722 330C718.522 335.6 726.422 338.4 735.422 338.4C744.422 338.4 752.522 335.6 759.722 330C766.922 324.2 772.722 316.5 777.122 306.9C781.722 297.1 784.222 286.4 784.622 274.8C785.222 263.2 783.722 252.7 780.122 243.3C776.522 233.7 771.422 226.1 764.822 220.5C758.222 214.7 750.422 211.8 741.422 211.8C732.422 211.8 724.222 214.7 716.822 220.5C709.622 226.1 703.822 233.7 699.422 243.3C695.022 252.7 692.522 263.2 691.922 274.8ZM842.834 333.6L852.134 159.3C851.934 159.1 851.434 159.1 850.634 159.3C850.034 159.3 848.734 159.8 846.734 160.8C838.734 165 832.134 164.2 826.934 158.4C830.134 156.2 834.134 153.5 838.934 150.3C843.734 146.9 848.234 143.8 852.434 141C856.834 138.2 859.734 136.6 861.134 136.2C863.934 135.2 866.334 135.2 868.334 136.2C870.334 137.2 871.234 139 871.034 141.6L861.434 325.5C861.234 327.9 861.534 330.2 862.334 332.4C863.334 334.4 865.434 335.4 868.634 335.4C870.634 335.4 873.234 334.5 876.434 332.7C879.634 330.9 882.434 328.4 884.834 325.2C885.834 323.8 887.034 323.4 888.434 324C890.034 324.6 890.634 325.9 890.234 327.9C888.834 334.5 885.334 340.3 879.734 345.3C874.334 350.1 867.934 352.5 860.534 352.5C854.534 352.5 850.034 350.6 847.034 346.8C844.034 342.8 842.634 338.4 842.834 333.6ZM919.891 148.2C919.291 146.2 920.191 144.8 922.591 144C924.991 143 928.091 142.8 931.891 143.4C935.691 144 939.391 145.3 942.991 147.3C946.591 149.3 949.191 152.1 950.791 155.7C952.391 159.5 951.791 163.4 948.991 167.4C946.191 171.2 942.891 173.6 939.091 174.6C937.291 175.2 934.591 175.2 930.991 174.6C927.591 174 925.691 172 925.291 168.6C925.291 167 924.891 164.3 924.091 160.5C923.291 156.7 921.891 152.6 919.891 148.2ZM924.691 332.7L930.991 225.9C930.791 225.7 930.291 225.7 929.491 225.9C928.891 225.9 927.591 226.4 925.591 227.4C917.591 231.6 910.991 230.8 905.791 225C908.991 222.8 912.991 220.1 917.791 216.9C922.591 213.5 927.091 210.4 931.291 207.6C935.691 204.8 938.591 203.2 939.991 202.8C942.791 201.8 945.191 201.8 947.191 202.8C949.191 203.8 950.091 205.6 949.891 208.2L943.291 324.6C943.091 327 943.391 329.3 944.191 331.5C945.191 333.5 947.291 334.5 950.491 334.5C952.491 334.5 954.991 333.6 957.991 331.8C961.191 330 963.991 327.5 966.391 324.3C967.391 322.9 968.591 322.4 969.991 322.8C971.591 323.2 972.191 324.4 971.791 326.4C970.591 332.6 967.191 338.4 961.591 343.8C956.191 349 949.791 351.6 942.391 351.6C936.391 351.6 931.891 349.7 928.891 345.9C925.891 341.9 924.491 337.5 924.691 332.7ZM1054.97 350.1C1043.17 350.1 1032.37 347 1022.57 340.8C1012.97 334.4 1005.57 325.5 1000.37 314.1C995.166 302.7 993.166 289.6 994.366 274.8C995.766 260 999.766 247 1006.37 235.8C1013.17 224.6 1021.87 215.9 1032.47 209.7C1043.07 203.3 1054.77 200.1 1067.57 200.1C1079.37 200.1 1090.07 203.3 1099.67 209.7C1109.47 215.9 1117.07 224.6 1122.47 235.8C1128.07 247 1130.17 260 1128.77 274.8C1127.57 289.6 1123.47 302.7 1116.47 314.1C1109.67 325.5 1100.87 334.4 1090.07 340.8C1079.47 347 1067.77 350.1 1054.97 350.1ZM1015.07 274.8C1014.67 286.4 1016.17 297.1 1019.57 306.9C1023.17 316.5 1028.27 324.2 1034.87 330C1041.67 335.6 1049.57 338.4 1058.57 338.4C1067.57 338.4 1075.67 335.6 1082.87 330C1090.07 324.2 1095.87 316.5 1100.27 306.9C1104.87 297.1 1107.37 286.4 1107.77 274.8C1108.37 263.2 1106.87 252.7 1103.27 243.3C1099.67 233.7 1094.57 226.1 1087.97 220.5C1081.37 214.7 1073.57 211.8 1064.57 211.8C1055.57 211.8 1047.37 214.7 1039.97 220.5C1032.77 226.1 1026.97 233.7 1022.57 243.3C1018.17 252.7 1015.67 263.2 1015.07 274.8Z" fill="#F0EF9C"/>
<path d="M72 257.1L71.6859 260.084L71.8209 260.098L71.9565 260.1L72 257.1ZM64.2 253.2L61.5663 254.637L61.6147 254.725L61.669 254.811L64.2 253.2ZM62.4 246.3L62.4385 243.3L59.4 243.261V246.3H62.4ZM85.8 246.6L85.7615 249.6L85.7674 249.6L85.8 246.6ZM128.1 235.5L126.285 233.112L126.273 233.12L126.262 233.129L128.1 235.5ZM144 203.1L141.006 202.913L141.004 202.942L141.003 202.972L144 203.1ZM137.7 178.5L135.226 180.197L135.237 180.213L135.249 180.23L137.7 178.5ZM117.3 162.3L116.088 165.044L116.099 165.049L116.111 165.054L117.3 162.3ZM57 160.2L59.5913 158.688L59.5913 158.688L57 160.2ZM59.1 167.7H56.1V167.815L56.1088 167.93L59.1 167.7ZM59.4 172.8L62.3957 172.961L62.4 172.88V172.8H59.4ZM51.3 323.7L48.3043 323.539L48.3026 323.571L48.3016 323.603L51.3 323.7ZM57.3 336.3L58.692 333.643L58.692 333.643L57.3 336.3ZM70.2 340.8L69.6633 343.752L69.7817 343.773L69.9015 343.785L70.2 340.8ZM73.2 344.4H70.2V344.536L70.2123 344.672L73.2 344.4ZM8.7 344.7L11.6851 344.401L8.7 344.7ZM11.7 340.8L10.9999 337.883L10.9551 337.894L10.9106 337.906L11.7 340.8ZM24.9 336L23.5028 333.345L23.5028 333.345L24.9 336ZM30.9 323.7L27.9044 323.538L27.9026 323.571L27.9016 323.603L30.9 323.7ZM39 173.7L41.9956 173.862L41.9963 173.849L41.9969 173.836L39 173.7ZM34.5 163.5L32.5352 165.767L32.6153 165.836L32.7 165.9L34.5 163.5ZM23.7 157.8L22.7089 160.632L22.7916 160.661L22.8758 160.685L23.7 157.8ZM13.2 154.2L14.1487 151.354L14.1056 151.34L14.0621 151.327L13.2 154.2ZM10.5 149.7L7.53488 149.244L7.51902 149.347L7.51036 149.451L10.5 149.7ZM134.1 154.2L132.796 156.902L132.824 156.915L132.852 156.928L134.1 154.2ZM159.6 175.5L157.017 177.026L157.025 177.039L157.033 177.052L159.6 175.5ZM166.5 203.1L163.506 202.917L163.504 202.947L163.502 202.978L166.5 203.1ZM157.5 230.4L159.996 232.064L159.996 232.064L157.5 230.4ZM132.9 250.5L134.118 253.241L134.139 253.232L134.16 253.222L132.9 250.5ZM92.7 257.4L92.6565 260.4L92.6625 260.4L92.7 257.4ZM72.3141 254.116C68.9853 253.766 67.444 252.71 66.731 251.589L61.669 254.811C63.756 258.09 67.4147 259.634 71.6859 260.084L72.3141 254.116ZM66.8337 251.763C65.863 249.984 65.4 248.176 65.4 246.3H59.4C59.4 249.224 60.137 252.016 61.5663 254.637L66.8337 251.763ZM62.3615 249.3L85.7615 249.6L85.8385 243.6L62.4385 243.3L62.3615 249.3ZM85.7674 249.6C104.53 249.804 119.399 246.044 129.938 237.871L126.262 233.129C117.201 240.156 103.87 243.796 85.8326 243.6L85.7674 249.6ZM129.915 237.888C140.714 229.682 146.364 218.004 146.997 203.228L141.003 202.972C140.436 216.196 135.486 226.118 126.285 233.112L129.915 237.888ZM146.994 203.287C147.63 193.116 145.405 184.213 140.151 176.77L135.249 180.23C139.595 186.387 141.57 193.884 141.006 202.913L146.994 203.287ZM140.174 176.803C135.014 169.278 127.74 163.54 118.489 159.546L116.111 165.054C124.46 168.66 130.786 173.722 135.226 180.197L140.174 176.803ZM118.513 159.556C109.458 155.555 99.0307 153.6 87.3 153.6V159.6C98.3693 159.6 107.942 161.445 116.088 165.044L118.513 159.556ZM87.3 153.6H48.6V159.6H87.3V153.6ZM48.6 159.6C52.3235 159.6 53.789 160.649 54.4087 161.712L59.5913 158.688C57.411 154.951 53.2765 153.6 48.6 153.6V159.6ZM54.4087 161.712C55.5601 163.685 56.1 165.668 56.1 167.7H62.1C62.1 164.532 61.2399 161.515 59.5913 158.688L54.4087 161.712ZM56.1088 167.93C56.3109 170.556 56.4 172.137 56.4 172.8H62.4C62.4 171.863 62.2891 170.044 62.0912 167.47L56.1088 167.93ZM56.4043 172.639L48.3043 323.539L54.2957 323.861L62.3957 172.961L56.4043 172.639ZM48.3016 323.603C48.078 330.533 50.3626 336.053 55.908 338.957L58.692 333.643C55.8374 332.147 54.122 329.267 54.2984 323.797L48.3016 323.603ZM55.908 338.957C60.3604 341.29 64.9475 342.894 69.6633 343.752L70.7367 337.848C66.6525 337.106 62.6396 335.71 58.692 333.643L55.908 338.957ZM69.9015 343.785C70.1351 343.808 70.2325 343.851 70.2438 343.856C70.2484 343.858 70.2355 343.853 70.2129 343.835C70.1898 343.818 70.166 343.795 70.1453 343.771C70.0433 343.648 70.2 343.719 70.2 344.4H76.2C76.2 342.881 75.8567 341.252 74.7547 339.929C73.6185 338.566 72.0469 337.97 70.4985 337.815L69.9015 343.785ZM70.2123 344.672C70.2278 344.842 70.1928 344.809 70.2508 344.672C70.3174 344.515 70.4206 344.423 70.4504 344.403C70.4531 344.401 70.3291 344.484 69.9679 344.564C69.6106 344.642 69.0992 344.7 68.4 344.7V350.7C70.3048 350.7 72.2976 350.414 73.8496 349.347C75.6827 348.087 76.3696 346.129 76.1877 344.128L70.2123 344.672ZM68.4 344.7H12.9V350.7H68.4V344.7ZM12.9 344.7C11.924 344.7 11.635 344.503 11.6437 344.509C11.6655 344.524 11.7016 344.562 11.7221 344.601C11.7367 344.628 11.7031 344.582 11.6851 344.401L5.71489 344.999C5.8849 346.699 6.63255 348.303 8.15629 349.391C9.56497 350.397 11.276 350.7 12.9 350.7V344.7ZM11.6851 344.401C11.6627 344.178 11.6834 344.068 11.6906 344.038C11.6953 344.018 11.6926 344.035 11.6779 344.054C11.6492 344.091 11.7794 343.888 12.4894 343.694L10.9106 337.906C9.4206 338.312 7.95083 339.059 6.92213 340.396C5.85597 341.782 5.55689 343.419 5.71489 344.999L11.6851 344.401ZM12.4001 343.717C17.5965 342.47 22.2384 340.791 26.2972 338.655L23.5028 333.345C19.9616 335.209 15.8035 336.73 10.9999 337.883L12.4001 343.717ZM26.2972 338.655C31.4441 335.946 33.6808 330.544 33.8984 323.797L27.9016 323.603C27.7192 329.256 25.9559 332.054 23.5028 333.345L26.2972 338.655ZM33.8956 323.862L41.9956 173.862L36.0044 173.538L27.9044 323.538L33.8956 323.862ZM41.9969 173.836C42.2366 168.563 40.3838 164.163 36.3 161.1L32.7 165.9C35.0162 167.637 36.1634 170.037 36.0031 173.564L41.9969 173.836ZM36.4648 161.233C33.1022 158.319 29.1022 156.223 24.5242 154.915L22.8758 160.685C26.6978 161.777 29.8978 163.481 32.5352 165.767L36.4648 161.233ZM24.6911 154.968C20.6814 153.565 17.1667 152.36 14.1487 151.354L12.2513 157.046C15.2333 158.04 18.7186 159.235 22.7089 160.632L24.6911 154.968ZM14.0621 151.327C13.8315 151.257 13.715 151.187 13.6658 151.151C13.6234 151.121 13.6092 151.101 13.5975 151.082C13.5725 151.04 13.4226 150.753 13.4896 149.949L7.51036 149.451C7.37737 151.047 7.5775 152.71 8.45252 154.168C9.35915 155.68 10.7686 156.603 12.338 157.073L14.0621 151.327ZM13.4651 150.156C13.5587 149.548 13.7542 149.364 13.9191 149.251C14.1844 149.069 14.8317 148.8 16.2 148.8V142.8C14.1683 142.8 12.1656 143.181 10.5309 144.299C8.79584 145.486 7.84128 147.252 7.53488 149.244L13.4651 150.156ZM16.2 148.8H87.9V142.8H16.2V148.8ZM87.9 148.8C106.851 148.8 121.752 151.57 132.796 156.902L135.404 151.498C123.248 145.63 107.349 142.8 87.9 142.8V148.8ZM132.852 156.928C144.245 162.142 152.204 168.88 157.017 177.026L162.183 173.974C156.596 164.52 147.555 157.058 135.348 151.472L132.852 156.928ZM157.033 177.052C161.925 185.144 164.067 193.74 163.506 202.917L169.494 203.283C170.133 192.86 167.675 183.056 162.167 173.948L157.033 177.052ZM163.502 202.978C163.126 212.211 160.308 220.78 155.004 228.736L159.996 232.064C165.892 223.22 169.074 213.589 169.498 203.222L163.502 202.978ZM155.004 228.736C149.762 236.599 142.029 242.968 131.64 247.778L134.16 253.222C145.371 248.032 154.038 241.001 159.996 232.064L155.004 228.736ZM131.682 247.759C121.39 252.332 108.45 254.597 92.7375 254.4L92.6625 260.4C108.95 260.603 122.81 258.268 134.118 253.241L131.682 247.759ZM92.7435 254.4L72.0435 254.1L71.9565 260.1L92.6565 260.4L92.7435 254.4ZM206.648 340.8L204.984 343.296L205.014 343.316L205.045 343.335L206.648 340.8ZM184.448 314.1L181.719 315.345L181.719 315.345L184.448 314.1ZM178.448 274.8L175.462 274.517L175.46 274.537L175.458 274.558L178.448 274.8ZM190.448 235.8L187.884 234.243L187.874 234.26L187.864 234.277L190.448 235.8ZM216.548 209.7L218.063 212.29L218.081 212.279L218.099 212.268L216.548 209.7ZM283.748 209.7L282.084 212.196L282.114 212.216L282.145 212.235L283.748 209.7ZM306.548 235.8L303.846 237.103L303.856 237.122L303.865 237.142L306.548 235.8ZM312.848 274.8L309.862 274.517L309.86 274.537L309.858 274.558L312.848 274.8ZM300.548 314.1L297.992 312.53L297.982 312.547L297.972 312.563L300.548 314.1ZM274.148 340.8L275.663 343.39L275.67 343.385L275.678 343.381L274.148 340.8ZM199.148 274.8L196.152 274.645L196.151 274.671L196.15 274.697L199.148 274.8ZM203.648 306.9L200.814 307.883L200.826 307.918L200.839 307.953L203.648 306.9ZM218.948 330L216.968 332.253L217.004 332.285L217.041 332.316L218.948 330ZM266.948 330L268.79 332.368L268.81 332.352L268.83 332.336L266.948 330ZM284.348 306.9L281.633 305.625L281.627 305.638L281.621 305.65L284.348 306.9ZM291.848 274.8L288.852 274.645L288.851 274.671L288.85 274.697L291.848 274.8ZM287.348 243.3L284.539 244.353L284.543 244.363L284.547 244.373L287.348 243.3ZM272.048 220.5L270.068 222.753L270.088 222.771L270.108 222.788L272.048 220.5ZM224.048 220.5L225.89 222.868L225.899 222.861L224.048 220.5ZM206.648 243.3L209.366 244.572L209.371 244.561L209.376 244.55L206.648 243.3ZM239.048 347.1C227.806 347.1 217.564 344.156 208.252 338.265L205.045 343.335C215.333 349.844 226.691 353.1 239.048 353.1V347.1ZM208.313 338.304C199.217 332.24 192.167 323.792 187.178 312.855L181.719 315.345C187.13 327.208 194.88 336.56 204.984 343.296L208.313 338.304ZM187.178 312.855C182.226 302 180.272 289.427 181.439 275.042L175.458 274.558C174.225 289.773 176.27 303.4 181.719 315.345L187.178 312.855ZM181.435 275.083C182.8 260.658 186.686 248.093 193.033 237.323L187.864 234.277C181.01 245.907 176.897 259.342 175.462 274.517L181.435 275.083ZM193.013 237.357C199.572 226.554 207.922 218.221 218.063 212.29L215.034 207.11C203.975 213.579 194.925 222.646 187.884 234.243L193.013 237.357ZM218.099 212.268C228.215 206.161 239.376 203.1 251.648 203.1V197.1C238.321 197.1 226.082 200.439 214.998 207.132L218.099 212.268ZM251.648 203.1C262.87 203.1 272.989 206.133 282.084 212.196L285.413 207.204C275.308 200.467 264.026 197.1 251.648 197.1V203.1ZM282.145 212.235C291.436 218.113 298.671 226.37 303.846 237.103L309.251 234.497C303.625 222.83 295.661 213.687 285.352 207.165L282.145 212.235ZM303.865 237.142C309.17 247.752 311.219 260.171 309.862 274.517L315.835 275.083C317.278 259.829 315.127 246.248 309.232 234.458L303.865 237.142ZM309.858 274.558C308.692 288.94 304.719 301.575 297.992 312.53L303.105 315.67C310.378 303.825 314.605 290.26 315.839 275.042L309.858 274.558ZM297.972 312.563C291.413 323.559 282.964 332.089 272.619 338.219L275.678 343.381C286.933 336.711 296.084 327.441 303.125 315.637L297.972 312.563ZM272.634 338.21C262.513 344.13 251.34 347.1 239.048 347.1V353.1C252.357 353.1 264.584 349.87 275.663 343.39L272.634 338.21ZM196.15 274.697C195.739 286.622 197.28 297.695 200.814 307.883L206.483 305.917C203.217 296.505 201.758 286.178 202.147 274.903L196.15 274.697ZM200.839 307.953C204.584 317.938 209.94 326.077 216.968 332.253L220.929 327.747C214.757 322.323 209.913 315.062 206.457 305.847L200.839 307.953ZM217.041 332.316C224.391 338.368 232.969 341.4 242.648 341.4V335.4C234.328 335.4 227.106 332.832 220.856 327.684L217.041 332.316ZM242.648 341.4C252.325 341.4 261.071 338.372 268.79 332.368L265.107 327.632C258.426 332.828 250.972 335.4 242.648 335.4V341.4ZM268.83 332.336C276.441 326.206 282.51 318.112 287.076 308.15L281.621 305.65C277.387 314.888 271.856 322.194 265.066 327.664L268.83 332.336ZM287.064 308.175C291.849 297.981 294.434 286.879 294.847 274.903L288.85 274.697C288.463 285.921 286.048 296.219 281.633 305.625L287.064 308.175ZM294.844 274.955C295.463 263.001 293.921 252.074 290.15 242.227L284.547 244.373C287.976 253.326 289.434 263.399 288.852 274.645L294.844 274.955ZM290.157 242.247C286.411 232.256 281.045 224.199 273.989 218.212L270.108 222.788C276.252 228.001 281.086 235.143 284.539 244.353L290.157 242.247ZM274.029 218.247C266.867 211.953 258.358 208.8 248.648 208.8V214.8C256.939 214.8 264.03 217.447 270.068 222.753L274.029 218.247ZM248.648 208.8C238.946 208.8 230.1 211.945 222.198 218.139L225.899 222.861C232.796 217.455 240.351 214.8 248.648 214.8V208.8ZM222.207 218.132C214.57 224.072 208.49 232.081 203.921 242.05L209.376 244.55C213.606 235.319 219.127 228.128 225.89 222.868L222.207 218.132ZM203.931 242.028C199.349 251.818 196.77 262.704 196.152 274.645L202.144 274.955C202.727 263.696 205.148 253.582 209.366 244.572L203.931 242.028ZM331.181 222.3L329.551 219.781L326.491 221.761L329.023 224.384L331.181 222.3ZM343.481 214.2L345.145 216.696L345.181 216.673L345.215 216.648L343.481 214.2ZM356.981 204.9L355.371 202.369L355.344 202.386L355.317 202.404L356.981 204.9ZM365.681 200.1L366.505 202.985L366.599 202.958L366.69 202.925L365.681 200.1ZM373.181 200.4L371.745 203.034L371.84 203.086L371.94 203.131L373.181 200.4ZM376.181 205.8L373.19 205.57L373.187 205.61L373.185 205.65L376.181 205.8ZM372.581 277.8L369.585 277.65L375.532 278.343L372.581 277.8ZM386.081 238.5L383.488 236.991L383.478 237.009L383.468 237.027L386.081 238.5ZM406.781 212.4L408.744 214.669L408.761 214.654L408.778 214.639L406.781 212.4ZM426.281 200.1L427.105 202.985L427.168 202.967L427.23 202.946L426.281 200.1ZM431.981 200.1L430.493 202.705L430.702 202.824L430.928 202.909L431.981 200.1ZM436.781 203.7L439.023 201.707L439.023 201.707L436.781 203.7ZM441.881 216L444.878 215.87L444.878 215.87L441.881 216ZM436.181 223.8L436.606 226.77L436.616 226.768L436.626 226.767L436.181 223.8ZM431.981 223.5L430.64 226.183L430.889 226.308L431.157 226.385L431.981 223.5ZM428.681 222L429.795 219.215L429.373 219.046L428.92 219.01L428.681 222ZM411.581 228.6L409.781 226.2L409.781 226.2L411.581 228.6ZM392.981 250.5L395.525 252.09L395.533 252.078L395.54 252.066L392.981 250.5ZM377.381 286.2L374.516 285.312L374.512 285.325L374.508 285.338L377.381 286.2ZM369.881 334.5L366.884 334.368L366.884 334.376L366.883 334.385L369.881 334.5ZM365.381 345.6L363.528 343.241L363.528 343.241L365.381 345.6ZM350.981 347.7L347.985 347.556L347.85 350.352L350.631 350.679L350.981 347.7ZM356.981 223.2L359.978 223.344L360.072 221.391L358.323 220.517L356.981 223.2ZM355.181 223.2V226.2H355.551L355.909 226.11L355.181 223.2ZM351.581 224.7L352.976 227.356L353.076 227.304L353.171 227.244L351.581 224.7ZM332.811 224.819C336.226 222.609 340.338 219.901 345.145 216.696L341.817 211.704C337.024 214.899 332.936 217.591 329.551 219.781L332.811 224.819ZM345.215 216.648C349.996 213.262 354.472 210.178 358.645 207.396L355.317 202.404C351.09 205.222 346.567 208.338 341.747 211.752L345.215 216.648ZM358.592 207.431C360.765 206.048 362.532 204.985 363.905 204.227C365.343 203.433 366.16 203.083 366.505 202.985L364.857 197.215C363.802 197.517 362.469 198.166 361.007 198.973C359.48 199.815 357.597 200.952 355.371 202.369L358.592 207.431ZM366.69 202.925C368.849 202.154 370.436 202.32 371.745 203.034L374.618 197.766C371.527 196.08 368.113 196.046 364.672 197.275L366.69 202.925ZM371.94 203.131C372.56 203.413 372.823 203.712 372.959 203.957C373.106 204.222 373.257 204.701 373.19 205.57L379.172 206.03C379.306 204.299 379.057 202.578 378.204 201.043C377.34 199.488 376.003 198.387 374.423 197.669L371.94 203.131ZM373.185 205.65L369.585 277.65L375.578 277.95L379.178 205.95L373.185 205.65ZM375.532 278.343C378.284 263.399 382.689 250.627 388.695 239.973L383.468 237.027C377.073 248.372 372.478 261.801 369.631 277.257L375.532 278.343ZM388.674 240.009C394.955 229.214 401.657 220.798 408.744 214.669L404.819 210.131C397.105 216.802 390.008 225.786 383.488 236.991L388.674 240.009ZM408.778 214.639C416.046 208.156 422.144 204.402 427.105 202.985L425.457 197.215C419.219 198.998 412.316 203.444 404.784 210.161L408.778 214.639ZM427.23 202.946C429.275 202.264 430.167 202.519 430.493 202.705L433.47 197.495C430.995 196.081 428.087 196.336 425.333 197.254L427.23 202.946ZM430.928 202.909C431.923 203.282 433.138 204.117 434.539 205.693L439.023 201.707C437.224 199.683 435.24 198.118 433.035 197.291L430.928 202.909ZM434.539 205.693C437.304 208.803 438.716 212.253 438.884 216.13L444.878 215.87C444.647 210.547 442.659 205.797 439.023 201.707L434.539 205.693ZM438.884 216.13C438.967 218.035 438.591 219.073 438.184 219.63C437.821 220.127 437.158 220.62 435.736 220.833L436.626 226.767C439.204 226.38 441.492 225.273 443.028 223.17C444.521 221.127 444.996 218.565 444.878 215.87L438.884 216.13ZM435.757 220.83C434.787 220.969 433.812 220.903 432.805 220.615L431.157 226.385C432.95 226.897 434.776 227.031 436.606 226.77L435.757 220.83ZM433.323 220.817C432.066 220.188 430.889 219.652 429.795 219.215L427.567 224.785C428.474 225.148 429.497 225.612 430.64 226.183L433.323 220.817ZM428.92 219.01C422.865 218.525 416.437 221.208 409.781 226.2L413.381 231C419.526 226.392 424.497 224.675 428.442 224.99L428.92 219.01ZM409.781 226.2C402.976 231.304 396.541 238.94 390.423 248.934L395.54 252.066C401.421 242.46 407.386 235.496 413.381 231L409.781 226.2ZM390.437 248.91C384.265 258.785 378.97 270.937 374.516 285.312L380.247 287.088C384.593 273.063 389.697 261.415 395.525 252.09L390.437 248.91ZM374.508 285.338C370.222 299.625 367.692 315.979 366.884 334.368L372.878 334.632C373.67 316.621 376.141 300.775 380.255 287.062L374.508 285.338ZM366.883 334.385C366.701 339.121 365.364 341.798 363.528 343.241L367.235 347.959C370.998 345.002 372.661 340.279 372.879 334.615L366.883 334.385ZM363.528 343.241C361.722 344.66 357.987 345.503 351.332 344.721L350.631 350.679C357.576 351.497 363.44 350.94 367.235 347.959L363.528 343.241ZM353.978 347.844L359.978 223.344L353.985 223.056L347.985 347.556L353.978 347.844ZM358.323 220.517C356.928 219.819 355.43 220.045 354.454 220.29L355.909 226.11C356.025 226.081 356.11 226.066 356.168 226.057C356.227 226.049 356.246 226.05 356.231 226.05C356.217 226.05 355.973 226.05 355.64 225.883L358.323 220.517ZM355.181 220.2C354.214 220.2 353.293 220.487 352.527 220.806C351.725 221.14 350.874 221.604 349.991 222.156L353.171 227.244C353.888 226.796 354.437 226.51 354.835 226.344C355.27 226.163 355.348 226.2 355.181 226.2V220.2ZM350.187 222.044C346.554 223.951 343.466 224.58 340.832 224.271C338.237 223.965 335.748 222.71 333.339 220.216L329.023 224.384C332.215 227.69 335.925 229.735 340.131 230.229C344.297 230.72 348.609 229.649 352.976 227.356L350.187 222.044ZM479.079 316.8L482.076 316.939L482.076 316.926L479.079 316.8ZM483.279 216.9L486.276 217.026L486.414 213.754L483.143 213.903L483.279 216.9ZM473.079 217.8L473.351 220.788L473.462 220.778L473.572 220.759L473.079 217.8ZM466.779 219L465.917 216.127L465.873 216.14L465.83 216.154L466.779 219ZM461.379 222.6L463.875 224.264L464.028 224.035L464.136 223.782L461.379 222.6ZM457.779 223.8L456.955 226.685L457.003 226.698L457.051 226.71L457.779 223.8ZM455.979 220.2L452.995 219.894L452.994 219.901L455.979 220.2ZM457.179 208.5L454.227 207.963L454.206 208.078L454.195 208.194L457.179 208.5ZM483.879 205.2V208.2H486.755L486.876 205.326L483.879 205.2ZM485.079 176.7L488.076 176.826L488.076 176.825L485.079 176.7ZM489.279 165.3L491.477 167.341L491.512 167.304L491.546 167.265L489.279 165.3ZM503.979 161.4L506.976 161.523L507.098 158.569L504.145 158.405L503.979 161.4ZM502.179 205.2L499.181 205.077L499.053 208.2H502.179V205.2ZM541.479 208.5L538.527 207.963L538.506 208.078L538.495 208.194L541.479 208.5ZM540.279 220.2L537.295 219.894L537.294 219.901L540.279 220.2ZM537.879 223.8L537.055 220.915L536.992 220.933L536.93 220.954L537.879 223.8ZM534.879 222.6L532.121 223.782L532.23 224.035L532.383 224.264L534.879 222.6ZM529.479 219L528.402 221.8L528.466 221.824L528.53 221.846L529.479 219ZM520.179 217.2L520.003 220.195L520.013 220.195L520.179 217.2ZM501.579 216.9V213.9H498.708L498.582 216.768L501.579 216.9ZM497.379 312L494.382 311.868L494.381 311.893L494.38 311.919L497.379 312ZM501.279 328.2L498.963 330.107L499.024 330.182L499.09 330.252L501.279 328.2ZM512.679 333.6L512.419 336.589L512.486 336.595L512.554 336.597L512.679 333.6ZM526.479 330.9L525.283 328.149L525.26 328.159L525.237 328.169L526.479 330.9ZM538.479 322.8L540.6 324.921L540.6 324.921L538.479 322.8ZM542.679 322.5L541.089 325.044L541.154 325.085L541.222 325.122L542.679 322.5ZM544.179 327L546.958 328.129L546.961 328.122L546.964 328.114L544.179 327ZM529.779 343.5L531.426 346.007L529.779 343.5ZM494.679 347.4L495.875 344.649L495.875 344.649L494.679 347.4ZM482.979 337.2L480.406 338.743L480.443 338.805L480.483 338.864L482.979 337.2ZM482.076 316.926L486.276 217.026L480.282 216.774L476.082 316.674L482.076 316.926ZM483.143 213.903C478.702 214.105 475.162 214.411 472.586 214.841L473.572 220.759C475.796 220.389 479.056 220.095 483.415 219.897L483.143 213.903ZM472.807 214.812C470.419 215.029 468.12 215.466 465.917 216.127L467.641 221.873C469.438 221.334 471.339 220.971 473.351 220.788L472.807 214.812ZM465.83 216.154C464.182 216.703 462.713 217.355 461.515 218.154C460.325 218.947 459.228 220.003 458.621 221.418L464.136 223.782C464.13 223.797 464.233 223.553 464.843 223.146C465.445 222.745 466.375 222.297 467.728 221.846L465.83 216.154ZM458.883 220.936C458.833 221.011 458.811 221.023 458.83 221.007C458.853 220.989 458.89 220.967 458.93 220.954C459.013 220.926 458.918 220.993 458.507 220.89L457.051 226.71C458.239 227.007 459.545 227.074 460.828 226.646C462.148 226.206 463.159 225.338 463.875 224.264L458.883 220.936ZM458.603 220.915C458.583 220.91 458.653 220.927 458.753 221.007C458.858 221.091 458.928 221.189 458.962 221.258C458.991 221.317 458.972 221.307 458.956 221.178C458.939 221.047 458.931 220.828 458.964 220.499L452.994 219.901C452.864 221.203 452.945 222.641 453.596 223.942C454.306 225.363 455.523 226.276 456.955 226.685L458.603 220.915ZM458.963 220.506L460.163 208.806L454.195 208.194L452.995 219.894L458.963 220.506ZM460.131 209.037C460.223 208.53 460.368 208.452 460.378 208.444C460.445 208.395 460.77 208.2 461.679 208.2V202.2C459.988 202.2 458.263 202.555 456.83 203.606C455.34 204.698 454.535 206.27 454.227 207.963L460.131 209.037ZM461.679 208.2H483.879V202.2H461.679V208.2ZM486.876 205.326L488.076 176.826L482.082 176.574L480.882 205.074L486.876 205.326ZM488.076 176.825C488.254 172.549 489.478 169.494 491.477 167.341L487.081 163.259C483.88 166.706 482.303 171.251 482.082 176.575L488.076 176.825ZM491.546 167.265C493.186 165.372 496.823 164.007 503.812 164.395L504.145 158.405C496.735 157.993 490.571 159.228 487.012 163.335L491.546 167.265ZM500.981 161.277L499.181 205.077L505.176 205.323L506.976 161.523L500.981 161.277ZM502.179 208.2H537.879V202.2H502.179V208.2ZM537.879 208.2C538.397 208.2 538.715 208.253 538.883 208.299C539.047 208.344 538.985 208.359 538.852 208.236C538.784 208.174 538.717 208.093 538.661 207.998C538.606 207.903 538.577 207.819 538.563 207.763C538.539 207.661 538.575 207.701 538.527 207.963L544.431 209.037C544.739 207.342 544.534 205.306 542.906 203.814C541.472 202.499 539.532 202.2 537.879 202.2V208.2ZM538.495 208.194L537.295 219.894L543.263 220.506L544.463 208.806L538.495 208.194ZM537.294 219.901C537.224 220.595 537.075 220.873 537.033 220.936C537.018 220.959 537.023 220.945 537.052 220.924C537.081 220.903 537.091 220.905 537.055 220.915L538.703 226.685C540.08 226.291 541.226 225.463 542.025 224.264C542.783 223.127 543.133 221.805 543.264 220.498L537.294 219.901ZM536.93 220.954C536.891 220.967 536.925 220.95 537.016 220.95C537.115 220.95 537.231 220.97 537.343 221.015C537.569 221.105 537.55 221.199 537.375 220.936L532.383 224.264C533.007 225.201 533.889 226.095 535.115 226.585C536.385 227.094 537.678 227.029 538.828 226.646L536.93 220.954ZM537.636 221.418C537.03 220.003 535.933 218.947 534.743 218.154C533.545 217.355 532.075 216.703 530.428 216.154L528.53 221.846C529.882 222.297 530.813 222.745 531.415 223.146C532.025 223.553 532.128 223.797 532.121 223.782L537.636 221.418ZM530.556 216.2C527.593 215.06 524.17 214.417 520.345 214.205L520.013 220.195C523.387 220.383 526.165 220.94 528.402 221.8L530.556 216.2ZM520.355 214.205C516.855 213.999 510.573 213.9 501.579 213.9V219.9C510.585 219.9 516.702 220.001 520.003 220.195L520.355 214.205ZM498.582 216.768L494.382 311.868L500.376 312.132L504.576 217.032L498.582 216.768ZM494.38 311.919C494.173 319.588 495.479 325.876 498.963 330.107L503.595 326.293C501.479 323.724 500.185 319.212 500.378 312.081L494.38 311.919ZM499.09 330.252C502.624 334.021 507.125 336.128 512.419 336.589L512.939 330.611C509.033 330.272 505.934 328.779 503.468 326.148L499.09 330.252ZM512.554 336.597C517.827 336.817 522.895 335.825 527.72 333.631L525.237 328.169C521.263 329.975 517.131 330.783 512.804 330.603L512.554 336.597ZM527.675 333.651C532.605 331.508 536.923 328.599 540.6 324.921L536.358 320.679C533.235 323.801 529.553 326.292 525.283 328.149L527.675 333.651ZM540.6 324.921C540.71 324.812 540.765 324.786 540.758 324.79C540.744 324.797 540.699 324.813 540.643 324.817C540.523 324.826 540.645 324.766 541.089 325.044L544.269 319.956C543.113 319.234 541.735 318.724 540.215 318.833C538.652 318.944 537.356 319.68 536.358 320.679L540.6 324.921ZM541.222 325.122C541.449 325.249 541.547 325.342 541.577 325.375C541.6 325.399 541.577 325.38 541.558 325.324C541.514 325.191 541.626 325.306 541.393 325.886L546.964 328.114C547.532 326.694 547.794 325.059 547.25 323.426C546.698 321.77 545.488 320.629 544.136 319.878L541.222 325.122ZM541.4 325.871C539.073 331.597 534.733 336.655 528.131 340.993L531.426 346.007C538.825 341.145 544.085 335.203 546.958 328.129L541.4 325.871ZM528.131 340.993C521.596 345.287 514.665 347.4 507.279 347.4V353.4C515.893 353.4 523.961 350.913 531.426 346.007L528.131 340.993ZM507.279 347.4C504 347.4 500.212 346.535 495.875 344.649L493.483 350.151C498.345 352.265 502.958 353.4 507.279 353.4V347.4ZM495.875 344.649C491.88 342.912 488.404 339.93 485.475 335.536L480.483 338.864C483.953 344.07 488.278 347.888 493.483 350.151L495.875 344.649ZM485.551 335.657C482.968 331.351 481.691 325.214 482.076 316.939L476.082 316.661C475.667 325.586 476.99 333.049 480.406 338.743L485.551 335.657ZM560.318 412.2L560.404 415.199L560.415 415.198L560.318 412.2ZM540.218 408.3L541.42 405.552L541.369 405.529L541.318 405.509L540.218 408.3ZM527.018 396.9L524.244 398.042L524.258 398.075L524.272 398.108L527.018 396.9ZM529.118 387.3L531.311 389.347L531.316 389.341L529.118 387.3ZM540.518 382.5L540.757 385.49L540.803 385.487L540.849 385.482L540.518 382.5ZM545.918 382.8L546.646 379.89L546.607 379.88L546.569 379.871L545.918 382.8ZM548.918 385.8L546.008 386.528L546.02 386.576L546.033 386.624L548.918 385.8ZM548.018 393.6L545.076 393.012L544.968 393.551L545.059 394.093L548.018 393.6ZM575.018 397.5L572.897 395.379L572.868 395.407L572.84 395.437L575.018 397.5ZM583.418 383.1L580.572 382.151L580.572 382.151L583.418 383.1ZM587.618 363.6L584.648 363.176L584.642 363.217L584.637 363.259L587.618 363.6ZM590.018 324L593.016 324.111L593.017 324.089L593.017 324.068L590.018 324ZM592.418 217.5L595.417 217.568L595.49 214.357L592.282 214.503L592.418 217.5ZM582.218 218.1L581.969 215.11L581.958 215.111L581.946 215.112L582.218 218.1ZM575.618 219.6L576.567 222.446L576.605 222.433L576.643 222.419L575.618 219.6ZM570.218 223.2L572.714 224.864L572.867 224.635L572.975 224.382L570.218 223.2ZM566.618 224.7L565.794 227.585L566.016 227.648L566.246 227.677L566.618 224.7ZM564.818 221.4L567.8 221.731L567.806 221.675L567.81 221.619L564.818 221.4ZM565.718 209.1L562.776 208.512L562.74 208.695L562.726 208.881L565.718 209.1ZM566.618 206.7L564.497 204.579L564.287 204.789L564.122 205.036L566.618 206.7ZM592.718 205.8V208.8H595.543L595.713 205.98L592.718 205.8ZM609.218 148.2L606.875 146.326L606.871 146.331L609.218 148.2ZM667.118 136.2L665.528 138.744L665.545 138.755L665.563 138.766L667.118 136.2ZM678.218 150L681.188 149.576L681.186 149.56L681.183 149.544L678.218 150ZM674.918 157.8L676.945 160.011L676.953 160.004L674.918 157.8ZM666.518 162.3L665.79 159.39L665.768 159.395L665.745 159.401L666.518 162.3ZM659.918 161.7L657.797 163.821L657.878 163.903L657.966 163.978L659.918 161.7ZM659.318 153.3L662.075 154.482L662.496 153.501L662.203 152.476L659.318 153.3ZM653.618 145.5L651.577 147.698L651.658 147.774L651.744 147.843L653.618 145.5ZM643.418 141.6L643.321 144.598L643.37 144.6H643.418V141.6ZM628.118 146.7L630.125 148.93L630.125 148.93L628.118 146.7ZM618.818 161.1L616.001 160.067L615.991 160.095L615.982 160.122L618.818 161.1ZM614.318 180L617.286 180.436L617.286 180.436L614.318 180ZM612.518 199.8L615.514 199.95L615.516 199.922L615.517 199.894L612.518 199.8ZM612.218 205.8L609.222 205.65L609.064 208.8H612.218V205.8ZM650.618 209.1L647.666 208.563L647.638 208.721L647.626 208.881L650.618 209.1ZM649.718 221.4L652.7 221.731L652.706 221.675L652.71 221.619L649.718 221.4ZM647.318 224.4L646.894 221.43L646.894 221.43L647.318 224.4ZM644.318 223.2L641.472 224.149L641.576 224.461L641.745 224.743L644.318 223.2ZM642.818 221.4L640.697 223.521L640.847 223.672L641.018 223.8L642.818 221.4ZM638.618 219.3L637.736 222.167L637.746 222.17L637.756 222.173L638.618 219.3ZM629.918 217.8L629.731 220.794L629.731 220.794L629.918 217.8ZM611.918 217.5V214.5H609.012L608.919 217.404L611.918 217.5ZM608.018 339.9L611.016 339.997L611.016 339.996L608.018 339.9ZM603.218 374.7L600.314 373.947L600.311 373.96L603.218 374.7ZM588.818 401.4L586.697 399.279L586.681 399.295L586.665 399.311L588.818 401.4ZM560.232 409.201C553.674 409.389 547.414 408.174 541.42 405.552L539.016 411.048C545.822 414.026 552.962 415.411 560.404 415.199L560.232 409.201ZM541.318 405.509C535.225 403.109 531.558 399.77 529.764 395.692L524.272 398.108C526.878 404.03 532.011 408.291 539.118 411.091L541.318 405.509ZM529.792 395.758C529.295 394.55 529.22 393.523 529.424 392.591C529.633 391.635 530.187 390.552 531.311 389.347L526.925 385.253C525.249 387.048 524.053 389.065 523.562 391.309C523.066 393.577 523.341 395.85 524.244 398.042L529.792 395.758ZM531.316 389.341C533.262 387.246 536.266 385.85 540.757 385.49L540.279 379.51C534.77 379.95 530.174 381.754 526.92 385.259L531.316 389.341ZM540.849 385.482C542.315 385.319 543.783 385.399 545.267 385.729L546.569 379.871C544.452 379.401 542.321 379.281 540.187 379.518L540.849 385.482ZM545.19 385.71C545.552 385.801 545.691 385.916 545.747 385.971C545.802 386.027 545.917 386.166 546.008 386.528L551.828 385.072C551.519 383.834 550.934 382.673 549.989 381.729C549.045 380.784 547.884 380.199 546.646 379.89L545.19 385.71ZM546.033 386.624C546.279 387.485 546.279 388.315 546.033 389.176L551.803 390.824C552.356 388.885 552.356 386.915 551.803 384.976L546.033 386.624ZM546.033 389.176C545.62 390.624 545.297 391.907 545.076 393.012L550.96 394.188C551.139 393.293 551.416 392.176 551.803 390.824L546.033 389.176ZM545.059 394.093C545.593 397.296 547.315 400.07 549.9 402.42L553.936 397.98C552.121 396.33 551.243 394.704 550.977 393.107L545.059 394.093ZM549.9 402.42C552.793 405.05 556.586 406.2 560.918 406.2V400.2C557.65 400.2 555.443 399.35 553.936 397.98L549.9 402.42ZM560.918 406.2C567.443 406.2 572.965 404.029 577.196 399.563L572.84 395.437C569.871 398.571 565.993 400.2 560.918 400.2V406.2ZM577.139 399.621C581.139 395.622 584.152 390.386 586.264 384.049L580.572 382.151C578.684 387.814 576.097 392.178 572.897 395.379L577.139 399.621ZM586.264 384.049C588.337 377.83 589.778 371.124 590.599 363.941L584.637 363.259C583.858 370.076 582.499 376.37 580.572 382.151L586.264 384.049ZM590.588 364.024C591.604 356.913 592.213 349.8 592.417 342.686L586.419 342.514C586.222 349.4 585.632 356.287 584.648 363.176L590.588 364.024ZM592.417 342.686C592.617 335.692 592.816 329.501 593.016 324.111L587.02 323.889C586.82 329.299 586.619 335.508 586.419 342.514L592.417 342.686ZM593.017 324.068L595.417 217.568L589.419 217.432L587.019 323.932L593.017 324.068ZM592.282 214.503C587.869 214.704 584.425 214.906 581.969 215.11L582.467 221.09C584.811 220.894 588.167 220.696 592.554 220.497L592.282 214.503ZM581.946 215.112C579.474 215.337 577.021 215.898 574.593 216.781L576.643 222.419C578.615 221.702 580.562 221.263 582.49 221.088L581.946 215.112ZM574.669 216.754C573.021 217.303 571.552 217.955 570.354 218.754C569.164 219.547 568.067 220.603 567.461 222.018L572.975 224.382C572.969 224.397 573.072 224.153 573.682 223.746C574.284 223.345 575.214 222.897 576.567 222.446L574.669 216.754ZM567.722 221.536C567.661 221.627 567.618 221.668 567.6 221.683C567.584 221.696 567.575 221.701 567.564 221.706C567.549 221.712 567.395 221.774 566.99 221.723L566.246 227.677C567.441 227.826 568.687 227.738 569.872 227.244C571.078 226.742 572.023 225.901 572.714 224.864L567.722 221.536ZM567.442 221.815C567.387 221.8 567.431 221.804 567.518 221.869C567.561 221.901 567.606 221.942 567.65 221.992C567.693 222.042 567.727 222.093 567.752 222.138C567.802 222.231 567.798 222.271 567.79 222.209C567.781 222.142 567.771 221.99 567.8 221.731L561.836 221.069C561.697 222.319 561.785 223.73 562.484 225.012C563.232 226.382 564.457 227.203 565.794 227.585L567.442 221.815ZM567.81 221.619L568.71 209.319L562.726 208.881L561.826 221.181L567.81 221.619ZM568.66 209.688C568.812 208.925 569.002 208.533 569.114 208.364L564.122 205.036C563.434 206.067 563.024 207.275 562.776 208.512L568.66 209.688ZM568.739 208.821C568.616 208.944 568.547 208.938 568.68 208.898C568.824 208.855 569.117 208.8 569.618 208.8V202.8C567.913 202.8 565.931 203.144 564.497 204.579L568.739 208.821ZM569.618 208.8H592.718V202.8H569.618V208.8ZM595.713 205.98C597.301 179.58 602.746 161.14 611.564 150.069L606.871 146.331C596.89 158.86 591.335 178.82 589.723 205.62L595.713 205.98ZM611.561 150.074C620.626 138.743 631.883 133.2 645.518 133.2V127.2C629.953 127.2 617.01 133.657 606.875 146.326L611.561 150.074ZM645.518 133.2C652.991 133.2 659.634 135.06 665.528 138.744L668.708 133.656C661.802 129.34 654.045 127.2 645.518 127.2V133.2ZM665.563 138.766C671.768 142.526 674.641 146.481 675.253 150.456L681.183 149.544C680.195 143.119 675.668 137.874 668.673 133.634L665.563 138.766ZM675.248 150.424C675.473 152.001 674.963 153.676 672.883 155.596L676.953 160.004C680.073 157.124 681.763 153.599 681.188 149.576L675.248 150.424ZM672.891 155.589C670.864 157.446 668.512 158.709 665.79 159.39L667.246 165.21C670.924 164.291 674.172 162.554 676.945 160.011L672.891 155.589ZM665.745 159.401C663.046 160.121 662.121 159.637 661.87 159.422L657.966 163.978C660.515 166.163 663.99 166.079 667.291 165.199L665.745 159.401ZM662.039 159.579C661.678 159.217 661.418 158.718 661.418 157.8H655.418C655.418 160.082 656.158 162.183 657.797 163.821L662.039 159.579ZM661.418 157.8C661.418 156.585 661.643 155.49 662.075 154.482L656.561 152.118C655.792 153.91 655.418 155.815 655.418 157.8H661.418ZM662.203 152.476C661.184 148.912 658.825 145.823 655.492 143.157L651.744 147.843C654.411 149.977 655.852 152.088 656.433 154.124L662.203 152.476ZM655.659 143.302C652.276 140.16 648.136 138.6 643.418 138.6V144.6C646.7 144.6 649.359 145.64 651.577 147.698L655.659 143.302ZM643.515 138.602C636.668 138.381 630.775 140.273 626.111 144.47L630.125 148.93C633.461 145.927 637.768 144.419 643.321 144.598L643.515 138.602ZM626.111 144.47C621.685 148.453 618.338 153.694 616.001 160.067L621.635 162.133C623.698 156.506 626.551 152.147 630.125 148.93L626.111 144.47ZM615.982 160.122C613.914 166.118 612.374 172.601 611.35 179.564L617.286 180.436C618.262 173.799 619.722 167.682 621.654 162.078L615.982 160.122ZM611.35 179.564C610.334 186.469 609.723 193.184 609.519 199.706L615.517 199.894C615.713 193.616 616.302 187.131 617.286 180.436L611.35 179.564ZM609.522 199.65L609.222 205.65L615.214 205.95L615.514 199.95L609.522 199.65ZM612.218 208.8H646.718V202.8H612.218V208.8ZM646.718 208.8C647.299 208.8 647.679 208.855 647.906 208.913C648.132 208.97 648.115 209.008 648.005 208.915C647.947 208.866 647.88 208.794 647.82 208.7C647.76 208.605 647.724 208.515 647.705 208.446C647.669 208.314 647.71 208.324 647.666 208.563L653.57 209.637C653.893 207.859 653.607 205.795 651.881 204.335C650.407 203.088 648.44 202.8 646.718 202.8V208.8ZM647.626 208.881L646.726 221.181L652.71 221.619L653.61 209.319L647.626 208.881ZM646.736 221.069C646.707 221.336 646.662 221.501 646.63 221.591C646.599 221.677 646.587 221.674 646.625 221.626C646.668 221.572 646.737 221.511 646.819 221.466C646.896 221.424 646.934 221.424 646.894 221.43L647.742 227.37C649.112 227.174 650.382 226.534 651.311 225.374C652.183 224.283 652.562 222.973 652.7 221.731L646.736 221.069ZM646.894 221.43C646.556 221.478 646.515 221.418 646.632 221.465C646.693 221.489 646.76 221.528 646.818 221.58C646.875 221.629 646.895 221.665 646.89 221.657L641.745 224.743C642.353 225.756 643.244 226.571 644.404 227.035C645.521 227.482 646.68 227.522 647.742 227.37L646.894 221.43ZM647.164 222.251C646.689 220.825 645.644 219.77 644.618 219L641.018 223.8C641.281 223.997 641.422 224.141 641.488 224.221C641.553 224.298 641.514 224.276 641.472 224.149L647.164 222.251ZM644.939 219.279C643.603 217.942 641.617 217.067 639.48 216.427L637.756 222.173C639.619 222.733 640.433 223.258 640.697 223.521L644.939 219.279ZM639.5 216.433C636.638 215.552 633.5 215.018 630.105 214.806L629.731 220.794C632.736 220.982 635.398 221.448 637.736 222.167L639.5 216.433ZM630.105 214.806C626.798 214.599 620.709 214.5 611.918 214.5V220.5C620.727 220.5 626.638 220.601 629.731 220.794L630.105 214.806ZM608.919 217.404L605.019 339.804L611.016 339.996L614.916 217.596L608.919 217.404ZM605.02 339.803C604.626 352.006 603.053 363.384 600.314 373.947L606.122 375.453C608.983 364.416 610.61 352.594 611.016 339.997L605.02 339.803ZM600.311 373.96C597.62 384.532 593.051 392.924 586.697 399.279L590.939 403.521C598.185 396.276 603.216 386.868 606.125 375.44L600.311 373.96ZM586.665 399.311C580.758 405.396 572.093 408.819 560.221 409.202L560.415 415.198C573.343 414.781 583.678 411.004 590.971 403.489L586.665 399.311ZM699.422 340.8L697.758 343.296L697.788 343.316L697.818 343.335L699.422 340.8ZM677.222 314.1L674.492 315.345L674.492 315.345L677.222 314.1ZM671.222 274.8L668.235 274.517L668.233 274.537L668.232 274.558L671.222 274.8ZM683.222 235.8L680.658 234.243L680.647 234.26L680.637 234.277L683.222 235.8ZM709.322 209.7L710.837 212.29L710.855 212.279L710.872 212.268L709.322 209.7ZM776.522 209.7L774.858 212.196L774.888 212.216L774.918 212.235L776.522 209.7ZM799.322 235.8L796.62 237.103L796.629 237.122L796.639 237.142L799.322 235.8ZM805.622 274.8L802.635 274.517L802.633 274.537L802.632 274.558L805.622 274.8ZM793.322 314.1L790.765 312.53L790.755 312.547L790.745 312.563L793.322 314.1ZM766.922 340.8L768.437 343.39L768.444 343.385L768.451 343.381L766.922 340.8ZM691.922 274.8L688.926 274.645L688.925 274.671L688.924 274.697L691.922 274.8ZM696.422 306.9L693.588 307.883L693.6 307.918L693.613 307.953L696.422 306.9ZM711.722 330L709.742 332.253L709.778 332.285L709.815 332.316L711.722 330ZM759.722 330L761.564 332.368L761.584 332.352L761.604 332.336L759.722 330ZM777.122 306.9L774.406 305.625L774.4 305.638L774.395 305.65L777.122 306.9ZM784.622 274.8L781.626 274.645L781.625 274.671L781.624 274.697L784.622 274.8ZM780.122 243.3L777.313 244.353L777.317 244.363L777.32 244.373L780.122 243.3ZM764.822 220.5L762.842 222.753L762.861 222.771L762.881 222.788L764.822 220.5ZM716.822 220.5L718.664 222.868L718.673 222.861L716.822 220.5ZM699.422 243.3L702.139 244.572L702.144 244.561L702.149 244.55L699.422 243.3ZM731.822 347.1C720.579 347.1 710.337 344.156 701.026 338.265L697.818 343.335C708.107 349.844 719.465 353.1 731.822 353.1V347.1ZM701.086 338.304C691.99 332.24 684.94 323.792 679.951 312.855L674.492 315.345C679.903 327.208 687.653 336.56 697.758 343.296L701.086 338.304ZM679.951 312.855C675 302 673.046 289.427 674.212 275.042L668.232 274.558C666.998 289.773 669.044 303.4 674.492 315.345L679.951 312.855ZM674.209 275.083C675.573 260.658 679.46 248.093 685.806 237.323L680.637 234.277C673.784 245.907 669.671 259.342 668.235 274.517L674.209 275.083ZM685.786 237.357C692.345 226.554 700.696 218.221 710.837 212.29L707.807 207.11C696.748 213.579 687.698 222.646 680.658 234.243L685.786 237.357ZM710.872 212.268C720.988 206.161 732.149 203.1 744.422 203.1V197.1C731.095 197.1 718.855 200.439 707.771 207.132L710.872 212.268ZM744.422 203.1C755.644 203.1 765.762 206.133 774.858 212.196L778.186 207.204C768.081 200.467 756.8 197.1 744.422 197.1V203.1ZM774.918 212.235C784.209 218.113 791.445 226.37 796.62 237.103L802.024 234.497C796.399 222.83 788.434 213.687 778.126 207.165L774.918 212.235ZM796.639 237.142C801.944 247.752 803.992 260.171 802.635 274.517L808.609 275.083C810.051 259.829 807.9 246.248 802.005 234.458L796.639 237.142ZM802.632 274.558C801.466 288.94 797.492 301.575 790.765 312.53L795.878 315.67C803.151 303.825 807.378 290.26 808.612 275.042L802.632 274.558ZM790.745 312.563C784.187 323.559 775.737 332.089 765.392 338.219L768.451 343.381C779.707 336.711 788.857 327.441 795.898 315.637L790.745 312.563ZM765.407 338.21C755.287 344.13 744.113 347.1 731.822 347.1V353.1C745.131 353.1 757.357 349.87 768.437 343.39L765.407 338.21ZM688.924 274.697C688.512 286.622 690.053 297.695 693.588 307.883L699.256 305.917C695.991 296.505 694.531 286.178 694.92 274.903L688.924 274.697ZM693.613 307.953C697.357 317.938 702.713 326.077 709.742 332.253L713.702 327.747C707.53 322.323 702.687 315.062 699.231 305.847L693.613 307.953ZM709.815 332.316C717.164 338.368 725.742 341.4 735.422 341.4V335.4C727.101 335.4 719.879 332.832 713.629 327.684L709.815 332.316ZM735.422 341.4C745.099 341.4 753.845 338.372 761.564 332.368L757.88 327.632C751.199 332.828 743.745 335.4 735.422 335.4V341.4ZM761.604 332.336C769.214 326.206 775.283 318.112 779.849 308.15L774.395 305.65C770.161 314.888 764.629 322.194 757.84 327.664L761.604 332.336ZM779.838 308.175C784.622 297.981 787.207 286.879 787.62 274.903L781.624 274.697C781.237 285.921 778.822 296.219 774.406 305.625L779.838 308.175ZM787.618 274.955C788.236 263.001 786.695 252.074 782.923 242.227L777.32 244.373C780.749 253.326 782.208 263.399 781.626 274.645L787.618 274.955ZM782.931 242.247C779.185 232.256 773.819 224.199 766.763 218.212L762.881 222.788C769.025 228.001 773.859 235.143 777.313 244.353L782.931 242.247ZM766.802 218.247C759.64 211.953 751.131 208.8 741.422 208.8V214.8C749.712 214.8 756.803 217.447 762.842 222.753L766.802 218.247ZM741.422 208.8C731.719 208.8 722.874 211.945 714.971 218.139L718.673 222.861C725.57 217.455 733.124 214.8 741.422 214.8V208.8ZM714.98 218.132C707.343 224.072 701.264 232.081 696.695 242.05L702.149 244.55C706.38 235.319 711.9 228.128 718.664 222.868L714.98 218.132ZM696.705 242.028C692.122 251.818 689.544 262.704 688.926 274.645L694.918 274.955C695.5 263.696 697.922 253.582 702.139 244.572L696.705 242.028ZM842.834 333.6L839.838 333.44L839.837 333.458L839.836 333.475L842.834 333.6ZM852.134 159.3L855.129 159.46L855.201 158.124L854.255 157.179L852.134 159.3ZM850.634 159.3V162.3H851.003L851.361 162.21L850.634 159.3ZM846.734 160.8L845.392 158.117L845.365 158.13L845.339 158.144L846.734 160.8ZM826.934 158.4L825.234 155.928L822.422 157.861L824.7 160.403L826.934 158.4ZM838.934 150.3L840.598 152.796L840.633 152.773L840.668 152.748L838.934 150.3ZM852.434 141L850.823 138.469L850.796 138.486L850.769 138.504L852.434 141ZM861.134 136.2L861.958 139.085L862.051 139.058L862.143 139.025L861.134 136.2ZM868.334 136.2L866.992 138.883L866.992 138.883L868.334 136.2ZM871.034 141.6L868.042 141.37L868.04 141.407L868.038 141.444L871.034 141.6ZM861.434 325.5L864.423 325.749L864.427 325.703L864.43 325.656L861.434 325.5ZM862.334 332.4L859.514 333.425L859.573 333.587L859.65 333.742L862.334 332.4ZM884.834 325.2L887.234 327L887.255 326.972L887.275 326.944L884.834 325.2ZM888.434 324L887.252 326.757L887.315 326.785L887.38 326.809L888.434 324ZM890.234 327.9L893.168 328.523L893.172 328.505L893.175 328.488L890.234 327.9ZM879.734 345.3L881.727 347.542L881.732 347.538L879.734 345.3ZM847.034 346.8L844.634 348.6L844.656 348.63L844.679 348.659L847.034 346.8ZM845.829 333.76L855.129 159.46L849.138 159.14L839.838 333.44L845.829 333.76ZM854.255 157.179C853.291 156.215 852.092 156.15 851.609 156.15C851.007 156.15 850.412 156.263 849.906 156.39L851.361 162.21C851.656 162.137 851.711 162.15 851.609 162.15C851.551 162.15 851.363 162.146 851.103 162.072C850.838 161.996 850.412 161.821 850.012 161.421L854.255 157.179ZM850.634 156.3C849.725 156.3 848.79 156.622 848.132 156.875C847.355 157.174 846.433 157.596 845.392 158.117L848.075 163.483C849.034 163.004 849.763 162.676 850.286 162.475C850.547 162.375 850.718 162.321 850.816 162.295C850.941 162.262 850.852 162.3 850.634 162.3V156.3ZM845.339 158.144C841.689 160.06 838.658 160.676 836.145 160.372C833.687 160.074 831.37 158.854 829.167 156.397L824.7 160.403C827.697 163.746 831.28 165.826 835.423 166.328C839.509 166.824 843.778 165.74 848.128 163.456L845.339 158.144ZM828.633 160.872C831.817 158.683 835.804 155.992 840.598 152.796L837.269 147.804C832.463 151.008 828.45 153.717 825.234 155.928L828.633 160.872ZM840.668 152.748C845.448 149.362 849.925 146.278 854.098 143.496L850.769 138.504C846.542 141.322 842.019 144.438 837.2 147.852L840.668 152.748ZM854.044 143.531C856.218 142.148 857.984 141.084 859.358 140.327C860.796 139.533 861.613 139.183 861.958 139.085L860.309 133.315C859.255 133.617 857.922 134.266 856.459 135.073C854.933 135.915 853.05 137.052 850.823 138.469L854.044 143.531ZM862.143 139.025C864.437 138.206 865.941 138.358 866.992 138.883L869.675 133.517C866.726 132.042 863.43 132.194 860.125 133.375L862.143 139.025ZM866.992 138.883C867.479 139.127 867.698 139.387 867.825 139.642C867.97 139.931 868.113 140.455 868.042 141.37L874.025 141.83C874.154 140.145 873.947 138.469 873.192 136.958C872.419 135.413 871.188 134.273 869.675 133.517L866.992 138.883ZM868.038 141.444L858.438 325.344L864.43 325.656L874.03 141.756L868.038 141.444ZM858.444 325.251C858.209 328.07 858.562 330.806 859.514 333.425L865.153 331.375C864.505 329.594 864.258 327.73 864.423 325.749L858.444 325.251ZM859.65 333.742C861.367 337.176 864.855 338.4 868.634 338.4V332.4C866.012 332.4 865.3 331.624 865.017 331.058L859.65 333.742ZM868.634 338.4C871.42 338.4 874.574 337.188 877.904 335.315L874.963 330.085C871.894 331.812 869.847 332.4 868.634 332.4V338.4ZM877.904 335.315C881.499 333.293 884.606 330.503 887.234 327L882.434 323.4C880.261 326.297 877.768 328.507 874.963 330.085L877.904 335.315ZM887.275 326.944C887.402 326.766 887.489 326.686 887.521 326.659C887.548 326.637 887.519 326.667 887.432 326.696C887.391 326.71 887.346 326.72 887.3 326.726C887.255 326.731 887.217 326.731 887.191 326.729C887.138 326.725 887.154 326.716 887.252 326.757L889.615 321.243C888.385 320.715 886.968 320.526 885.535 321.004C884.151 321.465 883.131 322.423 882.392 323.456L887.275 326.944ZM887.38 326.809C887.505 326.856 887.521 326.883 887.485 326.852C887.442 326.814 887.392 326.751 887.36 326.682C887.331 326.62 887.346 326.616 887.352 326.713C887.358 326.816 887.353 327.008 887.292 327.312L893.175 328.488C893.449 327.121 893.465 325.593 892.807 324.168C892.114 322.665 890.873 321.711 889.487 321.191L887.38 326.809ZM887.299 327.277C886.046 333.183 882.916 338.437 877.736 343.062L881.732 347.538C887.751 342.163 891.621 335.817 893.168 328.523L887.299 327.277ZM877.741 343.058C872.904 347.357 867.218 349.5 860.534 349.5V355.5C868.649 355.5 875.763 352.843 881.727 347.542L877.741 343.058ZM860.534 349.5C855.21 349.5 851.684 347.85 849.388 344.941L844.679 348.659C848.383 353.35 853.858 355.5 860.534 355.5V349.5ZM849.434 345C846.83 341.529 845.661 337.804 845.831 333.725L839.836 333.475C839.606 338.996 841.237 344.071 844.634 348.6L849.434 345ZM919.891 148.2L917.018 149.062L917.076 149.257L917.16 149.441L919.891 148.2ZM922.591 144L923.54 146.846L923.644 146.811L923.745 146.769L922.591 144ZM931.891 143.4L931.424 146.363L931.424 146.363L931.891 143.4ZM942.991 147.3L941.534 149.922L941.534 149.922L942.991 147.3ZM950.791 155.7L953.556 154.536L953.545 154.509L953.533 154.482L950.791 155.7ZM948.991 167.4L951.407 169.18L951.428 169.15L951.449 169.12L948.991 167.4ZM939.091 174.6L938.328 171.699L938.234 171.723L938.143 171.754L939.091 174.6ZM930.991 174.6L930.47 177.554L930.484 177.557L930.498 177.559L930.991 174.6ZM925.291 168.6H922.291V168.776L922.312 168.951L925.291 168.6ZM924.091 160.5L921.156 161.118L921.156 161.118L924.091 160.5ZM924.691 332.7L921.697 332.523L921.695 332.549L921.694 332.575L924.691 332.7ZM930.991 225.9L933.986 226.077L934.066 224.732L933.113 223.779L930.991 225.9ZM929.491 225.9V228.9H929.861L930.219 228.81L929.491 225.9ZM925.591 227.4L924.25 224.717L924.223 224.73L924.197 224.744L925.591 227.4ZM905.791 225L904.092 222.528L901.279 224.461L903.558 227.003L905.791 225ZM917.791 216.9L919.456 219.396L919.491 219.373L919.525 219.348L917.791 216.9ZM931.291 207.6L929.681 205.069L929.654 205.086L929.627 205.104L931.291 207.6ZM939.991 202.8L940.816 205.685L940.909 205.658L941 205.625L939.991 202.8ZM947.191 202.8L945.85 205.483L945.85 205.483L947.191 202.8ZM949.891 208.2L946.9 207.97L946.898 208L946.896 208.03L949.891 208.2ZM943.291 324.6L946.281 324.849L946.284 324.81L946.287 324.77L943.291 324.6ZM944.191 331.5L941.372 332.525L941.431 332.687L941.508 332.842L944.191 331.5ZM957.991 331.8L956.521 329.185L956.484 329.206L956.448 329.228L957.991 331.8ZM966.391 324.3L968.791 326.1L968.812 326.072L968.833 326.044L966.391 324.3ZM969.991 322.8L969.167 325.685L969.215 325.698L969.264 325.71L969.991 322.8ZM971.791 326.4L968.85 325.812L968.848 325.821L968.846 325.83L971.791 326.4ZM961.591 343.8L963.672 345.961L963.674 345.96L961.591 343.8ZM928.891 345.9L926.491 347.7L926.514 347.73L926.537 347.759L928.891 345.9ZM922.765 147.338C922.701 147.123 922.714 147.048 922.711 147.076C922.707 147.122 922.684 147.203 922.64 147.272C922.603 147.33 922.603 147.298 922.737 147.209C922.876 147.116 923.127 146.984 923.54 146.846L921.643 141.154C920.116 141.663 918.562 142.52 917.593 144.028C916.552 145.646 916.535 147.454 917.018 149.062L922.765 147.338ZM923.745 146.769C925.444 146.062 927.926 145.811 931.424 146.363L932.359 140.437C928.257 139.789 924.539 139.938 921.438 141.231L923.745 146.769ZM931.424 146.363C934.853 146.905 938.22 148.081 941.534 149.922L944.448 144.678C940.563 142.519 936.53 141.095 932.359 140.437L931.424 146.363ZM941.534 149.922C944.593 151.622 946.727 153.942 948.05 156.918L953.533 154.482C951.656 150.258 948.59 146.978 944.448 144.678L941.534 149.922ZM948.027 156.864C949.147 159.526 948.869 162.343 946.534 165.68L951.449 169.12C954.713 164.457 955.636 159.474 953.556 154.536L948.027 156.864ZM946.576 165.62C944.098 168.984 941.339 170.906 938.328 171.699L939.855 177.501C944.444 176.294 948.285 173.416 951.407 169.18L946.576 165.62ZM938.143 171.754C937.065 172.113 934.97 172.222 931.485 171.641L930.498 177.559C934.213 178.178 937.518 178.287 940.04 177.446L938.143 171.754ZM931.513 171.646C930.284 171.429 929.599 171.012 929.191 170.584C928.786 170.157 928.414 169.463 928.271 168.249L922.312 168.951C922.569 171.136 923.347 173.143 924.841 174.716C926.334 176.288 928.299 177.171 930.47 177.554L931.513 171.646ZM928.291 168.6C928.291 166.654 927.826 163.679 927.027 159.882L921.156 161.118C921.956 164.921 922.291 167.346 922.291 168.6H928.291ZM927.027 159.882C926.172 155.823 924.692 151.512 922.623 146.959L917.16 149.441C919.091 153.688 920.41 157.577 921.156 161.118L927.027 159.882ZM927.686 332.877L933.986 226.077L927.997 225.723L921.697 332.523L927.686 332.877ZM933.113 223.779C932.149 222.815 930.95 222.75 930.466 222.75C929.864 222.75 929.269 222.863 928.764 222.99L930.219 228.81C930.513 228.737 930.568 228.75 930.466 228.75C930.409 228.75 930.22 228.746 929.961 228.672C929.695 228.596 929.27 228.421 928.87 228.021L933.113 223.779ZM929.491 222.9C928.583 222.9 927.648 223.222 926.989 223.475C926.212 223.774 925.291 224.196 924.25 224.717L926.933 230.083C927.892 229.604 928.62 229.276 929.143 229.075C929.404 228.975 929.576 228.921 929.674 228.895C929.799 228.862 929.71 228.9 929.491 228.9V222.9ZM924.197 224.744C920.547 226.66 917.516 227.276 915.002 226.972C912.545 226.674 910.228 225.454 908.025 222.997L903.558 227.003C906.555 230.346 910.138 232.426 914.28 232.928C918.367 233.424 922.636 232.34 926.986 230.056L924.197 224.744ZM907.491 227.472C910.675 225.283 914.662 222.592 919.456 219.396L916.127 214.404C911.321 217.608 907.308 220.317 904.092 222.528L907.491 227.472ZM919.525 219.348C924.306 215.962 928.783 212.878 932.956 210.096L929.627 205.104C925.4 207.922 920.877 211.038 916.057 214.452L919.525 219.348ZM932.902 210.131C935.075 208.748 936.842 207.685 938.216 206.927C939.653 206.133 940.47 205.783 940.816 205.685L939.167 199.915C938.112 200.217 936.779 200.866 935.317 201.673C933.791 202.515 931.907 203.652 929.681 205.069L932.902 210.131ZM941 205.625C943.295 204.806 944.799 204.958 945.85 205.483L948.533 200.117C945.584 198.642 942.288 198.794 938.982 199.975L941 205.625ZM945.85 205.483C946.337 205.727 946.556 205.987 946.683 206.242C946.828 206.531 946.971 207.055 946.9 207.97L952.883 208.43C953.012 206.745 952.805 205.069 952.05 203.558C951.277 202.013 950.046 200.873 948.533 200.117L945.85 205.483ZM946.896 208.03L940.296 324.43L946.287 324.77L952.887 208.37L946.896 208.03ZM940.302 324.351C940.067 327.17 940.42 329.906 941.372 332.525L947.011 330.475C946.363 328.694 946.116 326.83 946.281 324.849L940.302 324.351ZM941.508 332.842C943.225 336.276 946.713 337.5 950.491 337.5V331.5C947.87 331.5 947.158 330.724 946.875 330.158L941.508 332.842ZM950.491 337.5C953.305 337.5 956.373 336.27 959.535 334.372L956.448 329.228C953.61 330.93 951.678 331.5 950.491 331.5V337.5ZM959.462 334.415C963.057 332.393 966.164 329.603 968.791 326.1L963.991 322.5C961.819 325.397 959.326 327.607 956.521 329.185L959.462 334.415ZM968.833 326.044C969.11 325.655 969.253 325.62 969.195 325.644C969.165 325.657 969.126 325.665 969.094 325.667C969.067 325.668 969.086 325.661 969.167 325.685L970.816 319.915C969.545 319.552 968.19 319.563 966.888 320.106C965.629 320.63 964.673 321.545 963.95 322.556L968.833 326.044ZM969.264 325.71C969.368 325.736 969.334 325.745 969.239 325.676C969.192 325.641 969.137 325.593 969.084 325.53C969.03 325.468 968.989 325.402 968.958 325.342C968.897 325.219 968.905 325.162 968.91 325.237C968.915 325.318 968.912 325.501 968.85 325.812L974.733 326.988C974.999 325.657 975.043 324.095 974.325 322.658C973.545 321.099 972.156 320.249 970.719 319.89L969.264 325.71ZM968.846 325.83C967.788 331.296 964.769 336.568 959.509 341.64L963.674 345.96C969.614 340.232 973.395 333.904 974.737 326.97L968.846 325.83ZM959.51 341.639C954.661 346.309 949.004 348.6 942.391 348.6V354.6C950.579 354.6 957.721 351.691 963.672 345.961L959.51 341.639ZM942.391 348.6C937.067 348.6 933.542 346.95 931.246 344.041L926.537 347.759C930.241 352.45 935.715 354.6 942.391 354.6V348.6ZM931.291 344.1C928.688 340.629 927.519 336.904 927.689 332.825L921.694 332.575C921.464 338.096 923.095 343.171 926.491 347.7L931.291 344.1ZM1022.57 340.8L1020.9 343.296L1020.93 343.316L1020.96 343.335L1022.57 340.8ZM1000.37 314.1L997.637 315.345L997.637 315.345L1000.37 314.1ZM994.366 274.8L991.38 274.517L991.378 274.537L991.376 274.558L994.366 274.8ZM1006.37 235.8L1003.8 234.243L1003.79 234.26L1003.78 234.277L1006.37 235.8ZM1032.47 209.7L1033.98 212.29L1034 212.279L1034.02 212.268L1032.47 209.7ZM1099.67 209.7L1098 212.196L1098.03 212.216L1098.06 212.235L1099.67 209.7ZM1122.47 235.8L1119.76 237.103L1119.77 237.122L1119.78 237.142L1122.47 235.8ZM1128.77 274.8L1125.78 274.517L1125.78 274.537L1125.78 274.558L1128.77 274.8ZM1116.47 314.1L1113.91 312.53L1113.9 312.547L1113.89 312.563L1116.47 314.1ZM1090.07 340.8L1091.58 343.39L1091.59 343.385L1091.6 343.381L1090.07 340.8ZM1015.07 274.8L1012.07 274.645L1012.07 274.671L1012.07 274.697L1015.07 274.8ZM1019.57 306.9L1016.73 307.883L1016.74 307.918L1016.76 307.953L1019.57 306.9ZM1034.87 330L1032.89 332.253L1032.92 332.285L1032.96 332.316L1034.87 330ZM1082.87 330L1084.71 332.368L1084.73 332.352L1084.75 332.336L1082.87 330ZM1100.27 306.9L1097.55 305.625L1097.54 305.638L1097.54 305.65L1100.27 306.9ZM1107.77 274.8L1104.77 274.645L1104.77 274.671L1104.77 274.697L1107.77 274.8ZM1103.27 243.3L1100.46 244.353L1100.46 244.363L1100.46 244.373L1103.27 243.3ZM1087.97 220.5L1085.99 222.753L1086.01 222.771L1086.03 222.788L1087.97 220.5ZM1039.97 220.5L1041.81 222.868L1041.82 222.861L1039.97 220.5ZM1022.57 243.3L1025.28 244.572L1025.29 244.561L1025.29 244.55L1022.57 243.3ZM1054.97 347.1C1043.72 347.1 1033.48 344.156 1024.17 338.265L1020.96 343.335C1031.25 349.844 1042.61 353.1 1054.97 353.1V347.1ZM1024.23 338.304C1015.13 332.24 1008.08 323.792 1003.1 312.855L997.637 315.345C1003.05 327.208 1010.8 336.56 1020.9 343.296L1024.23 338.304ZM1003.1 312.855C998.144 302 996.19 289.427 997.357 275.042L991.376 274.558C990.143 289.773 992.188 303.4 997.637 315.345L1003.1 312.855ZM997.353 275.083C998.718 260.658 1002.6 248.093 1008.95 237.323L1003.78 234.277C996.928 245.907 992.815 259.342 991.38 274.517L997.353 275.083ZM1008.93 237.357C1015.49 226.554 1023.84 218.221 1033.98 212.29L1030.95 207.11C1019.89 213.579 1010.84 222.646 1003.8 234.243L1008.93 237.357ZM1034.02 212.268C1044.13 206.161 1055.29 203.1 1067.57 203.1V197.1C1054.24 197.1 1042 200.439 1030.92 207.132L1034.02 212.268ZM1067.57 203.1C1078.79 203.1 1088.91 206.133 1098 212.196L1101.33 207.204C1091.23 200.467 1079.94 197.1 1067.57 197.1V203.1ZM1098.06 212.235C1107.35 218.113 1114.59 226.37 1119.76 237.103L1125.17 234.497C1119.54 222.83 1111.58 213.687 1101.27 207.165L1098.06 212.235ZM1119.78 237.142C1125.09 247.752 1127.14 260.171 1125.78 274.517L1131.75 275.083C1133.2 259.829 1131.04 246.248 1125.15 234.458L1119.78 237.142ZM1125.78 274.558C1124.61 288.94 1120.64 301.575 1113.91 312.53L1119.02 315.67C1126.3 303.825 1130.52 290.26 1131.76 275.042L1125.78 274.558ZM1113.89 312.563C1107.33 323.559 1098.88 332.089 1088.54 338.219L1091.6 343.381C1102.85 336.711 1112 327.441 1119.04 315.637L1113.89 312.563ZM1088.55 338.21C1078.43 344.13 1067.26 347.1 1054.97 347.1V353.1C1068.28 353.1 1080.5 349.87 1091.58 343.39L1088.55 338.21ZM1012.07 274.697C1011.66 286.622 1013.2 297.695 1016.73 307.883L1022.4 305.917C1019.14 296.505 1017.68 286.178 1018.06 274.903L1012.07 274.697ZM1016.76 307.953C1020.5 317.938 1025.86 326.077 1032.89 332.253L1036.85 327.747C1030.67 322.323 1025.83 315.062 1022.38 305.847L1016.76 307.953ZM1032.96 332.316C1040.31 338.368 1048.89 341.4 1058.57 341.4V335.4C1050.25 335.4 1043.02 332.832 1036.77 327.684L1032.96 332.316ZM1058.57 341.4C1068.24 341.4 1076.99 338.372 1084.71 332.368L1081.02 327.632C1074.34 332.828 1066.89 335.4 1058.57 335.4V341.4ZM1084.75 332.336C1092.36 326.206 1098.43 318.112 1102.99 308.15L1097.54 305.65C1093.31 314.888 1087.77 322.194 1080.98 327.664L1084.75 332.336ZM1102.98 308.175C1107.77 297.981 1110.35 286.879 1110.76 274.903L1104.77 274.697C1104.38 285.921 1101.97 296.219 1097.55 305.625L1102.98 308.175ZM1110.76 274.955C1111.38 263.001 1109.84 252.074 1106.07 242.227L1100.46 244.373C1103.89 253.326 1105.35 263.399 1104.77 274.645L1110.76 274.955ZM1106.08 242.247C1102.33 232.256 1096.96 224.199 1089.91 218.212L1086.03 222.788C1092.17 228.001 1097 235.143 1100.46 244.353L1106.08 242.247ZM1089.95 218.247C1082.78 211.953 1074.28 208.8 1064.57 208.8V214.8C1072.86 214.8 1079.95 217.447 1085.99 222.753L1089.95 218.247ZM1064.57 208.8C1054.86 208.8 1046.02 211.945 1038.12 218.139L1041.82 222.861C1048.71 217.455 1056.27 214.8 1064.57 214.8V208.8ZM1038.12 218.132C1030.49 224.072 1024.41 232.081 1019.84 242.05L1025.29 244.55C1029.52 235.319 1035.04 228.128 1041.81 222.868L1038.12 218.132ZM1019.85 242.028C1015.27 251.818 1012.69 262.704 1012.07 274.645L1018.06 274.955C1018.64 263.696 1021.07 253.582 1025.28 244.572L1019.85 242.028Z" fill="#F0EF9C" mask="url(#path-3-outside-1_55_189)"/>
</svg>
